<?xml version="1.0" encoding="UTF-8" standalone="no"?>
<!DOCTYPE svg PUBLIC "-//W3C//DTD SVG 1.1//EN" "http://www.w3.org/Graphics/SVG/1.1/DTD/svg11.dtd">
<svg version="1.1" xmlns="http://www.w3.org/2000/svg" xmlns:xlink="http://www.w3.org/1999/xlink" preserveAspectRatio="xMidYMid meet" viewBox="0 0 640 640" width="640" height="640"><defs><path d="M346.25 46.33L356.95 47.42L367.52 48.93L377.95 50.84L388.23 53.17L398.36 55.88L408.33 58.99L418.12 62.47L427.74 66.31L437.16 70.52L446.39 75.08L455.41 79.99L464.22 85.22L472.8 90.79L481.15 96.67L489.27 102.86L497.13 109.35L504.73 116.13L512.07 123.2L519.14 130.54L525.92 138.14L532.41 146L538.6 154.12L544.48 162.47L550.05 171.05L555.28 179.86L560.19 188.88L564.75 198.11L568.96 207.53L572.8 217.15L576.28 226.94L579.39 236.91L582.1 247.04L584.43 257.32L586.34 267.75L587.85 278.32L588.94 289.02L589.6 299.84L589.82 310.77L589.6 321.7L588.94 332.51L587.85 343.21L586.34 353.78L584.43 364.21L582.1 374.49L579.39 384.62L576.28 394.59L572.8 404.38L568.96 414L564.75 423.42L560.19 432.65L555.28 441.67L550.05 450.48L544.48 459.06L538.6 467.42L532.41 475.53L525.92 483.39L519.14 491L512.07 498.34L504.73 505.4L497.13 512.18L489.27 518.67L481.15 524.86L472.8 530.74L464.22 536.31L455.41 541.55L446.39 546.45L437.16 551.01L427.74 555.22L418.12 559.07L408.33 562.55L398.36 565.65L388.23 568.36L377.95 570.69L367.52 572.61L356.95 574.11L346.25 575.2L335.43 575.86L324.5 576.08L313.58 575.86L302.76 575.2L292.06 574.11L281.49 572.61L271.06 570.69L260.78 568.36L250.65 565.65L240.68 562.55L230.89 559.07L221.27 555.22L211.85 551.01L202.62 546.45L193.6 541.55L184.79 536.31L176.21 530.74L167.86 524.86L159.74 518.67L151.88 512.18L144.27 505.4L136.94 498.34L129.87 491L123.09 483.39L116.6 475.53L110.41 467.42L104.53 459.06L98.96 450.48L93.73 441.67L88.82 432.65L84.26 423.42L80.05 414L76.2 404.38L72.72 394.59L69.62 384.62L66.91 374.49L64.58 364.21L62.66 353.78L61.16 343.21L60.07 332.51L59.41 321.7L59.19 310.77L59.41 299.84L60.07 289.02L61.16 278.32L62.66 267.75L64.58 257.32L66.91 247.04L69.62 236.91L72.72 226.94L76.2 217.15L80.05 207.53L84.26 198.11L88.82 188.88L93.73 179.86L98.96 171.05L104.53 162.47L110.41 154.12L116.6 146L123.09 138.14L129.87 130.54L136.94 123.2L144.27 116.13L151.88 109.35L159.74 102.86L167.86 96.67L176.21 90.79L184.79 85.22L193.6 79.99L202.62 75.08L211.85 70.52L221.27 66.31L230.89 62.47L240.68 58.99L250.65 55.88L260.78 53.17L271.06 50.84L281.49 48.93L292.06 47.42L302.76 46.33L313.58 45.67L324.5 45.45L335.43 45.67L346.25 46.33ZM306.3 89.43L297.35 90.34L288.5 91.6L279.77 93.21L271.16 95.15L262.69 97.43L254.34 100.02L246.15 102.94L238.1 106.16L230.21 109.68L222.49 113.5L214.93 117.6L207.56 121.98L200.38 126.64L193.39 131.56L186.6 136.75L180.02 142.18L173.65 147.85L167.51 153.77L161.59 159.91L155.92 166.28L150.48 172.86L145.3 179.65L140.38 186.64L135.72 193.82L131.34 201.2L127.24 208.75L123.42 216.47L119.9 224.36L116.67 232.41L113.76 240.61L111.16 248.95L108.89 257.43L106.95 266.03L105.34 274.76L104.08 283.61L103.17 292.56L102.62 301.62L102.43 310.77L102.62 319.91L103.17 328.97L104.08 337.92L105.34 346.77L106.95 355.5L108.89 364.11L111.16 372.58L113.76 380.93L116.67 389.12L119.9 397.17L123.42 405.06L127.24 412.78L131.34 420.34L135.72 427.71L140.38 434.89L145.3 441.88L150.48 448.67L155.92 455.25L161.59 461.62L167.51 467.76L173.65 473.68L180.02 479.35L186.6 484.79L193.39 489.97L200.38 494.89L207.56 499.55L214.93 503.93L222.49 508.04L230.21 511.85L238.1 515.37L246.15 518.6L254.34 521.51L262.69 524.11L271.16 526.38L279.77 528.32L288.5 529.93L297.35 531.19L306.3 532.1L315.36 532.65L324.5 532.84L333.65 532.65L342.71 532.1L351.66 531.19L360.51 529.93L369.24 528.32L377.84 526.38L386.32 524.11L394.66 521.51L402.86 518.6L410.91 515.37L418.8 511.85L426.52 508.04L434.07 503.93L441.45 499.55L448.63 494.89L455.62 489.97L462.41 484.79L468.99 479.35L475.36 473.68L481.5 467.76L487.42 461.62L493.09 455.25L498.52 448.67L503.71 441.88L508.63 434.89L513.29 427.71L517.67 420.34L521.77 412.78L525.59 405.06L529.11 397.17L532.33 389.12L535.25 380.93L537.84 372.58L540.12 364.11L542.06 355.5L543.67 346.77L544.93 337.92L545.84 328.97L546.39 319.91L546.58 310.77L546.39 301.62L545.84 292.56L544.93 283.61L543.67 274.76L542.06 266.03L540.12 257.43L537.84 248.95L535.25 240.61L532.33 232.41L529.11 224.36L525.59 216.47L521.77 208.75L517.67 201.2L513.29 193.82L508.63 186.64L503.71 179.65L498.52 172.86L493.09 166.28L487.42 159.91L481.5 153.77L475.36 147.85L468.99 142.18L462.41 136.75L455.62 131.56L448.63 126.64L441.45 121.98L434.07 117.6L426.52 113.5L418.8 109.68L410.91 106.16L402.86 102.94L394.66 100.02L386.32 97.43L377.84 95.15L369.24 93.21L360.51 91.6L351.66 90.34L342.71 89.43L333.65 88.88L324.5 88.69L315.36 88.88L306.3 89.43Z" id="aC0N22Vo4"></path><linearGradient id="gradientb7QUveoL2G" gradientUnits="userSpaceOnUse" x1="324.5" y1="45.45" x2="324.5" y2="576.08"><stop style="stop-color: #ddffee;stop-opacity: 1" offset="0%"></stop><stop style="stop-color: #00ffa1;stop-opacity: 1" offset="100%"></stop></linearGradient><path d="M308.82 418.65L308.65 418.82L139.16 249.34L179.75 208.75L308.82 337.82L565.47 81.19L606.05 121.78L308.99 418.82L308.99 418.82L308.82 418.65Z" id="bvbs1AOrr"></path><linearGradient id="gradiente1iPEYj35x" gradientUnits="userSpaceOnUse" x1="521.22" y1="36.95" x2="223.99" y2="334.17"><stop style="stop-color: #99ffda;stop-opacity: 1" offset="0%"></stop><stop style="stop-color: #00ff7d;stop-opacity: 1" offset="100%"></stop></linearGradient></defs><g><g><g><use xlink:href="#aC0N22Vo4" opacity="1" fill="url(#gradientb7QUveoL2G)"></use></g><g><use xlink:href="#bvbs1AOrr" opacity="1" fill="url(#gradiente1iPEYj35x)"></use></g></g></g></svg>