<?xml version="1.0" encoding="UTF-8" standalone="no"?>
<!DOCTYPE svg PUBLIC "-//W3C//DTD SVG 1.1//EN" "http://www.w3.org/Graphics/SVG/1.1/DTD/svg11.dtd">
<svg version="1.1" xmlns="http://www.w3.org/2000/svg" xmlns:xlink="http://www.w3.org/1999/xlink" preserveAspectRatio="xMidYMid meet" viewBox="0 0 640 640" width="640" height="640"><defs><path d="M414.61 105.98L415.34 106.06L416.07 106.16L416.79 106.3L417.5 106.45L418.2 106.64L418.88 106.86L419.56 107.09L420.22 107.36L420.87 107.65L421.5 107.96L422.13 108.3L422.73 108.66L423.32 109.04L423.9 109.45L424.46 109.87L425 110.32L425.52 110.79L426.03 111.27L426.51 111.78L426.98 112.3L427.43 112.84L427.85 113.4L428.26 113.98L428.64 114.57L429 115.17L429.34 115.8L429.65 116.43L429.94 117.08L430.21 117.74L430.44 118.42L430.66 119.1L430.84 119.8L431 120.51L431.14 121.23L431.24 121.96L431.32 122.69L431.36 123.44L431.38 124.19L431.38 159.46L463.99 159.46L464.74 159.48L465.48 159.52L466.22 159.6L466.95 159.7L467.67 159.84L468.38 160L469.07 160.18L469.76 160.4L470.43 160.64L471.1 160.9L471.75 161.19L472.38 161.5L473 161.84L473.61 162.2L474.2 162.58L474.77 162.99L475.33 163.41L475.87 163.86L476.4 164.33L476.9 164.81L477.39 165.32L477.86 165.84L478.3 166.38L478.73 166.94L479.13 167.52L479.52 168.11L479.88 168.71L480.21 169.34L480.53 169.97L480.82 170.62L481.08 171.28L481.32 171.96L481.53 172.64L481.72 173.34L481.88 174.05L482.01 174.77L482.12 175.5L482.19 176.23L482.24 176.98L482.25 177.73L482.25 476.82L482.24 477.58L482.19 478.32L482.12 479.06L482.01 479.79L481.88 480.51L481.72 481.21L481.53 481.91L481.32 482.6L481.08 483.27L480.82 483.93L480.53 484.58L480.21 485.22L479.88 485.84L479.52 486.45L479.13 487.04L478.73 487.61L478.3 488.17L477.86 488.71L477.39 489.23L476.9 489.74L476.4 490.23L475.87 490.69L475.33 491.14L474.77 491.57L474.2 491.97L473.61 492.35L473 492.71L472.38 493.05L471.75 493.37L471.1 493.65L470.43 493.92L469.76 494.16L469.07 494.37L468.38 494.56L467.67 494.72L466.95 494.85L466.22 494.95L465.48 495.03L464.74 495.07L463.99 495.09L231.48 495.09L230.73 495.07L229.99 495.03L229.25 494.95L228.52 494.85L227.8 494.72L227.1 494.56L226.4 494.37L225.71 494.16L225.04 493.92L224.37 493.65L223.73 493.37L223.09 493.05L222.47 492.71L221.86 492.35L221.27 491.97L220.7 491.57L220.14 491.14L219.6 490.69L219.07 490.23L218.57 489.74L218.08 489.23L217.62 488.71L217.17 488.17L216.74 487.61L216.34 487.04L215.96 486.45L215.6 485.84L215.26 485.22L214.94 484.58L214.65 483.93L214.39 483.27L214.15 482.6L213.94 481.91L213.75 481.21L213.59 480.51L213.46 479.79L213.35 479.06L213.28 478.32L213.23 477.58L213.22 476.82L213.22 441.55L180.61 441.55L179.86 441.53L179.11 441.49L178.37 441.41L177.65 441.31L176.93 441.18L176.22 441.02L175.52 440.83L174.83 440.62L174.16 440.38L173.5 440.11L172.85 439.82L172.21 439.51L171.59 439.17L170.99 438.81L170.4 438.43L169.82 438.03L169.26 437.6L168.72 437.15L168.2 436.69L167.69 436.2L167.21 435.69L166.74 435.17L166.29 434.63L165.87 434.07L165.46 433.5L165.08 432.91L164.72 432.3L164.38 431.68L164.07 431.04L163.78 430.39L163.51 429.73L163.27 429.06L163.06 428.37L162.87 427.67L162.71 426.97L162.58 426.25L162.48 425.52L162.4 424.78L162.36 424.04L162.34 423.28L162.34 124.19L162.36 123.44L162.4 122.69L162.48 121.96L162.58 121.23L162.71 120.51L162.87 119.8L163.06 119.1L163.27 118.42L163.51 117.74L163.78 117.08L164.07 116.43L164.38 115.8L164.72 115.17L165.08 114.57L165.46 113.98L165.87 113.4L166.29 112.84L166.74 112.3L167.21 111.78L167.69 111.27L168.2 110.79L168.72 110.32L169.26 109.87L169.82 109.45L170.4 109.04L170.99 108.66L171.59 108.3L172.21 107.96L172.85 107.65L173.5 107.36L174.16 107.09L174.83 106.86L175.52 106.64L176.22 106.45L176.93 106.3L177.65 106.16L178.37 106.06L179.11 105.98L179.86 105.94L180.61 105.92L413.11 105.92L413.86 105.94L414.61 105.98ZM194.92 127.54L194.27 127.58L193.62 127.64L192.99 127.73L192.36 127.85L191.75 127.99L191.14 128.15L190.54 128.34L189.95 128.54L189.38 128.77L188.81 129.03L188.26 129.3L187.72 129.59L187.19 129.91L186.67 130.24L186.17 130.59L185.69 130.97L185.21 131.35L184.76 131.76L184.32 132.19L183.89 132.63L183.49 133.08L183.1 133.55L182.73 134.04L182.37 134.54L182.04 135.06L181.73 135.58L181.43 136.12L181.16 136.68L180.91 137.24L180.68 137.82L180.47 138.41L180.28 139.01L180.12 139.61L179.98 140.23L179.86 140.86L179.77 141.49L179.71 142.13L179.67 142.78L179.66 143.44L179.66 404.04L179.67 404.69L179.71 405.34L179.77 405.98L179.86 406.62L179.98 407.24L180.12 407.86L180.28 408.47L180.47 409.07L180.68 409.65L180.91 410.23L181.16 410.8L181.43 411.35L181.73 411.89L182.04 412.42L182.37 412.93L182.73 413.43L183.1 413.92L183.49 414.39L183.89 414.85L184.32 415.29L184.76 415.71L185.21 416.12L185.69 416.51L186.17 416.88L186.67 417.23L187.19 417.57L187.72 417.88L188.26 418.17L188.81 418.45L189.38 418.7L189.95 418.93L190.54 419.14L191.14 419.32L191.75 419.49L192.36 419.63L192.99 419.74L193.62 419.83L194.27 419.9L194.92 419.94L195.57 419.95L213.22 419.95L213.22 177.73L213.23 176.98L213.28 176.23L213.35 175.5L213.46 174.77L213.59 174.05L213.75 173.34L213.94 172.64L214.15 171.96L214.39 171.28L214.65 170.62L214.94 169.97L215.26 169.34L215.6 168.71L215.96 168.11L216.34 167.52L216.74 166.94L217.17 166.38L217.62 165.84L218.08 165.32L218.57 164.81L219.07 164.33L219.6 163.86L220.14 163.41L220.7 162.99L221.27 162.58L221.86 162.2L222.47 161.84L223.09 161.5L223.73 161.19L224.37 160.9L225.04 160.64L225.71 160.4L226.4 160.18L227.1 160L227.8 159.84L228.52 159.7L229.25 159.6L229.99 159.52L230.73 159.48L231.48 159.46L414.06 159.46L414.06 143.44L414.05 142.78L414.01 142.13L413.94 141.49L413.85 140.86L413.74 140.23L413.6 139.61L413.44 139.01L413.25 138.41L413.04 137.82L412.81 137.24L412.56 136.68L412.29 136.12L411.99 135.58L411.68 135.06L411.34 134.54L410.99 134.04L410.62 133.55L410.23 133.08L409.82 132.63L409.4 132.19L408.96 131.76L408.5 131.35L408.03 130.97L407.55 130.59L407.04 130.24L406.53 129.91L406 129.59L405.46 129.3L404.91 129.03L404.34 128.77L403.76 128.54L403.18 128.34L402.58 128.15L401.97 127.99L401.35 127.85L400.73 127.73L400.09 127.64L399.45 127.58L398.8 127.54L398.15 127.52L195.57 127.52L194.92 127.54Z" id="cAq8buE5g"></path></defs><g><g><g><use xlink:href="#cAq8buE5g" opacity="1" fill="#6480ff" fill-opacity="1"></use></g></g></g></svg>