<?xml version="1.0" encoding="UTF-8" standalone="no"?>
<!DOCTYPE svg PUBLIC "-//W3C//DTD SVG 1.1//EN" "http://www.w3.org/Graphics/SVG/1.1/DTD/svg11.dtd">
<svg version="1.1" xmlns="http://www.w3.org/2000/svg" xmlns:xlink="http://www.w3.org/1999/xlink" preserveAspectRatio="xMidYMid meet" viewBox="0 0 900 675" width="900" height="675"><defs><path d="M545.03 529.31L454.75 558.34L364.69 534.16L456.7 502.13L545.03 529.31Z" id="c2LsTtogr"></path><path d="M457.88 172.06L789.25 93.08L789.25 552.25L457.88 663.36L457.88 172.06Z" id="j5SRkCQtu5"></path><path d="M110.75 93.08L457.88 168.84L457.88 663.36L110.75 572.45L110.75 93.08Z" id="b3pB4ea87F"></path><path d="M141.31 149.48L421.45 210.62L421.45 609.72L141.31 536.35L141.31 149.48Z" id="eop4HBA9e"></path><path d="M146.58 156.76L416.18 215.6L416.18 599.68L146.58 529.07L146.58 156.76Z" id="g1hz2lAUyG"></path><path d="M250.06 309.42L284.27 308.01L290.02 447.02L255.81 448.43L250.06 309.42Z" id="a2KffQSUcK"></path><path d="M331.02 374.03C333.84 412.32 315.19 444.95 289.41 446.85C263.64 448.74 240.42 419.2 237.6 380.91C234.79 342.62 253.43 309.99 279.21 308.09C304.99 306.2 328.2 335.74 331.02 374.03Z" id="a1J5si1fqx"></path><path d="M789.25 93.08L457.88 172.06L110.75 93.08L457.88 21.63L789.25 93.08Z" id="bXPw0UKoD"></path><path d="M298.7 375.44C301.51 413.73 282.87 446.36 257.09 448.26C231.31 450.15 208.1 420.61 205.28 382.32C202.46 344.03 221.1 311.4 246.88 309.5C272.66 307.61 295.88 337.15 298.7 375.44Z" id="bqtRMSFAs"></path><path d="M281.22 376.79C282.85 398.97 272.05 417.86 257.12 418.96C242.19 420.06 228.74 402.95 227.11 380.77C225.48 358.59 236.28 339.69 251.21 338.6C266.14 337.5 279.59 354.61 281.22 376.79Z" id="e16BgeTz47"></path><path d="M232.68 339.35L252.5 338.53L255.83 419.05L236.01 419.87L232.68 339.35Z" id="b3rJEDUMAR"></path><path d="M261.4 377.61C263.03 399.79 252.23 418.68 237.3 419.78C222.37 420.88 208.92 403.77 207.29 381.59C205.66 359.41 216.46 340.51 231.39 339.42C246.32 338.32 259.77 355.43 261.4 377.61Z" id="b2Pa1d9AjT"></path></defs><g><g><g><use xlink:href="#c2LsTtogr" opacity="1" fill="#cbe6ff" fill-opacity="1"></use></g><g><use xlink:href="#j5SRkCQtu5" opacity="1" fill="#5268cf" fill-opacity="1"></use></g><g><use xlink:href="#b3pB4ea87F" opacity="1" fill="#6480ff" fill-opacity="1"></use></g><g><use xlink:href="#eop4HBA9e" opacity="1" fill="#4f65cb" fill-opacity="1"></use></g><g><use xlink:href="#g1hz2lAUyG" opacity="1" fill="#6480ff" fill-opacity="1"></use></g><g><use xlink:href="#a2KffQSUcK" opacity="1" fill="#4559b4" fill-opacity="1"></use></g><g><use xlink:href="#a1J5si1fqx" opacity="1" fill="#4c60bd" fill-opacity="1"></use></g><g><use xlink:href="#bXPw0UKoD" opacity="1" fill="#8fa3ff" fill-opacity="1"></use></g><g><use xlink:href="#bqtRMSFAs" opacity="1" fill="#6e88ff" fill-opacity="1"></use></g><g><use xlink:href="#e16BgeTz47" opacity="1" fill="#8aa9c5" fill-opacity="1"></use></g><g><use xlink:href="#b3rJEDUMAR" opacity="1" fill="#8aa9c5" fill-opacity="1"></use></g><g><use xlink:href="#b2Pa1d9AjT" opacity="1" fill="#cee7ff" fill-opacity="1"></use></g></g></g></svg>