<?xml version="1.0" encoding="UTF-8" standalone="no"?>
<!DOCTYPE svg PUBLIC "-//W3C//DTD SVG 1.1//EN" "http://www.w3.org/Graphics/SVG/1.1/DTD/svg11.dtd">
<svg version="1.1" xmlns="http://www.w3.org/2000/svg" xmlns:xlink="http://www.w3.org/1999/xlink" preserveAspectRatio="xMidYMid meet" viewBox="0 0 640 640" width="640" height="640"><defs><path d="M550.27 382.29L550.39 382.75L550.49 383.92L550.39 385.09L550.09 386.24L549.59 387.39L548.9 388.51L548.02 389.63L546.95 390.73L545.7 391.81L544.28 392.87L542.68 393.92L540.92 394.95L538.98 395.95L536.89 396.94L534.64 397.9L532.24 398.85L529.68 399.76L526.98 400.65L524.14 401.52L521.16 402.36L518.05 403.17L514.81 403.96L511.44 404.71L507.94 405.44L504.34 406.13L500.61 406.79L496.78 407.42L492.84 408.01L488.79 408.57L484.65 409.1L480.42 409.58L476.09 410.03L471.68 410.45L467.18 410.82L462.61 411.15L457.96 411.44L453.24 411.69L448.45 411.89L443.6 412.05L438.69 412.17L433.72 412.24L428.7 412.26L423.69 412.24L418.72 412.17L413.81 412.05L408.96 411.89L404.17 411.69L399.45 411.44L394.8 411.15L390.23 410.82L385.73 410.45L381.32 410.03L376.99 409.58L372.75 409.1L368.61 408.57L364.57 408.01L360.63 407.42L356.8 406.79L353.07 406.13L349.46 405.44L345.97 404.71L342.6 403.96L339.36 403.17L336.25 402.36L333.27 401.52L330.42 400.65L327.72 399.76L325.17 398.85L322.77 397.9L320.52 396.94L318.42 395.95L316.49 394.95L314.72 393.92L313.13 392.87L311.7 391.81L310.46 390.73L309.39 389.63L308.51 388.51L307.82 387.39L307.32 386.24L307.01 385.09L306.91 383.92L307.01 382.75L307.14 382.29L306.91 382.29L433.76 15.36L550.49 382.29L550.27 382.29Z" id="h5flfcNw1e"></path><linearGradient id="gradientdikDIUolA" gradientUnits="userSpaceOnUse" x1="484.07" y1="174.62" x2="362.69" y2="223.3"><stop style="stop-color: #8493ff;stop-opacity: 1" offset="0%"></stop><stop style="stop-color: #0029ff;stop-opacity: 1" offset="100%"></stop></linearGradient><path d="M378.84 288.15L395.83 320.15L374.16 350.78L360.36 319.4L378.84 288.15Z" id="a1ueJhu6NC"></path><linearGradient id="gradientbKuFV2gA5" gradientUnits="userSpaceOnUse" x1="385.03" y1="305.32" x2="369.16" y2="336.04"><stop style="stop-color: #ffe2b3;stop-opacity: 1" offset="0%"></stop><stop style="stop-color: #ffc300;stop-opacity: 1" offset="100%"></stop></linearGradient><path d="M405.16 168.71L423 200.24L402.17 231.44L387.52 200.45L405.16 168.71Z" id="keHTag10d"></path><linearGradient id="gradientd1nguiD4KJ" gradientUnits="userSpaceOnUse" x1="411.8" y1="185.7" x2="396.77" y2="216.84"><stop style="stop-color: #ffe2b3;stop-opacity: 1" offset="0%"></stop><stop style="stop-color: #ffc300;stop-opacity: 1" offset="100%"></stop></linearGradient><path d="M471.19 236.58L490.41 270.16L469.53 301.45L453.63 268.59L471.19 236.58Z" id="a1rihybaJO"></path><linearGradient id="gradientaqTX6YePq" gradientUnits="userSpaceOnUse" x1="478.47" y1="254.53" x2="463.6" y2="286.04"><stop style="stop-color: #ffe2b3;stop-opacity: 1" offset="0%"></stop><stop style="stop-color: #ffc300;stop-opacity: 1" offset="100%"></stop></linearGradient><path d="M148.23 211.36C178.32 225.69 201.64 239.67 200.26 242.57C198.88 245.46 173.33 236.18 143.24 221.85C113.14 207.52 89.83 193.53 91.2 190.64C92.58 187.75 118.13 197.03 148.23 211.36Z" id="b1JM4dAVjg"></path><linearGradient id="gradientc5dvPRwSwp" gradientUnits="userSpaceOnUse" x1="91.87" y1="189.24" x2="195.92" y2="241.78"><stop style="stop-color: #ffb3b3;stop-opacity: 1" offset="0%"></stop><stop style="stop-color: #d42424;stop-opacity: 1" offset="100%"></stop></linearGradient><path d="M96.62 180.44L97.54 181.38L98.29 182.48L98.85 183.74L99.18 185.07L99.26 186.4L99.11 187.71L98.74 188.96L98.17 190.12L97.4 191.18L96.46 192.09L95.36 192.84L94.11 193.4L92.77 193.73L91.44 193.81L90.13 193.66L88.88 193.29L87.72 192.72L86.67 191.96L85.75 191.02L85 189.91L84.44 188.66L84.11 187.32L84.03 185.99L84.18 184.69L84.55 183.44L85.12 182.27L85.89 181.22L86.83 180.3L87.93 179.55L89.18 178.99L90.52 178.67L91.85 178.59L93.16 178.74L94.41 179.1L95.57 179.68L95.57 179.68L96.62 180.44ZM86.78 183.81L86.33 185.12L86.23 186.52L86.52 187.95L87.16 189.25L88.1 190.3L89.26 191.06L90.57 191.51L91.97 191.61L93.4 191.33L94.7 190.68L95.74 189.74L96.51 188.59L96.96 187.27L97.06 185.87L96.77 184.45L96.13 183.15L95.19 182.1L94.03 181.33L92.72 180.89L91.32 180.79L89.89 181.07L88.59 181.72L87.55 182.65L87.55 182.65L86.78 183.81Z" id="b12z1Tx3qo"></path><linearGradient id="gradienta7jTI11RB" gradientUnits="userSpaceOnUse" x1="89.18" y1="178.99" x2="94.11" y2="193.4"><stop style="stop-color: #c6ae85;stop-opacity: 1" offset="0%"></stop><stop style="stop-color: #966718;stop-opacity: 1" offset="100%"></stop></linearGradient><path d="M131.97 241.48C150 235.68 161.27 232.05 165.78 230.6C168.46 229.74 171.32 231.33 172.01 234.06C176.95 253.74 173.31 239.24 173.95 241.79C189.11 302.12 209.27 361.07 234.22 418.05C237.98 426.63 219.07 383.46 224.65 396.21C243.21 438.59 272.83 475.19 310.4 502.19C314.11 504.86 293 489.68 302.99 496.87C320.2 509.23 339.2 518.87 359.34 525.43C363.76 526.87 353.27 523.45 359.34 525.43C374.04 530.23 389.17 533.6 404.51 535.5C407.52 535.88 415.06 536.81 427.12 538.31L427.11 545.66C406.27 548.72 393.25 550.63 388.04 551.39C349.87 556.99 311.08 556.78 272.97 550.77C264.17 549.38 284.47 552.58 272.97 550.77C244.03 546.2 216.55 534.95 192.71 517.92C186 513.13 196.99 520.98 189 515.27C169.29 501.19 152.64 483.27 140.05 462.58C130.65 447.14 134.84 454.03 128.77 444.05C105.01 405.01 84.89 363.87 68.66 321.14C64.65 310.57 59.25 296.34 50.8 274.09C49.6 270.94 51.29 267.43 54.5 266.4C64.83 263.07 90.65 254.77 131.97 241.48Z" id="a1rzt8cYtA"></path><linearGradient id="gradientbne6jBnF2" gradientUnits="userSpaceOnUse" x1="174.04" y1="249.61" x2="198.1" y2="521.57"><stop style="stop-color: #f8f8f8;stop-opacity: 1" offset="0%"></stop><stop style="stop-color: #baa98b;stop-opacity: 1" offset="100%"></stop></linearGradient><path d="M148.49 203.74L148.66 203.75L148.84 203.76L149.02 203.77L149.19 203.79L149.37 203.81L149.54 203.83L149.71 203.86L149.89 203.89L150.06 203.92L150.23 203.95L150.41 203.99L150.58 204.04L150.75 204.08L150.92 204.13L151.09 204.18L151.25 204.24L151.42 204.3L151.59 204.36L151.75 204.43L151.92 204.49L152.08 204.57L165.09 210.42L165.62 210.25L165.8 210.19L165.98 210.14L166.17 210.09L166.35 210.06L166.53 210.03L166.72 210L166.9 209.99L167.09 209.98L167.27 209.98L167.45 209.99L167.63 210L167.81 210.02L167.99 210.04L168.17 210.08L168.35 210.12L168.52 210.16L168.69 210.21L168.86 210.27L169.03 210.33L169.2 210.4L169.36 210.48L169.52 210.56L169.68 210.65L169.83 210.74L169.98 210.84L170.13 210.95L170.27 211.06L170.41 211.17L170.55 211.29L170.68 211.42L170.81 211.55L170.93 211.69L171.05 211.83L171.16 211.97L171.27 212.12L171.37 212.28L171.47 212.44L171.56 212.61L171.64 212.78L171.72 212.95L177.69 226.79L177.74 226.92L177.79 227.04L177.83 227.17L177.87 227.31L177.89 227.44L177.92 227.57L177.93 227.7L177.95 227.83L177.95 227.96L177.95 228.09L177.95 228.22L177.94 228.35L177.93 228.48L177.9 228.61L177.88 228.73L177.85 228.86L177.81 228.98L177.77 229.1L177.73 229.22L177.68 229.34L177.63 229.46L177.57 229.57L177.5 229.68L177.44 229.79L177.36 229.9L177.29 230L177.21 230.1L177.12 230.2L177.03 230.3L176.94 230.39L176.84 230.47L176.74 230.56L176.63 230.64L176.52 230.71L176.41 230.78L176.3 230.85L176.18 230.91L176.05 230.97L175.92 231.02L175.79 231.07L48.5 274.53L48.42 274.56L48.33 274.58L48.25 274.6L48.17 274.61L48.08 274.62L48 274.63L47.92 274.64L47.83 274.64L47.75 274.64L47.67 274.63L47.59 274.62L47.51 274.61L47.43 274.59L47.35 274.58L47.27 274.55L47.19 274.53L47.12 274.5L47.04 274.47L46.97 274.44L46.9 274.4L46.83 274.36L46.76 274.32L46.69 274.27L46.63 274.23L46.56 274.18L46.5 274.12L46.44 274.07L46.39 274.01L46.33 273.95L46.28 273.89L46.23 273.82L46.18 273.76L46.14 273.69L46.09 273.62L46.05 273.54L46.02 273.47L45.98 273.39L45.95 273.31L45.92 273.23L45.9 273.14L41.67 257.36L41.62 257.17L41.59 256.99L41.56 256.8L41.53 256.61L41.52 256.43L41.51 256.24L41.5 256.06L41.51 255.88L41.52 255.69L41.54 255.51L41.56 255.33L41.6 255.16L41.63 254.98L41.68 254.81L41.73 254.63L41.79 254.46L41.85 254.3L41.92 254.13L42 253.97L42.08 253.81L42.16 253.65L42.26 253.5L42.36 253.35L42.46 253.2L42.57 253.06L42.68 252.92L42.8 252.79L42.93 252.66L43.06 252.53L43.19 252.41L43.33 252.3L43.48 252.18L43.63 252.08L43.78 251.98L43.94 251.88L44.1 251.79L44.27 251.71L44.44 251.63L44.62 251.56L44.8 251.49L46.82 250.8L49.16 240.42L49.2 240.25L49.24 240.08L49.29 239.91L49.34 239.75L49.4 239.58L49.46 239.42L49.53 239.26L49.6 239.11L49.67 238.95L49.75 238.8L49.83 238.65L49.91 238.5L50 238.35L50.09 238.21L50.19 238.07L50.29 237.93L50.39 237.79L50.49 237.66L50.6 237.53L50.71 237.4L50.83 237.28L50.95 237.15L51.07 237.03L51.19 236.92L51.32 236.81L51.45 236.7L51.58 236.59L51.72 236.49L51.86 236.39L52 236.29L52.14 236.2L52.29 236.11L52.44 236.02L52.59 235.94L52.74 235.86L52.9 235.79L53.06 235.72L53.22 235.65L53.38 235.59L53.55 235.53L145.18 204.24L145.35 204.18L145.53 204.13L145.7 204.08L145.87 204.04L146.04 203.99L146.21 203.95L146.39 203.92L146.56 203.88L146.73 203.86L146.91 203.83L147.08 203.81L147.26 203.79L147.43 203.77L147.61 203.76L147.79 203.75L147.96 203.74L148.14 203.74L148.31 203.74L148.49 203.74Z" id="dd3BMWrqu"></path><linearGradient id="gradientd9z3HoMKc" gradientUnits="userSpaceOnUse" x1="97.42" y1="220.55" x2="109.64" y2="249.89"><stop style="stop-color: #c6ae85;stop-opacity: 1" offset="0%"></stop><stop style="stop-color: #966718;stop-opacity: 1" offset="100%"></stop></linearGradient><path d="M122.61 204.26C119.92 204.27 117.25 203.93 114.65 203.24C113.27 202.88 113.99 203.07 112.85 202.77C109.48 201.87 106.28 200.46 103.35 198.57C102.66 198.12 104.24 199.14 103.35 198.57C101.07 197.09 99.07 195.21 97.46 193.01C97.28 192.76 96.81 192.12 96.06 191.1L90.2 193.1C90.23 194.18 90.25 194.86 90.25 195.13C90.33 198.07 89.78 200.99 88.63 203.69C88.21 204.69 88.64 203.67 88.21 204.69C87.09 207.34 85.61 209.81 83.82 212.06C82.93 213.18 83.4 212.59 82.62 213.57C80.46 216.29 77.91 218.66 75.05 220.63C73.8 221.5 71.84 222.85 69.95 224.14C69.76 224.27 69.91 224.57 70.13 224.5C82.01 220.44 116.3 208.73 128.19 204.68C128.43 204.59 128.37 204.23 128.11 204.23C126.2 204.24 123.99 204.25 122.61 204.26Z" id="c1xrKgJfXy"></path><linearGradient id="gradientg1EfhKLhVb" gradientUnits="userSpaceOnUse" x1="90.34" y1="196.87" x2="109.19" y2="211.16"><stop style="stop-color: #c6ae85;stop-opacity: 1" offset="0%"></stop><stop style="stop-color: #560808;stop-opacity: 1" offset="100%"></stop></linearGradient><path d="M128.12 203.93C129.14 203.58 130.26 204.01 130.78 204.95C131.31 205.89 132.08 207.28 132.63 208.27C133.03 208.99 132.68 209.9 131.9 210.17C119.22 214.5 82.2 227.14 69.39 231.51C68.92 231.67 68.42 231.34 68.38 230.84C68.28 229.57 68.11 227.45 68.02 226.35C67.93 225.27 68.59 224.26 69.62 223.9C81.68 219.79 116.07 208.05 128.12 203.93Z" id="dUKi4VLUy"></path><linearGradient id="gradientb1XSA35one" gradientUnits="userSpaceOnUse" x1="94.8" y1="215.31" x2="100.91" y2="220.75"><stop style="stop-color: #c6ae85;stop-opacity: 1" offset="0%"></stop><stop style="stop-color: #966718;stop-opacity: 1" offset="100%"></stop></linearGradient><path d="M95.49 188.96C96.35 188.67 97.28 189.12 97.57 189.98C97.68 190.29 97.47 189.67 97.57 189.98C97.86 190.83 97.41 191.76 96.55 192.05C95.13 192.54 92.4 193.47 90.98 193.96C90.12 194.25 89.19 193.79 88.9 192.94C88.8 192.63 89.01 193.25 88.9 192.94C88.61 192.08 89.07 191.15 89.92 190.86C91.35 190.37 94.07 189.44 95.49 188.96Z" id="aR6X9zRS2"></path><path d="M428.7 538.16L428.16 547.35L392.81 551.64L392.07 533.9L428.7 538.16Z" id="a2NTIXnlXc"></path><linearGradient id="gradienta1lVq27Sto" gradientUnits="userSpaceOnUse" x1="406.69" y1="532.99" x2="412.07" y2="548.75"><stop style="stop-color: #c6ae85;stop-opacity: 1" offset="0%"></stop><stop style="stop-color: #4b3b24;stop-opacity: 1" offset="100%"></stop></linearGradient><path d="M394.69 531.83L394.6 553.13L376.5 555.22L375.82 529.27L394.69 531.83Z" id="b2HQVK9X4p"></path><linearGradient id="gradienti332JYCG" gradientUnits="userSpaceOnUse" x1="380.21" y1="527.77" x2="389.47" y2="554.88"><stop style="stop-color: #c6ae85;stop-opacity: 1" offset="0%"></stop><stop style="stop-color: #4b3b24;stop-opacity: 1" offset="100%"></stop></linearGradient></defs><g><g><g><use xlink:href="#h5flfcNw1e" opacity="1" fill="url(#gradientdikDIUolA)"></use></g><g><use xlink:href="#a1ueJhu6NC" opacity="1" fill="url(#gradientbKuFV2gA5)"></use></g><g><use xlink:href="#keHTag10d" opacity="1" fill="url(#gradientd1nguiD4KJ)"></use></g><g><use xlink:href="#a1rihybaJO" opacity="1" fill="url(#gradientaqTX6YePq)"></use></g><g><use xlink:href="#b1JM4dAVjg" opacity="1" fill="url(#gradientc5dvPRwSwp)"></use></g><g><use xlink:href="#b12z1Tx3qo" opacity="1" fill="url(#gradienta7jTI11RB)"></use></g><g><use xlink:href="#a1rzt8cYtA" opacity="1" fill="url(#gradientbne6jBnF2)"></use></g><g><use xlink:href="#dd3BMWrqu" opacity="1" fill="url(#gradientd9z3HoMKc)"></use></g><g><use xlink:href="#c1xrKgJfXy" opacity="1" fill="url(#gradientg1EfhKLhVb)"></use></g><g><use xlink:href="#dUKi4VLUy" opacity="1" fill="url(#gradientb1XSA35one)"></use></g><g><use xlink:href="#aR6X9zRS2" opacity="1" fill="#ff8a8a" fill-opacity="1"></use></g><g><use xlink:href="#a2NTIXnlXc" opacity="1" fill="url(#gradienta1lVq27Sto)"></use></g><g><use xlink:href="#b2HQVK9X4p" opacity="1" fill="url(#gradienti332JYCG)"></use></g></g></g></svg>