<?xml version="1.0" encoding="UTF-8" standalone="no"?>
<!DOCTYPE svg PUBLIC "-//W3C//DTD SVG 1.1//EN" "http://www.w3.org/Graphics/SVG/1.1/DTD/svg11.dtd">
<svg version="1.1" xmlns="http://www.w3.org/2000/svg" xmlns:xlink="http://www.w3.org/1999/xlink" preserveAspectRatio="xMidYMid meet" viewBox="0 0 640 640" width="640" height="640"><defs><path d="M180.51 66.72C228.76 88.06 266.13 108.88 263.92 113.19C261.71 117.5 220.75 103.68 172.51 82.34C124.27 61 86.9 40.18 89.1 35.87C91.31 31.56 132.27 45.38 180.51 66.72Z" id="a26HARqmHT"></path><linearGradient id="gradientamVJZvvet" gradientUnits="userSpaceOnUse" x1="90.17" y1="33.78" x2="256.96" y2="112.03"><stop style="stop-color: #ffb3b3;stop-opacity: 1" offset="0%"></stop><stop style="stop-color: #d42424;stop-opacity: 1" offset="100%"></stop></linearGradient><path d="M154.46 109.76C183.6 101.05 201.81 95.61 209.1 93.43C213.21 92.2 217.52 94.6 218.64 98.75C226.56 128.04 220.61 106.04 221.62 109.76C245.99 199.89 278.28 287.7 318.09 372.16C324.17 385.05 294.23 321.54 303.22 340.62C332.83 403.42 378.98 456.97 436.73 495.53C443.42 500 413.93 480.3 430.29 491.23C456.76 508.9 485.69 522.57 516.15 531.8C523.79 534.11 510.8 530.18 520.95 533.25C543.17 539.99 565.96 544.71 589.03 547.37C594.16 547.96 607.01 549.44 627.57 551.81L627.56 562.76C591.11 567.73 568.33 570.84 559.21 572.08C501.78 579.91 443.52 579.62 386.17 571.2C370.92 568.97 395.43 572.56 376.13 569.73C332.54 563.34 290.9 547.39 254.2 523.03C242.95 515.57 257.12 524.97 243.91 516.21C213.61 496.1 187.72 470.05 167.79 439.64C152.65 416.52 158.48 425.42 148.6 410.34C111 352.94 79 292.07 53.04 228.56C46.6 212.79 37.88 191.46 24.33 158.31C22.44 153.69 24.95 148.46 29.73 147.03C46.36 142.06 87.93 129.64 154.46 109.76Z" id="eojfWVzNa"></path><linearGradient id="gradientaYb3wf2PV" gradientUnits="userSpaceOnUse" x1="221.88" y1="121.87" x2="260.45" y2="526.89"><stop style="stop-color: #f8f8f8;stop-opacity: 1" offset="0%"></stop><stop style="stop-color: #baa98b;stop-opacity: 1" offset="100%"></stop></linearGradient><path d="M180.95 52.54L181.22 52.55L181.49 52.57L181.76 52.59L182.03 52.61L182.3 52.64L182.57 52.67L182.83 52.71L183.1 52.75L183.37 52.8L183.63 52.85L183.9 52.91L184.16 52.97L184.42 53.04L184.68 53.11L184.94 53.18L185.2 53.26L185.46 53.35L185.72 53.44L185.98 53.53L186.23 53.63L186.48 53.73L207.55 62.54L208.39 62.28L208.68 62.19L208.97 62.12L209.26 62.06L209.55 62.01L209.84 61.97L210.13 61.94L210.42 61.93L210.71 61.92L211 61.93L211.29 61.95L211.57 61.98L211.85 62.01L212.13 62.06L212.41 62.12L212.69 62.19L212.96 62.28L213.23 62.37L213.49 62.47L213.75 62.58L214.01 62.7L214.26 62.83L214.51 62.96L214.75 63.11L214.98 63.27L215.21 63.43L215.44 63.61L215.65 63.79L215.87 63.98L216.07 64.18L216.27 64.39L216.46 64.6L216.64 64.83L216.81 65.06L216.98 65.3L217.14 65.54L217.28 65.8L217.42 66.06L217.55 66.33L217.67 66.6L217.78 66.88L224.7 85.7L224.79 85.98L224.88 86.26L224.95 86.54L225.01 86.82L225.05 87.1L225.09 87.39L225.11 87.67L225.12 87.95L225.12 88.22L225.11 88.5L225.09 88.78L225.06 89.05L225.01 89.32L224.96 89.59L224.89 89.86L224.82 90.12L224.73 90.38L224.64 90.64L224.53 90.89L224.42 91.14L224.29 91.38L224.16 91.62L224.01 91.85L223.86 92.08L223.7 92.3L223.53 92.51L223.35 92.72L223.16 92.92L222.97 93.11L222.76 93.3L222.55 93.48L222.33 93.65L222.1 93.81L221.86 93.96L221.62 94.11L221.37 94.24L221.11 94.37L220.85 94.49L220.57 94.59L220.3 94.69L24.04 156.94L23.86 156.99L23.68 157.04L23.49 157.07L23.31 157.11L23.13 157.13L22.95 157.15L22.77 157.16L22.59 157.16L22.41 157.15L22.23 157.14L22.05 157.13L21.87 157.1L21.7 157.07L21.52 157.03L21.35 156.99L21.18 156.94L21.01 156.88L20.85 156.82L20.69 156.75L20.53 156.68L20.37 156.59L20.22 156.51L20.06 156.42L19.92 156.32L19.77 156.21L19.63 156.11L19.5 155.99L19.37 155.87L19.24 155.75L19.11 155.62L19 155.48L18.88 155.34L18.77 155.2L18.67 155.05L18.57 154.9L18.48 154.74L18.39 154.57L18.31 154.41L18.24 154.23L18.17 154.06L10.31 132.69L10.22 132.41L10.14 132.13L10.06 131.85L10.01 131.57L9.96 131.29L9.92 131.01L9.9 130.73L9.89 130.45L9.89 130.17L9.9 129.89L9.92 129.62L9.96 129.34L10 129.07L10.05 128.8L10.12 128.54L10.19 128.27L10.28 128.01L10.38 127.76L10.48 127.51L10.6 127.26L10.72 127.02L10.86 126.78L11 126.55L11.15 126.32L11.31 126.1L11.48 125.88L11.66 125.68L11.85 125.47L12.05 125.28L12.25 125.09L12.46 124.92L12.69 124.74L12.91 124.58L13.15 124.43L13.39 124.28L13.64 124.15L13.9 124.02L14.17 123.91L14.44 123.8L14.72 123.71L20.65 121.83L22.35 107.44L22.39 107.18L22.43 106.92L22.48 106.67L22.54 106.42L22.6 106.17L22.67 105.92L22.75 105.68L22.83 105.43L22.92 105.2L23.02 104.96L23.12 104.73L23.23 104.5L23.35 104.28L23.47 104.06L23.6 103.84L23.73 103.63L23.87 103.42L24.02 103.21L24.17 103.01L24.33 102.82L24.49 102.63L24.66 102.44L24.83 102.26L25.01 102.08L25.2 101.91L25.39 101.74L25.58 101.58L25.78 101.42L25.98 101.27L26.19 101.13L26.4 100.99L26.62 100.85L26.84 100.72L27.06 100.6L27.29 100.49L27.53 100.38L27.76 100.28L28 100.18L28.25 100.09L28.5 100.01L175.88 53.26L176.14 53.18L176.4 53.1L176.66 53.03L176.93 52.97L177.19 52.9L177.46 52.85L177.73 52.8L177.99 52.75L178.26 52.71L178.53 52.67L178.8 52.64L179.07 52.61L179.34 52.58L179.61 52.57L179.87 52.55L180.14 52.54L180.41 52.54L180.68 52.54L180.95 52.54Z" id="a1dMhKSw7x"></path><linearGradient id="gradientaKSCZZWZI" gradientUnits="userSpaceOnUse" x1="99.1" y1="77.61" x2="118.62" y2="121.33"><stop style="stop-color: #c6ae85;stop-opacity: 1" offset="0%"></stop><stop style="stop-color: #966718;stop-opacity: 1" offset="100%"></stop></linearGradient><path d="M148.44 52.82C149.93 52.35 151.53 53.13 152.06 54.6C152.61 56.08 153.28 57.92 153.83 59.4C154.35 60.83 153.58 62.4 152.13 62.86C132.78 69 76.6 86.82 57.05 93.02C56.12 93.32 55.12 92.83 54.79 91.91C54.17 90.23 53.2 87.61 52.66 86.13C52.14 84.7 52.91 83.13 54.36 82.67C73.7 76.53 129.1 58.96 148.44 52.82Z" id="bxaRDEca"></path><linearGradient id="gradienta40XHZpjDk" gradientUnits="userSpaceOnUse" x1="95.53" y1="69.61" x2="105.09" y2="77.78"><stop style="stop-color: #c6ae85;stop-opacity: 1" offset="0%"></stop><stop style="stop-color: #966718;stop-opacity: 1" offset="100%"></stop></linearGradient><path d="M139.31 53.8C135.27 53.82 131.24 53.34 127.32 52.37C125.04 51.81 125.51 51.93 123.59 51.45C118.51 50.2 113.64 48.2 109.16 45.51C107.98 44.8 110.07 46.05 108.6 45.17C105.1 43.07 102.01 40.35 99.48 37.14C99.17 36.75 98.4 35.77 97.16 34.2L87.76 37.18C87.81 38.76 87.83 39.75 87.85 40.15C87.97 44.55 87.08 48.92 85.26 52.92C84.58 54.41 85.25 52.94 84.55 54.46C82.77 58.38 80.44 62.03 77.63 65.3C76.18 66.99 76.77 66.31 75.49 67.8C72.11 71.75 68.16 75.18 63.77 77.99C61.7 79.32 58.26 81.52 55.23 83.46C54.95 83.64 55.15 84.07 55.47 83.97C74.53 77.93 129.7 60.43 148.77 54.38C149.12 54.27 149.04 53.75 148.67 53.75C145.58 53.77 141.6 53.79 139.31 53.8Z" id="c1Otc2aGDc"></path><linearGradient id="gradientb7FoIG06nV" gradientUnits="userSpaceOnUse" x1="87.96" y1="42.8" x2="118.23" y2="64.06"><stop style="stop-color: #c6ae85;stop-opacity: 1" offset="0%"></stop><stop style="stop-color: #563008;stop-opacity: 1" offset="100%"></stop></linearGradient><path d="M98.38 27.91L98.5 29.19L98.41 30.44L98.1 31.65L97.61 32.81L96.93 33.87L96.08 34.84L95.07 35.67L93.92 36.36L92.62 36.89L91.25 37.21L89.88 37.32L88.53 37.23L87.22 36.95L85.98 36.49L84.84 35.86L83.8 35.07L82.9 34.14L82.15 33.06L81.59 31.86L81.24 30.58L81.12 29.31L81.22 28.06L81.52 26.84L82.02 25.69L82.69 24.62L83.54 23.66L84.55 22.82L85.71 22.13L87.01 21.61L88.37 21.29L89.75 21.18L91.1 21.26L92.4 21.54L93.64 22L94.79 22.63L95.83 23.42L96.73 24.36L97.47 25.44L98.03 26.64L98.03 26.64L98.38 27.91Z" id="c5LKwhRfi"></path><linearGradient id="gradientd1qu1TWj6P" gradientUnits="userSpaceOnUse" x1="83.51" y1="26.11" x2="96.12" y2="33.19"><stop style="stop-color: #ffecd8;stop-opacity: 1" offset="0%"></stop><stop style="stop-color: #86521a;stop-opacity: 1" offset="100%"></stop></linearGradient><path d="M96.12 33.31C97.43 32.9 98.84 33.59 99.31 34.88C99.48 35.34 99.14 34.42 99.31 34.88C99.77 36.13 99.09 37.52 97.82 37.93C95.51 38.66 90.91 40.12 88.6 40.85C87.29 41.26 85.89 40.58 85.41 39.29C85.24 38.82 85.58 39.75 85.41 39.29C84.95 38.03 85.63 36.64 86.91 36.24C89.22 35.5 93.81 34.05 96.12 33.31Z" id="buLbrJyzY"></path><path d="M630.11 550.62L629.24 564.3L572.57 570.7L571.38 544.27L630.11 550.62Z" id="a10mNwftPF"></path><linearGradient id="gradienta4VgTfT0Jy" gradientUnits="userSpaceOnUse" x1="592.53" y1="537.39" x2="605.45" y2="571.85"><stop style="stop-color: #ffd692;stop-opacity: 1" offset="0%"></stop><stop style="stop-color: #443124;stop-opacity: 1" offset="100%"></stop></linearGradient><path d="M575.59 541.2L575.44 572.92L546.42 576.03L545.34 537.39L575.59 541.2Z" id="bCCBcSx2b"></path><linearGradient id="gradientbsq6o8rIU" gradientUnits="userSpaceOnUse" x1="552.38" y1="535.15" x2="567.22" y2="575.53"><stop style="stop-color: #c6ae85;stop-opacity: 1" offset="0%"></stop><stop style="stop-color: #4b3b24;stop-opacity: 1" offset="100%"></stop></linearGradient></defs><g><g><g><use xlink:href="#a26HARqmHT" opacity="1" fill="url(#gradientamVJZvvet)"></use></g><g><use xlink:href="#eojfWVzNa" opacity="1" fill="url(#gradientaYb3wf2PV)"></use></g><g><use xlink:href="#a1dMhKSw7x" opacity="1" fill="url(#gradientaKSCZZWZI)"></use></g><g><use xlink:href="#bxaRDEca" opacity="1" fill="url(#gradienta40XHZpjDk)"></use></g><g><use xlink:href="#c1Otc2aGDc" opacity="1" fill="url(#gradientb7FoIG06nV)"></use></g><g><use xlink:href="#c5LKwhRfi" opacity="1" fill="url(#gradientd1qu1TWj6P)"></use></g><g><use xlink:href="#buLbrJyzY" opacity="1" fill="#ff8a8a" fill-opacity="1"></use></g><g><use xlink:href="#a10mNwftPF" opacity="1" fill="url(#gradienta4VgTfT0Jy)"></use></g><g><use xlink:href="#bCCBcSx2b" opacity="1" fill="url(#gradientbsq6o8rIU)"></use></g></g></g></svg>