<?xml version="1.0" encoding="UTF-8" standalone="no"?>
<!DOCTYPE svg PUBLIC "-//W3C//DTD SVG 1.1//EN" "http://www.w3.org/Graphics/SVG/1.1/DTD/svg11.dtd">
<svg version="1.1" xmlns="http://www.w3.org/2000/svg" xmlns:xlink="http://www.w3.org/1999/xlink" preserveAspectRatio="xMidYMid meet" viewBox="0 0 640 640" width="640" height="640"><defs><path d="M572.3 315.14C572.3 454.39 459.25 567.44 320 567.44C180.75 567.44 67.7 454.39 67.7 315.14C67.7 175.89 180.75 62.84 320 62.84C459.25 62.84 572.3 175.89 572.3 315.14Z" id="b16UG11kNT"></path><path d="M223.6 162.93C223.6 180.35 209.46 194.49 192.04 194.49C174.61 194.49 160.47 180.35 160.47 162.93C160.47 145.5 174.61 131.36 192.04 131.36C209.46 131.36 223.6 145.5 223.6 162.93Z" id="b2dpdk1KW"></path><linearGradient id="gradientg4bMVOw8z" gradientUnits="userSpaceOnUse" x1="213.81" y1="152.22" x2="172.99" y2="182.7"><stop style="stop-color: #fdb7ff;stop-opacity: 1" offset="0%"></stop><stop style="stop-color: #fa73ff;stop-opacity: 1" offset="100%"></stop></linearGradient><path d="M223.6 239.49C223.6 256.91 209.46 271.05 192.04 271.05C174.61 271.05 160.47 256.91 160.47 239.49C160.47 222.06 174.61 207.92 192.04 207.92C209.46 207.92 223.6 222.06 223.6 239.49Z" id="cgG7mxttR"></path><linearGradient id="gradientaeQW87aTH" gradientUnits="userSpaceOnUse" x1="213.81" y1="228.78" x2="172.99" y2="259.26"><stop style="stop-color: #fdb7ff;stop-opacity: 1" offset="0%"></stop><stop style="stop-color: #fa73ff;stop-opacity: 1" offset="100%"></stop></linearGradient><path d="M223.6 315.14C223.6 332.56 209.46 346.71 192.04 346.71C174.61 346.71 160.47 332.56 160.47 315.14C160.47 297.72 174.61 283.57 192.04 283.57C209.46 283.57 223.6 297.72 223.6 315.14Z" id="bycZgo8xX"></path><linearGradient id="gradienta1itWiknzU" gradientUnits="userSpaceOnUse" x1="213.81" y1="304.44" x2="172.99" y2="334.91"><stop style="stop-color: #fdb7ff;stop-opacity: 1" offset="0%"></stop><stop style="stop-color: #fa73ff;stop-opacity: 1" offset="100%"></stop></linearGradient><path d="M223.6 390.79C223.6 408.21 209.46 422.36 192.04 422.36C174.61 422.36 160.47 408.21 160.47 390.79C160.47 373.37 174.61 359.22 192.04 359.22C209.46 359.22 223.6 373.37 223.6 390.79Z" id="b4ig2gXT37"></path><linearGradient id="gradienta2WKsKh7s" gradientUnits="userSpaceOnUse" x1="213.81" y1="380.09" x2="172.99" y2="410.57"><stop style="stop-color: #fdb7ff;stop-opacity: 1" offset="0%"></stop><stop style="stop-color: #fa73ff;stop-opacity: 1" offset="100%"></stop></linearGradient><path d="M223.6 465.54C223.6 482.96 209.46 497.11 192.04 497.11C174.61 497.11 160.47 482.96 160.47 465.54C160.47 448.12 174.61 433.97 192.04 433.97C209.46 433.97 223.6 448.12 223.6 465.54Z" id="cCVnVyrwF"></path><linearGradient id="gradientgpQuUo8Yu" gradientUnits="userSpaceOnUse" x1="213.81" y1="454.83" x2="172.99" y2="485.31"><stop style="stop-color: #fdb7ff;stop-opacity: 1" offset="0%"></stop><stop style="stop-color: #fa73ff;stop-opacity: 1" offset="100%"></stop></linearGradient><path d="M304.7 200.06C304.7 217.48 290.55 231.62 273.13 231.62C255.71 231.62 241.56 217.48 241.56 200.06C241.56 182.63 255.71 168.49 273.13 168.49C290.55 168.49 304.7 182.63 304.7 200.06Z" id="btMZRvXB"></path><linearGradient id="gradientc1uluswxuH" gradientUnits="userSpaceOnUse" x1="294.9" y1="189.35" x2="254.08" y2="219.83"><stop style="stop-color: #8cabff;stop-opacity: 1" offset="0%"></stop><stop style="stop-color: #eb73ff;stop-opacity: 1" offset="100%"></stop></linearGradient><path d="M304.7 276.31C304.7 293.73 290.55 307.88 273.13 307.88C255.71 307.88 241.56 293.73 241.56 276.31C241.56 258.88 255.71 244.74 273.13 244.74C290.55 244.74 304.7 258.88 304.7 276.31Z" id="d9A13H6eI"></path><linearGradient id="gradienta4sCFkrrOc" gradientUnits="userSpaceOnUse" x1="294.9" y1="265.6" x2="254.08" y2="296.08"><stop style="stop-color: #8cabff;stop-opacity: 1" offset="0%"></stop><stop style="stop-color: #eb73ff;stop-opacity: 1" offset="100%"></stop></linearGradient><path d="M304.7 353.42C304.7 370.84 290.55 384.99 273.13 384.99C255.71 384.99 241.56 370.84 241.56 353.42C241.56 336 255.71 321.85 273.13 321.85C290.55 321.85 304.7 336 304.7 353.42Z" id="a5eriSIOqg"></path><linearGradient id="gradienta7TEyytjp" gradientUnits="userSpaceOnUse" x1="294.9" y1="342.72" x2="254.08" y2="373.19"><stop style="stop-color: #8cabff;stop-opacity: 1" offset="0%"></stop><stop style="stop-color: #eb73ff;stop-opacity: 1" offset="100%"></stop></linearGradient><path d="M304.7 429.07C304.7 446.49 290.55 460.64 273.13 460.64C255.71 460.64 241.56 446.49 241.56 429.07C241.56 411.65 255.71 397.5 273.13 397.5C290.55 397.5 304.7 411.65 304.7 429.07Z" id="am4ZnZkWP"></path><linearGradient id="gradientaCV539Yd5" gradientUnits="userSpaceOnUse" x1="294.9" y1="418.37" x2="254.08" y2="448.85"><stop style="stop-color: #8cabff;stop-opacity: 1" offset="0%"></stop><stop style="stop-color: #eb73ff;stop-opacity: 1" offset="100%"></stop></linearGradient><path d="M383.98 238.58C383.98 256 369.84 270.15 352.41 270.15C334.99 270.15 320.85 256 320.85 238.58C320.85 221.16 334.99 207.01 352.41 207.01C369.84 207.01 383.98 221.16 383.98 238.58Z" id="f2RIxKGp9n"></path><linearGradient id="gradientaEtxJBW5j" gradientUnits="userSpaceOnUse" x1="374.18" y1="227.88" x2="333.36" y2="258.35"><stop style="stop-color: #6480ff;stop-opacity: 1" offset="0%"></stop><stop style="stop-color: #99abff;stop-opacity: 1" offset="100%"></stop></linearGradient><path d="M383.13 315.14C383.13 332.56 368.99 346.71 351.57 346.71C334.14 346.71 320 332.56 320 315.14C320 297.72 334.14 283.57 351.57 283.57C368.99 283.57 383.13 297.72 383.13 315.14Z" id="c4DkJxzGCv"></path><linearGradient id="gradienta45v5CIW6" gradientUnits="userSpaceOnUse" x1="373.34" y1="304.44" x2="332.52" y2="334.91"><stop style="stop-color: #6480ff;stop-opacity: 1" offset="0%"></stop><stop style="stop-color: #a8b8ff;stop-opacity: 1" offset="100%"></stop></linearGradient><path d="M383.13 390.79C383.13 408.21 368.99 422.36 351.57 422.36C334.14 422.36 320 408.21 320 390.79C320 373.37 334.14 359.22 351.57 359.22C368.99 359.22 383.13 373.37 383.13 390.79Z" id="c1yPWgOOQq"></path><linearGradient id="gradientfPRBPa73" gradientUnits="userSpaceOnUse" x1="373.34" y1="380.09" x2="332.52" y2="410.57"><stop style="stop-color: #6480ff;stop-opacity: 1" offset="0%"></stop><stop style="stop-color: #9badff;stop-opacity: 1" offset="100%"></stop></linearGradient><path d="M436.32 207.92C445.04 207.92 452.11 214.99 452.11 223.7C452.11 263.43 452.11 366.84 452.11 406.58C452.11 415.29 445.04 422.36 436.32 422.36C430.59 422.36 429.17 422.36 423.44 422.36C414.72 422.36 407.66 415.29 407.66 406.58C407.66 366.84 407.66 263.43 407.66 223.7C407.66 214.99 414.72 207.92 423.44 207.92C429.17 207.92 430.59 207.92 436.32 207.92Z" id="b1wNYgEvJt"></path><linearGradient id="gradienteeQQ2Gpce" gradientUnits="userSpaceOnUse" x1="452.11" y1="271.05" x2="412.25" y2="359.22"><stop style="stop-color: #4264ff;stop-opacity: 1" offset="0%"></stop><stop style="stop-color: #6480ff;stop-opacity: 1" offset="100%"></stop></linearGradient><path d="M534.6 315.14L466.56 315.14" id="b1PO0dbWF9"></path><path d="M481.58 315.14C481.58 322.04 475.98 327.64 469.08 327.64C462.18 327.64 456.58 322.04 456.58 315.14C456.58 308.24 462.18 302.64 469.08 302.64C475.98 302.64 481.58 308.24 481.58 315.14Z" id="a4OUlKDVuZ"></path><path d="M539.13 307.88L500.63 345.75" id="cuI2kpl1"></path><path d="M510.71 335.77C515.54 340.69 515.48 348.61 510.56 353.45C505.64 358.29 497.72 358.22 492.88 353.3C488.05 348.39 488.11 340.46 493.03 335.63C497.95 330.79 505.87 330.85 510.71 335.77Z" id="bqkvwm8qm"></path><path d="M537.38 324.01L500.63 286.87" id="a3ZGicFNP4"></path><path d="M509.42 295.76C504.52 300.61 496.59 300.57 491.74 295.67C486.89 290.77 486.93 282.84 491.83 277.99C496.73 273.14 504.66 273.18 509.51 278.08C514.36 282.98 514.32 290.91 509.42 295.76Z" id="a8qC32TPp"></path></defs><g><g><g><use xlink:href="#b16UG11kNT" opacity="1" fill="#6380ff" fill-opacity="0.33"></use></g><g><use xlink:href="#b2dpdk1KW" opacity="1" fill="url(#gradientg4bMVOw8z)"></use></g><g><use xlink:href="#cgG7mxttR" opacity="1" fill="url(#gradientaeQW87aTH)"></use></g><g><use xlink:href="#bycZgo8xX" opacity="1" fill="url(#gradienta1itWiknzU)"></use></g><g><use xlink:href="#b4ig2gXT37" opacity="1" fill="url(#gradienta2WKsKh7s)"></use></g><g><use xlink:href="#cCVnVyrwF" opacity="1" fill="url(#gradientgpQuUo8Yu)"></use></g><g><use xlink:href="#btMZRvXB" opacity="1" fill="url(#gradientc1uluswxuH)"></use></g><g><use xlink:href="#d9A13H6eI" opacity="1" fill="url(#gradienta4sCFkrrOc)"></use></g><g><use xlink:href="#a5eriSIOqg" opacity="1" fill="url(#gradienta7TEyytjp)"></use></g><g><use xlink:href="#am4ZnZkWP" opacity="1" fill="url(#gradientaCV539Yd5)"></use></g><g><use xlink:href="#f2RIxKGp9n" opacity="1" fill="url(#gradientaEtxJBW5j)"></use></g><g><use xlink:href="#c4DkJxzGCv" opacity="1" fill="url(#gradienta45v5CIW6)"></use></g><g><use xlink:href="#c1yPWgOOQq" opacity="1" fill="url(#gradientfPRBPa73)"></use></g><g><use xlink:href="#b1wNYgEvJt" opacity="1" fill="url(#gradienteeQQ2Gpce)"></use></g><g><g><use xlink:href="#b1PO0dbWF9" opacity="1" fill-opacity="0" stroke="#4e6eff" stroke-width="25" stroke-opacity="1"></use></g></g><g><use xlink:href="#a4OUlKDVuZ" opacity="1" fill="#6480ff" fill-opacity="1"></use></g><g><g><use xlink:href="#cuI2kpl1" opacity="1" fill-opacity="0" stroke="#4d6dff" stroke-width="25" stroke-opacity="1"></use></g></g><g><use xlink:href="#bqkvwm8qm" opacity="1" fill="#0d56ce" fill-opacity="1"></use></g><g><g><use xlink:href="#a3ZGicFNP4" opacity="1" fill-opacity="0" stroke="#4e6eff" stroke-width="25" stroke-opacity="1"></use></g></g><g><use xlink:href="#a8qC32TPp" opacity="1" fill="#4a90ff" fill-opacity="1"></use></g></g></g></svg>