<?xml version="1.0" encoding="UTF-8" standalone="no"?>
<!DOCTYPE svg PUBLIC "-//W3C//DTD SVG 1.1//EN" "http://www.w3.org/Graphics/SVG/1.1/DTD/svg11.dtd">
<svg version="1.1" xmlns="http://www.w3.org/2000/svg" xmlns:xlink="http://www.w3.org/1999/xlink" preserveAspectRatio="xMidYMid meet" viewBox="0 0 640 640" width="640" height="640"><defs><path d="M346.78 57.26L357.71 58.38L368.51 59.92L379.18 61.88L389.69 64.25L400.04 67.03L410.23 70.2L420.24 73.76L430.07 77.69L439.71 81.99L449.14 86.65L458.36 91.67L467.36 97.02L476.14 102.71L484.68 108.72L492.97 115.05L501.01 121.68L508.78 128.62L516.28 135.84L523.51 143.34L530.44 151.11L537.07 159.15L543.4 167.44L549.41 175.98L555.1 184.76L560.45 193.76L565.47 202.98L570.13 212.42L574.43 222.05L578.36 231.88L581.92 241.89L585.09 252.08L587.87 262.43L590.24 272.95L592.21 283.61L593.75 294.41L594.86 305.35L595.53 316.4L595.76 327.58L595.53 338.75L594.86 349.81L593.75 360.74L592.21 371.54L590.24 382.21L587.87 392.72L585.09 403.07L581.92 413.26L578.36 423.27L574.43 433.1L570.13 442.74L565.47 452.17L560.45 461.39L555.1 470.39L549.41 479.17L543.4 487.71L537.07 496L530.44 504.04L523.51 511.81L516.28 519.31L508.78 526.54L501.01 533.47L492.97 540.1L484.68 546.43L476.14 552.44L467.36 558.13L458.36 563.48L449.14 568.5L439.71 573.16L434.43 575.51L389.16 415.37L391.58 413.37L394.53 410.73L397.38 407.99L400.13 405.14L402.76 402.19L405.28 399.13L407.69 395.98L409.97 392.74L412.13 389.41L414.16 385.99L416.07 382.48L417.84 378.9L419.47 375.24L420.97 371.51L422.32 367.7L423.52 363.83L424.58 359.9L425.48 355.9L426.23 351.85L426.81 347.75L427.23 343.6L427.49 339.4L427.58 335.15L427.49 330.91L427.23 326.71L426.81 322.55L426.23 318.45L425.48 314.4L424.58 310.4L423.52 306.47L422.32 302.6L420.97 298.8L419.47 295.06L417.84 291.4L416.07 287.82L414.16 284.32L412.13 280.9L409.97 277.56L407.69 274.32L405.28 271.17L402.76 268.12L400.13 265.16L397.38 262.31L394.53 259.57L391.58 256.94L388.53 254.41L385.38 252.01L382.13 249.73L378.8 247.57L375.38 245.53L371.88 243.63L368.29 241.86L364.63 240.22L360.9 238.73L357.1 237.38L353.23 236.17L349.29 235.12L345.3 234.22L341.25 233.47L337.14 232.89L332.99 232.46L328.79 232.21L324.55 232.12L320.3 232.21L316.1 232.46L311.95 232.89L307.84 233.47L303.79 234.22L299.8 235.12L295.86 236.17L291.99 237.38L288.19 238.73L284.46 240.22L280.8 241.86L277.21 243.63L273.71 245.53L270.29 247.57L266.96 249.73L263.71 252.01L260.56 254.41L257.51 256.94L254.56 259.57L251.71 262.31L248.96 265.16L246.33 268.12L243.81 271.17L241.4 274.32L239.12 277.56L236.96 280.9L234.93 284.32L233.02 287.82L231.25 291.4L229.62 295.06L228.12 298.8L226.77 302.6L225.57 306.47L224.51 310.4L223.61 314.4L222.86 318.45L222.28 322.55L221.86 326.71L221.6 330.91L221.52 335.15L221.6 339.4L221.86 343.6L222.28 347.75L222.86 351.85L223.61 355.9L224.51 359.9L225.57 363.83L226.77 367.7L228.12 371.51L229.62 375.24L231.25 378.9L233.02 382.48L234.93 385.99L236.96 389.41L239.12 392.74L241.4 395.98L243.81 399.13L246.33 402.19L248.96 405.14L251.71 407.99L254.56 410.73L257.51 413.37L260.56 415.89L262.35 417.25L215.06 575.69L209.38 573.16L199.95 568.5L190.73 563.48L181.73 558.13L172.95 552.44L164.41 546.43L156.12 540.1L148.08 533.47L140.31 526.54L132.81 519.31L125.59 511.81L118.65 504.04L112.02 496L105.69 487.71L99.68 479.17L93.99 470.39L88.64 461.39L83.62 452.17L78.96 442.74L74.66 433.1L70.73 423.27L67.17 413.26L64 403.07L61.22 392.72L58.85 382.21L56.89 371.54L55.34 360.74L54.23 349.81L53.56 338.75L53.33 327.58L53.56 316.4L54.23 305.35L55.34 294.41L56.89 283.61L58.85 272.95L61.22 262.43L64 252.08L67.17 241.89L70.73 231.88L74.66 222.05L78.96 212.42L83.62 202.98L88.64 193.76L93.99 184.76L99.68 175.98L105.69 167.44L112.02 159.15L118.65 151.11L125.59 143.34L132.81 135.84L140.31 128.62L148.08 121.68L156.12 115.05L164.41 108.72L172.95 102.71L181.73 97.02L190.73 91.67L199.95 86.65L209.38 81.99L219.02 77.69L228.85 73.76L238.86 70.2L249.05 67.03L259.4 64.25L269.92 61.88L280.58 59.92L291.38 58.38L302.32 57.26L313.37 56.59L324.55 56.36L335.72 56.59L346.78 57.26Z" id="b52SqoKDQh"></path><linearGradient id="gradientb8Psjbuiu" gradientUnits="userSpaceOnUse" x1="513.94" y1="148.79" x2="121.52" y2="499.94"><stop style="stop-color: #a7b5ff;stop-opacity: 1" offset="0%"></stop><stop style="stop-color: #002aff;stop-opacity: 1" offset="100%"></stop></linearGradient></defs><g><g><g><use xlink:href="#b52SqoKDQh" opacity="1" fill="url(#gradientb8Psjbuiu)"></use><g><use xlink:href="#b52SqoKDQh" opacity="1" fill-opacity="0" stroke="#00149e" stroke-width="1" stroke-opacity="1"></use></g></g></g></g></svg>