<?xml version="1.0" encoding="UTF-8" standalone="no"?>
<!DOCTYPE svg PUBLIC "-//W3C//DTD SVG 1.1//EN" "http://www.w3.org/Graphics/SVG/1.1/DTD/svg11.dtd">
<svg version="1.1" xmlns="http://www.w3.org/2000/svg" xmlns:xlink="http://www.w3.org/1999/xlink" preserveAspectRatio="xMidYMid meet" viewBox="0 0 640 500" width="640" height="500"><defs><path d="M555.81 421.57L555.73 421.88L555.65 422.2L555.56 422.5L555.45 422.8L555.33 423.1L555.2 423.39L555.06 423.68L554.91 423.95L554.75 424.22L554.58 424.49L554.4 424.75L554.21 425L554.01 425.24L553.8 425.47L553.58 425.7L553.35 425.91L553.12 426.12L552.88 426.32L552.63 426.51L552.37 426.69L552.11 426.87L551.83 427.03L551.56 427.18L551.27 427.32L550.98 427.45L550.69 427.57L550.39 427.67L550.08 427.77L549.77 427.85L549.45 427.92L549.13 427.98L548.8 428.03L548.47 428.06L548.14 428.08L547.8 428.09L86.14 428.09L85.8 428.08L85.47 428.06L85.14 428.03L84.81 427.98L84.49 427.92L84.17 427.85L83.86 427.77L83.55 427.67L83.25 427.57L82.96 427.45L82.67 427.32L82.38 427.18L82.1 427.03L81.83 426.87L81.57 426.69L81.31 426.51L81.06 426.32L80.82 426.12L80.59 425.91L80.36 425.7L80.14 425.47L79.93 425.24L79.73 425L79.54 424.75L79.36 424.49L79.19 424.22L79.03 423.95L78.88 423.68L78.74 423.39L78.61 423.1L78.49 422.8L78.38 422.5L78.29 422.2L78.21 421.88L78.13 421.57L78.07 421.25L78.03 420.92L77.99 420.59L77.97 420.26L77.97 419.92L77.97 109.29L77.97 108.95L77.99 108.62L78.03 108.29L78.07 107.97L78.13 107.64L78.21 107.33L78.29 107.02L78.38 106.71L78.49 106.41L78.61 106.11L78.74 105.82L78.88 105.54L79.03 105.26L79.19 104.99L79.36 104.72L79.54 104.47L79.73 104.22L79.93 103.97L80.14 103.74L80.36 103.51L80.59 103.3L80.82 103.09L81.06 102.89L81.31 102.7L81.57 102.52L81.83 102.35L82.1 102.18L82.38 102.03L82.67 101.89L82.96 101.76L83.25 101.65L83.55 101.54L83.86 101.44L84.17 101.36L84.49 101.29L84.81 101.23L85.14 101.18L85.47 101.15L85.8 101.13L86.14 101.12L336.38 101.12L336.45 100.95L336.6 100.6L336.76 100.25L336.93 99.91L337.1 99.57L337.28 99.23L337.46 98.9L337.65 98.57L337.85 98.24L338.05 97.92L338.26 97.59L338.47 97.28L338.69 96.96L338.92 96.65L339.15 96.35L339.39 96.05L339.64 95.75L339.89 95.45L340.14 95.16L355.72 77.87L355.98 77.59L356.24 77.31L356.51 77.04L356.78 76.78L357.06 76.52L357.35 76.27L357.64 76.03L357.93 75.79L358.23 75.56L358.53 75.34L358.84 75.12L359.15 74.91L359.46 74.7L359.78 74.51L360.11 74.32L360.43 74.13L360.76 73.96L361.1 73.79L361.43 73.62L361.77 73.47L362.12 73.32L362.46 73.18L362.81 73.04L363.17 72.92L363.52 72.8L363.88 72.68L364.24 72.58L364.6 72.48L364.97 72.39L365.33 72.31L365.7 72.23L366.07 72.17L366.45 72.11L366.82 72.05L367.2 72.01L367.57 71.97L367.95 71.95L368.33 71.93L368.71 71.91L369.1 71.91L547.96 71.91L548.29 71.92L548.61 71.94L548.94 71.97L549.26 72.02L549.57 72.07L549.88 72.14L550.19 72.23L550.49 72.32L550.79 72.42L551.08 72.54L551.36 72.67L551.64 72.81L551.91 72.95L552.18 73.11L552.44 73.28L552.69 73.46L552.93 73.64L553.17 73.84L553.4 74.04L553.62 74.26L553.84 74.48L554.04 74.71L554.24 74.95L554.43 75.19L554.6 75.44L554.77 75.7L554.93 75.97L555.08 76.24L555.21 76.52L555.34 76.81L555.46 77.1L555.56 77.39L555.66 77.69L555.74 78L555.81 78.31L555.87 78.63L555.91 78.95L555.95 79.27L555.97 79.6L555.97 79.93L555.97 419.92L555.96 420.26L555.94 420.59L555.91 420.92L555.86 421.25L555.86 421.25L555.81 421.57Z" id="b1KkmOdU9d"></path><linearGradient id="gradienta136vE6WEF" gradientUnits="userSpaceOnUse" x1="555.97" y1="76.24" x2="85.93" y2="423.76"><stop style="stop-color: #ffeec6;stop-opacity: 1" offset="0%"></stop><stop style="stop-color: #ffd668;stop-opacity: 1" offset="100%"></stop></linearGradient><path d="M105.43 128.48L528.51 128.48L528.51 404.16L105.43 404.16L105.43 128.48Z" id="f1Eyiy2ME"></path><linearGradient id="gradientacr2V0GEG" gradientUnits="userSpaceOnUse" x1="528.51" y1="128.48" x2="113.37" y2="398.39"><stop style="stop-color: #d8f2ff;stop-opacity: 1" offset="0%"></stop><stop style="stop-color: #6480ff;stop-opacity: 1" offset="100%"></stop></linearGradient><path d="M138.28 149.65L292.78 149.65L292.78 281.06L138.28 281.06L138.28 149.65Z" id="a10yLcOddy"></path><path d="M279.78 263.54L154.16 263.54L154.16 166.79" id="c38vFkTO3B"></path><path d="" id="cOlgLasxR"></path><path d="M272.12 231.48C268.84 225.56 266.78 221.87 265.96 220.39C265.26 219.12 264.39 217.97 263.37 216.94C261.75 215.33 260.01 213.59 258.79 212.37C257.07 210.65 254.18 211.14 253.12 213.32C250.86 218.01 246.22 227.62 243.96 232.31C243.07 234.16 240.45 234.2 239.49 232.38C238.03 229.6 235.95 225.65 234.49 222.87C233.34 220.69 230.41 220.25 228.67 221.99C227.44 223.22 227.28 223.38 226.06 224.6C223.94 226.72 220.74 227.35 217.98 226.18C217.06 225.8 218.89 226.57 217.98 226.18C215.12 224.98 211.85 225.27 209.25 226.97C207.86 227.87 207.87 227.87 206.49 228.77C204.27 230.21 201.3 229.41 200.11 227.04C196.8 220.42 191.13 209.08 188.33 203.48C186.44 199.7 181 199.85 179.32 203.72C177.67 207.54 175.13 213.4 173.02 218.26C171.75 221.2 169.45 223.56 166.55 224.91C165.08 225.59 161.42 227.3 155.55 230.04" id="c1wygMlMY2"></path><path d="M336.34 149.65L490.85 149.65L490.85 160.58L336.34 160.58L336.34 149.65Z" id="b2Mp3OLgmC"></path><path d="M336.34 246.27L490.85 246.27L490.85 377.67L336.34 377.67L336.34 246.27Z" id="e16Z3taXEK"></path><path d="M336.34 163.61L490.85 163.61L490.85 174.54L336.34 174.54L336.34 163.61Z" id="d4WejcZfse"></path><path d="M336.34 177.57L490.85 177.57L490.85 188.5L336.34 188.5L336.34 177.57Z" id="aHTeuu3Sn"></path><path d="M336.34 191.82L490.85 191.82L490.85 202.74L336.34 202.74L336.34 191.82Z" id="a1iplsPAMa"></path><path d="M336.34 206.45L490.85 206.45L490.85 217.38L336.34 217.38L336.34 206.45Z" id="b2edDkBiX9"></path><path d="M336.34 220.7L490.85 220.7L490.85 231.62L336.34 231.62L336.34 220.7Z" id="a1K1XTwkM"></path><path d="M414.7 314.35L370.08 283.67L370.08 283.25L370.19 283.07L371.35 281.43L372.58 279.83L373.86 278.27L375.19 276.77L376.59 275.33L378.04 273.93L379.54 272.59L381.09 271.31L382.69 270.09L384.34 268.93L386.03 267.83L387.77 266.8L389.55 265.83L391.37 264.93L393.23 264.1L395.12 263.34L397.06 262.66L399.02 262.05L401.02 261.51L403.05 261.05L405.11 260.67L407.19 260.38L409.3 260.16L411.44 260.03L413.59 259.99L414.7 260.01L414.7 314.35Z" id="b8z4mnE7k"></path><linearGradient id="gradientalrLgqgwL" gradientUnits="userSpaceOnUse" x1="414.7" y1="259.99" x2="364.47" y2="337.71"><stop style="stop-color: #ff8f8f;stop-opacity: 1" offset="0%"></stop><stop style="stop-color: #ff0000;stop-opacity: 1" offset="100%"></stop></linearGradient><path d="M417.88 260.15L419.99 260.36L422.08 260.66L424.14 261.04L426.17 261.5L428.16 262.03L430.13 262.65L432.06 263.33L433.96 264.09L435.82 264.92L437.64 265.82L439.42 266.79L441.16 267.82L442.85 268.92L444.5 270.08L446.1 271.3L447.65 272.58L449.15 273.92L450.6 275.31L451.99 276.76L453.33 278.26L454.61 279.81L455.83 281.41L456.99 283.06L458.09 284.76L459.12 286.49L460.09 288.27L460.99 290.09L461.82 291.95L462.58 293.85L463.27 295.78L463.88 297.75L464.41 299.75L464.87 301.78L465.25 303.83L465.55 305.92L465.76 308.03L465.89 310.16L465.94 312.32L465.89 314.48L465.76 316.61L465.55 318.72L465.25 320.81L464.87 322.86L464.41 324.89L463.88 326.89L463.27 328.86L462.58 330.79L461.82 332.69L460.99 334.55L460.09 336.37L459.12 338.15L458.09 339.88L456.99 341.58L455.83 343.23L454.61 344.83L453.33 346.38L451.99 347.88L450.6 349.33L449.15 350.72L447.65 352.06L446.1 353.34L444.5 354.56L442.85 355.72L441.16 356.82L439.42 357.85L437.64 358.82L435.82 359.72L433.96 360.55L432.06 361.31L430.13 361.99L428.16 362.61L426.17 363.14L424.14 363.6L422.08 363.98L419.99 364.28L417.88 364.49L415.75 364.62L413.59 364.66L411.44 364.62L409.3 364.49L407.19 364.28L405.11 363.98L403.05 363.6L401.02 363.14L399.02 362.61L397.06 361.99L395.12 361.31L393.23 360.55L391.37 359.72L389.55 358.82L387.77 357.85L386.03 356.82L384.34 355.72L382.69 354.56L381.09 353.34L379.54 352.06L378.04 350.72L376.59 349.33L375.19 347.88L373.86 346.38L372.58 344.83L371.35 343.23L370.19 341.58L369.1 339.88L368.06 338.15L367.1 336.37L366.2 334.55L365.37 332.69L364.61 330.79L363.92 328.86L363.31 326.89L362.77 324.89L362.31 322.86L361.93 320.81L361.64 318.72L361.42 316.61L361.29 314.48L361.25 312.32L361.29 310.16L361.42 308.03L361.64 305.92L361.93 303.83L362.31 301.78L362.77 299.75L363.31 297.75L363.92 295.78L364.61 293.85L365.37 291.95L366.2 290.09L367.1 288.27L368.06 286.49L369.1 284.76L370.08 283.24L370.08 283.66L414.7 314.34L414.7 260L415.75 260.02L417.88 260.15Z" id="d1kvpymnBE"></path><linearGradient id="gradientd1lqvozeMW" gradientUnits="userSpaceOnUse" x1="442.11" y1="269.02" x2="378.58" y2="349.87"><stop style="stop-color: #8fc5ff;stop-opacity: 1" offset="0%"></stop><stop style="stop-color: #6480ff;stop-opacity: 1" offset="100%"></stop></linearGradient><path d="M138.28 295.7L292.78 295.7L292.78 306.63L138.28 306.63L138.28 295.7Z" id="nfQbb2fGa"></path><path d="M138.28 309.66L292.78 309.66L292.78 320.59L138.28 320.59L138.28 309.66Z" id="ddg4OYEDO"></path><path d="M138.28 323.62L292.78 323.62L292.78 334.54L138.28 334.54L138.28 323.62Z" id="e8OztleHK"></path><path d="M138.28 337.87L292.78 337.87L292.78 348.79L138.28 348.79L138.28 337.87Z" id="aPlPXq8Z0"></path><path d="M138.28 352.5L292.78 352.5L292.78 363.42L138.28 363.42L138.28 352.5Z" id="d1kUFXX9Tz"></path><path d="M138.28 366.75L292.78 366.75L292.78 377.67L138.28 377.67L138.28 366.75Z" id="d2ltst8ooD"></path><path d="M275.6 236.06C274 237.17 273 237.87 272.6 238.14C271.6 238.83 270.24 238.6 269.53 237.62C267.03 234.18 262.11 227.4 259.93 224.4C258 221.74 255.68 219.37 253.06 217.39C250.05 215.1 244.95 211.23 241.93 208.94C239.61 207.17 236.38 207.2 234.08 209C232.8 210.01 232.85 209.97 231.56 210.98C229.4 212.67 226.27 212.32 224.54 210.18C222.96 208.22 221.34 206.22 219.76 204.26C218.19 202.31 215.2 202.39 213.73 204.42C211.73 207.17 208.64 211.43 206.64 214.19C206.64 214.19 200.79 222.21 200.79 222.21C200.23 222.98 198.82 224.91 196.56 227.99C194.65 230.59 193.46 232.22 192.98 232.87C189.59 237.51 182.96 238.25 178.63 234.48C177.32 233.34 178 233.93 175.83 232.04C173.43 229.96 170.31 228.89 167.14 229.08C165.59 229.17 161.73 229.39 155.55 229.76" id="aeu6KOP91"></path></defs><g><g><g><use xlink:href="#b1KkmOdU9d" opacity="1" fill="url(#gradienta136vE6WEF)"></use></g><g><use xlink:href="#f1Eyiy2ME" opacity="1" fill="url(#gradientacr2V0GEG)"></use></g><g><use xlink:href="#a10yLcOddy" opacity="1" fill="#e4f8ff" fill-opacity="1"></use></g><g><g><use xlink:href="#c38vFkTO3B" opacity="1" fill-opacity="0" stroke="#112757" stroke-width="5" stroke-opacity="1"></use></g></g><g><g><use xlink:href="#cOlgLasxR" opacity="1" fill-opacity="0" stroke="#000000" stroke-width="2" stroke-opacity="1"></use></g></g><g><g><use xlink:href="#c1wygMlMY2" opacity="1" fill-opacity="0" stroke="#007bff" stroke-width="4" stroke-opacity="1"></use></g></g><g><use xlink:href="#b2Mp3OLgmC" opacity="1" fill="#1c486b" fill-opacity="1"></use></g><g><use xlink:href="#e16Z3taXEK" opacity="1" fill="#e6f9ff" fill-opacity="1"></use></g><g><use xlink:href="#d4WejcZfse" opacity="1" fill="#1c486b" fill-opacity="1"></use></g><g><use xlink:href="#aHTeuu3Sn" opacity="1" fill="#1c486b" fill-opacity="1"></use></g><g><use xlink:href="#a1iplsPAMa" opacity="1" fill="#1c486b" fill-opacity="1"></use></g><g><use xlink:href="#b2edDkBiX9" opacity="1" fill="#1c486b" fill-opacity="1"></use></g><g><use xlink:href="#a1K1XTwkM" opacity="1" fill="#1c486b" fill-opacity="1"></use></g><g><use xlink:href="#b8z4mnE7k" opacity="1" fill="url(#gradientalrLgqgwL)"></use></g><g><use xlink:href="#d1kvpymnBE" opacity="1" fill="url(#gradientd1lqvozeMW)"></use></g><g><use xlink:href="#nfQbb2fGa" opacity="1" fill="#1c486b" fill-opacity="1"></use></g><g><use xlink:href="#ddg4OYEDO" opacity="1" fill="#1c486b" fill-opacity="1"></use></g><g><use xlink:href="#e8OztleHK" opacity="1" fill="#1c486b" fill-opacity="1"></use></g><g><use xlink:href="#aPlPXq8Z0" opacity="1" fill="#1c486b" fill-opacity="1"></use></g><g><use xlink:href="#d1kUFXX9Tz" opacity="1" fill="#1c486b" fill-opacity="1"></use></g><g><use xlink:href="#d2ltst8ooD" opacity="1" fill="#1c486b" fill-opacity="1"></use></g><g><g><use xlink:href="#aeu6KOP91" opacity="1" fill-opacity="0" stroke="#73d4ff" stroke-width="4" stroke-opacity="1"></use></g></g></g></g></svg>