<?xml version="1.0" encoding="UTF-8" standalone="no"?>
<!DOCTYPE svg PUBLIC "-//W3C//DTD SVG 1.1//EN" "http://www.w3.org/Graphics/SVG/1.1/DTD/svg11.dtd">
<svg version="1.1" xmlns="http://www.w3.org/2000/svg" xmlns:xlink="http://www.w3.org/1999/xlink" preserveAspectRatio="xMidYMid meet" viewBox="0 0 640 640" width="640" height="640"><defs><path d="M574.09 332.64C574.09 474.75 458.72 590.11 316.62 590.11C174.51 590.11 59.15 474.75 59.15 332.64C59.15 190.54 174.51 75.17 316.62 75.17C458.72 75.17 574.09 190.54 574.09 332.64Z" id="a2KnaUeKu9"></path><path d="M437.39 393.3C442.15 393.3 446.01 397.16 446.01 401.92C446.01 423.77 446.01 480.7 446.01 502.55C446.01 507.31 442.15 511.17 437.39 511.17C426.24 511.17 401.4 511.17 390.25 511.17C385.49 511.17 381.63 507.31 381.63 502.55C381.63 480.7 381.63 423.77 381.63 401.92C381.63 397.16 385.49 393.3 390.25 393.3C401.4 393.3 426.24 393.3 437.39 393.3Z" id="fxlaOy3PD"></path><path d="M436.37 394.8C440.93 394.8 444.62 398.49 444.62 403.05C444.62 424.37 444.62 480.1 444.62 501.43C444.62 505.98 440.93 509.67 436.37 509.67C425.7 509.67 401.94 509.67 391.27 509.67C386.72 509.67 383.03 505.98 383.03 501.43C383.03 480.1 383.03 424.37 383.03 403.05C383.03 398.49 386.72 394.8 391.27 394.8C401.94 394.8 425.7 394.8 436.37 394.8Z" id="b6SdIhPnE"></path><path d="M403.19 393.3L424.45 393.3C424.45 396.47 424.45 398.45 424.45 399.25C424.45 400.34 423.56 401.23 422.47 401.23C418.61 401.23 409.03 401.23 405.17 401.23C404.08 401.23 403.19 400.34 403.19 399.25C403.19 398.45 403.19 396.47 403.19 393.3Z" id="d4YF81GZ8Z"></path><path d="M364.97 245.57C364.97 246.11 364.97 246.45 364.97 246.59C365.03 273.83 352.92 299.67 331.94 317.05C330.79 318 327.93 320.38 323.34 324.18C318.31 319.73 315.16 316.96 313.9 315.84C294.88 299.04 283.27 275.4 281.59 250.07C281.55 249.35 281.43 247.53 281.23 244.63C281.23 244.63 281.23 244.63 281.23 244.63C307.69 231.55 338.81 231.9 364.97 245.57C364.97 245.57 364.97 245.57 364.97 245.57Z" id="a33ttJFrJ"></path><linearGradient id="gradientc11jf00IXX" gradientUnits="userSpaceOnUse" x1="362.45" y1="243.13" x2="308.98" y2="309.21"><stop style="stop-color: #8198ff;stop-opacity: 1" offset="0%"></stop><stop style="stop-color: #6480ff;stop-opacity: 1" offset="100%"></stop></linearGradient><path d="M361.2 101.32C363.28 101.32 364.97 103.01 364.97 105.09C364.97 110.05 364.97 121.19 364.97 126.16C364.97 128.24 363.28 129.92 361.2 129.92C344.59 129.92 298.53 129.92 281.92 129.92C279.84 129.92 278.16 128.24 278.16 126.16C278.16 121.19 278.16 110.05 278.16 105.09C278.16 103.01 279.84 101.32 281.92 101.32C298.53 101.32 344.59 101.32 361.2 101.32Z" id="b1rQu4MFKc"></path><linearGradient id="gradienta1UJ7c8qG" gradientUnits="userSpaceOnUse" x1="321.56" y1="101.32" x2="321.56" y2="129.92"><stop style="stop-color: #7a92ff;stop-opacity: 1" offset="0%"></stop><stop style="stop-color: #6480ff;stop-opacity: 1" offset="100%"></stop></linearGradient><path d="M361.2 131.9C363.28 131.9 364.97 133.59 364.97 135.67C364.97 140.64 364.97 151.77 364.97 156.74C364.97 158.82 363.28 160.51 361.2 160.51C344.59 160.51 298.53 160.51 281.92 160.51C279.84 160.51 278.16 158.82 278.16 156.74C278.16 151.77 278.16 140.64 278.16 135.67C278.16 133.59 279.84 131.9 281.92 131.9C298.53 131.9 344.59 131.9 361.2 131.9Z" id="f3jF7dA3ez"></path><linearGradient id="gradientaiwuP8SrQ" gradientUnits="userSpaceOnUse" x1="321.56" y1="131.9" x2="321.56" y2="160.51"><stop style="stop-color: #8197fc;stop-opacity: 1" offset="0%"></stop><stop style="stop-color: #6480ff;stop-opacity: 1" offset="100%"></stop></linearGradient><path d="M361.2 162.49C363.28 162.49 364.97 164.18 364.97 166.26C364.97 171.22 364.97 182.36 364.97 187.33C364.97 189.41 363.28 191.09 361.2 191.09C344.59 191.09 298.53 191.09 281.92 191.09C279.84 191.09 278.16 189.41 278.16 187.33C278.16 182.36 278.16 171.22 278.16 166.26C278.16 164.18 279.84 162.49 281.92 162.49C298.53 162.49 344.59 162.49 361.2 162.49Z" id="a1rGt0AUhE"></path><linearGradient id="gradientb4hhselz4F" gradientUnits="userSpaceOnUse" x1="321.56" y1="162.49" x2="321.56" y2="191.09"><stop style="stop-color: #9badff;stop-opacity: 1" offset="0%"></stop><stop style="stop-color: #6480ff;stop-opacity: 1" offset="100%"></stop></linearGradient><path d="M332.05 118.6L338.83 118.6L338.83 125.57L332.05 125.57L332.05 118.6Z" id="bxzS4hhyc"></path><linearGradient id="gradientgSC0A0NWR" gradientUnits="userSpaceOnUse" x1="338.15" y1="118.6" x2="333.12" y2="124.99"><stop style="stop-color: #ff9696;stop-opacity: 1" offset="0%"></stop><stop style="stop-color: #ff0f0f;stop-opacity: 1" offset="100%"></stop></linearGradient><path d="M341.54 118.6L348.31 118.6L348.31 125.57L341.54 125.57L341.54 118.6Z" id="d2gRk0gKLQ"></path><linearGradient id="gradientdpMNVF5jz" gradientUnits="userSpaceOnUse" x1="347.63" y1="118.6" x2="342.6" y2="124.99"><stop style="stop-color: #d1ffcf;stop-opacity: 1" offset="0%"></stop><stop style="stop-color: #0fff0f;stop-opacity: 1" offset="100%"></stop></linearGradient><path d="M351.02 118.6L357.8 118.6L357.8 125.57L351.02 125.57L351.02 118.6Z" id="k2oYp7hFPN"></path><linearGradient id="gradienta2qyStQhGj" gradientUnits="userSpaceOnUse" x1="357.12" y1="118.6" x2="352.09" y2="124.99"><stop style="stop-color: #d1ffcf;stop-opacity: 1" offset="0%"></stop><stop style="stop-color: #0fff0f;stop-opacity: 1" offset="100%"></stop></linearGradient><path d="M351.02 134.48L357.8 134.48L357.8 141.45L351.02 141.45L351.02 134.48Z" id="d2xdAl4gTN"></path><path d="M351.02 165.06L357.8 165.06L357.8 172.03L351.02 172.03L351.02 165.06Z" id="a5JD2I8Ag"></path><path d="M320.07 488.83C320.91 488.83 321.59 489.51 321.59 490.34C321.59 491.36 321.59 492.89 321.59 493.9C321.59 494.74 320.91 495.42 320.07 495.42C286.11 495.42 185.74 495.42 151.78 495.42C150.95 495.42 150.27 494.74 150.27 493.9C150.27 492.89 150.27 491.36 150.27 490.34C150.27 489.51 150.95 488.83 151.78 488.83C185.74 488.83 286.11 488.83 320.07 488.83Z" id="afjivdo5q"></path><path d="M310.48 393.3C311.77 393.3 312.81 394.35 312.81 395.64C312.81 414.27 312.81 467.86 312.81 486.5C312.81 487.79 311.77 488.83 310.48 488.83C280.17 488.83 191.57 488.83 161.26 488.83C159.98 488.83 158.93 487.79 158.93 486.5C158.93 467.86 158.93 414.27 158.93 395.64C158.93 394.35 159.98 393.3 161.26 393.3C191.57 393.3 280.17 393.3 310.48 393.3Z" id="b1rfHKFU"></path><path d="M308.49 395.65C309.75 395.65 310.76 396.66 310.76 397.91C310.76 415.63 310.76 466.51 310.76 484.22C310.76 485.47 309.75 486.49 308.49 486.49C279.01 486.49 192.84 486.49 163.36 486.49C162.11 486.49 161.09 485.47 161.09 484.22C161.09 466.51 161.09 415.63 161.09 397.91C161.09 396.66 162.11 395.65 163.36 395.65C192.84 395.65 279.01 395.65 308.49 395.65Z" id="dcbdh1Gx9"></path><path d="M286.37 296.94L286.37 328.61L235.93 328.61L235.93 386.1" id="g1WwvluGGk"></path><path d="M363.37 296.94L363.37 328.61L413.82 328.61L413.82 386.1" id="b5e8YryJtF"></path><path d="M238.64 386.1C238.64 387.59 237.42 388.81 235.93 388.81C234.43 388.81 233.22 387.59 233.22 386.1C233.22 384.6 234.43 383.39 235.93 383.39C237.42 383.39 238.64 384.6 238.64 386.1Z" id="c1OLV8FRGl"></path><path d="M416.53 385.32C416.53 386.82 415.32 388.03 413.82 388.03C412.33 388.03 411.11 386.82 411.11 385.32C411.11 383.83 412.33 382.61 413.82 382.61C415.32 382.61 416.53 383.83 416.53 385.32Z" id="biZnJJghs"></path><path d="M323.1 199.48L323.1 226" id="a1VeqdFfkN"></path><path d="M325.81 224.79C325.81 226.28 324.6 227.5 323.1 227.5C321.61 227.5 320.39 226.28 320.39 224.79C320.39 223.29 321.61 222.08 323.1 222.08C324.6 222.08 325.81 223.29 325.81 224.79Z" id="e1D22BRU0S"></path></defs><g><g><g><use xlink:href="#a2KnaUeKu9" opacity="1" fill="#6380ff" fill-opacity="0.24"></use></g><g><use xlink:href="#fxlaOy3PD" opacity="1" fill="#000000" fill-opacity="1"></use></g><g><use xlink:href="#b6SdIhPnE" opacity="1" fill="#ffffff" fill-opacity="1"></use></g><g><use xlink:href="#d4YF81GZ8Z" opacity="1" fill="#000000" fill-opacity="1"></use></g><g><use xlink:href="#a33ttJFrJ" opacity="1" fill="url(#gradientc11jf00IXX)"></use><g><use xlink:href="#a33ttJFrJ" opacity="1" fill-opacity="0" stroke="#52b8ff" stroke-width="0" stroke-opacity="1"></use></g></g><g><use xlink:href="#b1rQu4MFKc" opacity="1" fill="url(#gradienta1UJ7c8qG)"></use></g><g><use xlink:href="#f3jF7dA3ez" opacity="1" fill="url(#gradientaiwuP8SrQ)"></use></g><g><use xlink:href="#a1rGt0AUhE" opacity="1" fill="url(#gradientb4hhselz4F)"></use></g><g><use xlink:href="#bxzS4hhyc" opacity="1" fill="url(#gradientgSC0A0NWR)"></use><g><use xlink:href="#bxzS4hhyc" opacity="1" fill-opacity="0" stroke="#1d62ff" stroke-width="2" stroke-opacity="1"></use></g></g><g><use xlink:href="#d2gRk0gKLQ" opacity="1" fill="url(#gradientdpMNVF5jz)"></use><g><use xlink:href="#d2gRk0gKLQ" opacity="1" fill-opacity="0" stroke="#1d62ff" stroke-width="2" stroke-opacity="1"></use></g></g><g><use xlink:href="#k2oYp7hFPN" opacity="1" fill="url(#gradienta2qyStQhGj)"></use><g><use xlink:href="#k2oYp7hFPN" opacity="1" fill-opacity="0" stroke="#1d62ff" stroke-width="2" stroke-opacity="1"></use></g></g><g><use xlink:href="#d2xdAl4gTN" opacity="1" fill="#000000" fill-opacity="1"></use><g><use xlink:href="#d2xdAl4gTN" opacity="1" fill-opacity="0" stroke="#1d62ff" stroke-width="0" stroke-opacity="1"></use></g></g><g><use xlink:href="#a5JD2I8Ag" opacity="1" fill="#000000" fill-opacity="1"></use><g><use xlink:href="#a5JD2I8Ag" opacity="1" fill-opacity="0" stroke="#1d62ff" stroke-width="0" stroke-opacity="1"></use></g></g><g><use xlink:href="#afjivdo5q" opacity="1" fill="#3f3f3f" fill-opacity="1"></use></g><g><use xlink:href="#b1rfHKFU" opacity="1" fill="#000000" fill-opacity="1"></use></g><g><use xlink:href="#dcbdh1Gx9" opacity="1" fill="#ffffff" fill-opacity="1"></use></g><g><g><use xlink:href="#g1WwvluGGk" opacity="1" fill-opacity="0" stroke="#6480ff" stroke-width="7" stroke-opacity="1"></use></g></g><g><g><use xlink:href="#b5e8YryJtF" opacity="1" fill-opacity="0" stroke="#6480ff" stroke-width="7" stroke-opacity="1"></use></g></g><g><use xlink:href="#c1OLV8FRGl" opacity="1" fill="#28427e" fill-opacity="1"></use></g><g><use xlink:href="#biZnJJghs" opacity="1" fill="#28427e" fill-opacity="1"></use></g><g><g><use xlink:href="#a1VeqdFfkN" opacity="1" fill-opacity="0" stroke="#6480ff" stroke-width="7" stroke-opacity="1"></use></g></g><g><use xlink:href="#e1D22BRU0S" opacity="1" fill="#28427e" fill-opacity="1"></use></g></g></g></svg>