<?xml version="1.0" encoding="UTF-8" standalone="no"?>
<!DOCTYPE svg PUBLIC "-//W3C//DTD SVG 1.1//EN" "http://www.w3.org/Graphics/SVG/1.1/DTD/svg11.dtd">
<svg version="1.1" xmlns="http://www.w3.org/2000/svg" xmlns:xlink="http://www.w3.org/1999/xlink" preserveAspectRatio="xMidYMid meet" viewBox="0 0 900 675" width="900" height="675"><defs><path d="M453.13 663.45L353.7 637.6L453.13 604.58L547.1 631.84L453.13 663.45ZM341.9 634.01L242.47 608.16L341.9 575.14L435.87 602.4L341.9 634.01ZM564.35 622.76L464.92 596.91L564.35 563.88L658.33 591.14L564.35 622.76ZM229.88 604.58L130.45 578.72L229.88 545.7L323.85 572.96L229.88 604.58ZM453.13 593.32L353.7 567.47L453.13 534.44L547.1 561.7L453.13 593.32ZM675.58 583.46L576.15 557.61L675.58 524.58L769.55 551.84L675.58 583.46ZM118.65 575.14L19.22 549.29L118.65 516.26L212.63 543.52L118.65 575.14ZM341.1 563.88L241.67 538.03L341.1 505L435.08 532.26L341.1 563.88ZM564.35 554.02L464.92 528.17L564.35 495.14L658.33 522.4L564.35 554.02ZM786.8 545.7L687.37 519.85L786.8 486.82L880.78 514.08L786.8 545.7ZM229.88 534.44L130.45 508.59L229.88 475.56L323.85 502.83L229.88 534.44ZM452.33 524.58L352.9 498.73L452.33 465.7L546.3 492.97L452.33 524.58ZM675.58 516.26L576.15 490.41L675.58 457.38L769.55 484.64L675.58 516.26ZM341.1 495.14L241.67 469.29L341.1 436.26L435.08 463.53L341.1 495.14ZM563.56 486.82L464.13 460.97L563.56 427.94L657.53 455.2L563.56 486.82ZM452.33 457.38L352.9 431.53L452.33 398.5L546.3 425.77L452.33 457.38Z" id="bbP3rijR5"></path><path d="M514.6 387.82L447.68 409.33L380.94 391.41L449.13 367.67L514.6 387.82Z" id="cBJWouN3l"></path><path d="M450 123.04L695.61 64.5L695.61 404.82L450 487.17L450 123.04Z" id="bM7DKSZHZ"></path><path d="M192.72 64.5L450 120.65L450 487.17L192.72 419.79L192.72 64.5Z" id="c1lFiytMx"></path><path d="M215.37 106.3L423 151.62L423 447.41L215.37 393.03L215.37 106.3Z" id="ceODDWSIY"></path><path d="M219.28 111.7L419.1 155.31L419.1 439.97L219.28 387.64L219.28 111.7Z" id="fE44wyYvi"></path><path d="M295.98 224.84L321.33 223.8L325.59 326.82L300.23 327.87L295.98 224.84Z" id="b2jE4Wqahi"></path><path d="M356.43 272.77C358.51 301.15 344.7 325.33 325.59 326.73C306.48 328.14 289.28 306.24 287.19 277.86C285.1 249.48 298.92 225.3 318.02 223.9C337.13 222.49 354.34 244.39 356.43 272.77Z" id="bedabaeLu"></path><path d="M695.61 64.5L450 123.04L192.72 64.5L450 11.55L695.61 64.5Z" id="c3eKIytEb"></path><path d="M332.02 273.78C334.11 302.16 320.29 326.34 301.19 327.74C282.08 329.15 264.87 307.25 262.78 278.87C260.7 250.49 274.51 226.31 293.62 224.91C312.73 223.5 329.93 245.4 332.02 273.78Z" id="c4NPdHPZj"></path><path d="M319.07 274.77C320.28 291.21 312.27 305.22 301.21 306.03C290.14 306.85 280.17 294.16 278.96 277.72C277.76 261.29 285.76 247.28 296.83 246.47C307.89 245.65 317.86 258.34 319.07 274.77Z" id="ispnFh3dB"></path><path d="M283.1 247.03L297.78 246.42L300.25 306.09L285.56 306.7L283.1 247.03Z" id="f1zu8EakHu"></path><path d="M304.38 275.38C305.59 291.82 297.59 305.82 286.52 306.64C275.45 307.45 265.49 294.77 264.28 278.33C263.07 261.89 271.07 247.89 282.14 247.07C293.21 246.26 303.17 258.94 304.38 275.38Z" id="a8KdLBcpK"></path></defs><g><g><g><use xlink:href="#bbP3rijR5" opacity="1" fill="#dfe2e6" fill-opacity="1"></use></g><g><use xlink:href="#cBJWouN3l" opacity="1" fill="#cbe6ff" fill-opacity="1"></use></g><g><use xlink:href="#bM7DKSZHZ" opacity="1" fill="#5782ab" fill-opacity="1"></use></g><g><use xlink:href="#c1lFiytMx" opacity="1" fill="#5dadf8" fill-opacity="1"></use></g><g><use xlink:href="#ceODDWSIY" opacity="1" fill="#4c96db" fill-opacity="1"></use></g><g><use xlink:href="#fE44wyYvi" opacity="1" fill="#5dadf8" fill-opacity="1"></use></g><g><use xlink:href="#b2jE4Wqahi" opacity="1" fill="#4c91d1" fill-opacity="1"></use></g><g><use xlink:href="#bedabaeLu" opacity="1" fill="#4c91d1" fill-opacity="1"></use></g><g><use xlink:href="#c3eKIytEb" opacity="1" fill="#abd5fc" fill-opacity="1"></use></g><g><use xlink:href="#c4NPdHPZj" opacity="1" fill="#58a1e6" fill-opacity="1"></use></g><g><use xlink:href="#ispnFh3dB" opacity="1" fill="#8aa9c5" fill-opacity="1"></use></g><g><use xlink:href="#f1zu8EakHu" opacity="1" fill="#8aa9c5" fill-opacity="1"></use></g><g><use xlink:href="#a8KdLBcpK" opacity="1" fill="#cee7ff" fill-opacity="1"></use></g></g></g></svg>