<svg height="512" viewBox="0 0 56 58" width="512" xmlns="http://www.w3.org/2000/svg"><g id="Page-1" fill="none" fill-rule="evenodd"><g id="066---File-Folder" fill-rule="nonzero"><path id="Shape" d="m0 49v-49h36c1.6568542 0 3 1.34314575 3 3v22.94c-.0009672.6951815.1818775 1.3782617.53 1.98l2.94 5.16c.3481225.6017383.5309672 1.2848185.53 1.98v10.94c0 1.6568542-1.3431458 3-3 3z" fill="#5d4c72"/><path id="Shape" d="m0 49 15.106 8.786c.6194868.3095595 1.3550292.276616 1.944362-.0870842s.9485761-1.0063915.949638-1.6989158v-11.424c.0001464-.3764929.1065594-.7452988.307-1.064l2.386-3.8c.2005295-.3179234.3069661-.6861178.307-1.062v-24.1c-.0000232-1.0943601-.5959526-2.1018832-1.555-2.629l-19.445-11.921z" fill="#7d6599"/><path id="Shape" d="m4 11c-.55228475 0-1-.4477153-1-1v-2c0-.55228475.44771525-1 1-1s1 .44771525 1 1v2c0 .5522847-.44771525 1-1 1z" fill="#b49aca"/><path id="Shape" d="m4 34c-.55228475 0-1-.4477153-1-1v-18c0-.5522847.44771525-1 1-1s1 .4477153 1 1v18c0 .5522847-.44771525 1-1 1z" fill="#b49aca"/><path id="Shape" d="m46 18 10 10v26c0 2.209139-1.790861 4-4 4h-23c-2.209139 0-4-1.790861-4-4v-32c0-2.209139 1.790861-4 4-4z" fill="#f0c419"/><g fill="#3f5c6c"><path id="Shape" d="m32 35h-2c-.5522847 0-1-.4477153-1-1s.4477153-1 1-1h2c.5522847 0 1 .4477153 1 1s-.4477153 1-1 1z"/><path id="Shape" d="m51 35h-15c-.5522847 0-1-.4477153-1-1s.4477153-1 1-1h15c.5522847 0 1 .4477153 1 1s-.4477153 1-1 1z"/><path id="Shape" d="m32 40h-2c-.5522847 0-1-.4477153-1-1s.4477153-1 1-1h2c.5522847 0 1 .4477153 1 1s-.4477153 1-1 1z"/><path id="Shape" d="m51 40h-15c-.5522847 0-1-.4477153-1-1s.4477153-1 1-1h15c.5522847 0 1 .4477153 1 1s-.4477153 1-1 1z"/><path id="Shape" d="m32 45h-2c-.5522847 0-1-.4477153-1-1s.4477153-1 1-1h2c.5522847 0 1 .4477153 1 1s-.4477153 1-1 1z"/><path id="Shape" d="m51 45h-15c-.5522847 0-1-.4477153-1-1s.4477153-1 1-1h15c.5522847 0 1 .4477153 1 1s-.4477153 1-1 1z"/><path id="Shape" d="m32 50h-2c-.5522847 0-1-.4477153-1-1s.4477153-1 1-1h2c.5522847 0 1 .4477153 1 1s-.4477153 1-1 1z"/><path id="Shape" d="m51 50h-15c-.5522847 0-1-.4477153-1-1s.4477153-1 1-1h15c.5522847 0 1 .4477153 1 1s-.4477153 1-1 1z"/></g><path id="Shape" d="m46 18v6c0 2.209139 1.790861 4 4 4h6z" fill="#f3d55b"/></g></g></svg>