<?xml version="1.0" encoding="UTF-8" standalone="no"?>
<!DOCTYPE svg PUBLIC "-//W3C//DTD SVG 1.1//EN" "http://www.w3.org/Graphics/SVG/1.1/DTD/svg11.dtd">
<svg version="1.1" xmlns="http://www.w3.org/2000/svg" xmlns:xlink="http://www.w3.org/1999/xlink" preserveAspectRatio="xMidYMid meet" viewBox="0 0 640 550" width="640" height="550"><defs><path d="M630.8 56.24C630.8 44.04 620.92 34.16 608.72 34.16C488.82 34.16 151.18 34.16 31.28 34.16C19.08 34.16 9.2 44.04 9.2 56.24C9.2 145.73 9.2 392.13 9.2 481.62C9.2 493.81 19.08 503.7 31.28 503.7C151.18 503.7 488.82 503.7 608.72 503.7C620.92 503.7 630.8 493.81 630.8 481.62C630.8 392.13 630.8 145.73 630.8 56.24Z" id="c2zST4Xo7i"></path><linearGradient id="gradienta5wP20SyoG" gradientUnits="userSpaceOnUse" x1="610.14" y1="238.9" x2="67.36" y2="497.96"><stop style="stop-color: #c2c2c2;stop-opacity: 1" offset="0%"></stop><stop style="stop-color: #6c727e;stop-opacity: 1" offset="100%"></stop></linearGradient><path d="M471.27 289.43C471.27 397.55 383.49 485.33 275.37 485.33C167.24 485.33 79.46 397.55 79.46 289.43C79.46 181.3 167.24 93.52 275.37 93.52C383.49 93.52 471.27 181.3 471.27 289.43Z" id="a8jfbZq1f"></path><linearGradient id="gradientcXPeW07q" gradientUnits="userSpaceOnUse" x1="379.47" y1="130.46" x2="159.5" y2="443.35"><stop style="stop-color: #647089;stop-opacity: 1" offset="0%"></stop><stop style="stop-color: #28313e;stop-opacity: 1" offset="100%"></stop></linearGradient><path d="M441.04 289.43C441.04 380.87 366.81 455.1 275.37 455.1C183.93 455.1 109.69 380.87 109.69 289.43C109.69 197.98 183.93 123.75 275.37 123.75C366.81 123.75 441.04 197.98 441.04 289.43Z" id="etLSvW5dN"></path><linearGradient id="gradienta1JDuhQSb" gradientUnits="userSpaceOnUse" x1="363.41" y1="154.99" x2="177.38" y2="419.6"><stop style="stop-color: #535a6c;stop-opacity: 1" offset="0%"></stop><stop style="stop-color: #171f2a;stop-opacity: 1" offset="100%"></stop></linearGradient><path d="M431.81 298.66C431.81 385 361.71 455.1 275.37 455.1C189.02 455.1 118.92 385 118.92 298.66C118.92 212.32 189.02 142.22 275.37 142.22C361.71 142.22 431.81 212.32 431.81 298.66Z" id="bdhBJq9Hp"></path><linearGradient id="gradienthoBlAfsVY" gradientUnits="userSpaceOnUse" x1="358.5" y1="171.72" x2="182.84" y2="421.58"><stop style="stop-color: #7584a4;stop-opacity: 1" offset="0%"></stop><stop style="stop-color: #3e4d62;stop-opacity: 1" offset="100%"></stop></linearGradient><path d="M333.3 289.43C333.3 322.79 307.34 349.88 275.37 349.88C243.39 349.88 217.43 322.79 217.43 289.43C217.43 256.06 243.39 228.98 275.37 228.98C307.34 228.98 333.3 256.06 333.3 289.43Z" id="bgHWuXHFp"></path><linearGradient id="gradientacg2MSRTYr" gradientUnits="userSpaceOnUse" x1="307.27" y1="245.77" x2="251.76" y2="338.12"><stop style="stop-color: #5b5e7e;stop-opacity: 1" offset="0%"></stop><stop style="stop-color: #313441;stop-opacity: 1" offset="100%"></stop></linearGradient><path d="M278.46 251.77L279.99 251.92L281.49 252.14L282.98 252.41L284.44 252.74L285.88 253.13L287.3 253.57L288.7 254.07L290.07 254.61L291.41 255.21L292.72 255.86L294.01 256.56L295.26 257.31L296.48 258.1L297.67 258.94L298.83 259.82L299.95 260.74L301.03 261.71L302.08 262.72L303.08 263.76L304.05 264.84L304.97 265.96L305.85 267.12L306.69 268.31L307.48 269.53L308.23 270.78L308.93 272.07L309.58 273.38L310.18 274.72L310.72 276.09L311.22 277.49L311.66 278.91L312.05 280.35L312.38 281.82L312.65 283.3L312.87 284.81L313.02 286.33L313.12 287.87L313.15 289.43L313.12 290.98L313.02 292.52L312.87 294.05L312.65 295.55L312.38 297.04L312.05 298.5L311.66 299.94L311.22 301.36L310.72 302.76L310.18 304.13L309.58 305.47L308.93 306.78L308.23 308.07L307.48 309.32L306.69 310.54L305.85 311.73L304.97 312.89L304.05 314.01L303.08 315.09L302.08 316.14L301.03 317.14L299.95 318.11L298.83 319.03L297.67 319.91L296.48 320.75L295.26 321.54L294.01 322.29L292.72 322.99L291.41 323.64L290.07 324.24L288.7 324.78L287.3 325.28L285.88 325.72L284.44 326.11L282.98 326.44L281.49 326.71L279.99 326.93L278.46 327.08L276.92 327.18L275.37 327.21L273.81 327.18L272.27 327.08L270.75 326.93L269.24 326.71L267.76 326.44L266.29 326.11L264.85 325.72L263.43 325.28L262.03 324.78L260.67 324.24L259.32 323.64L258.01 322.99L256.72 322.29L255.47 321.54L254.25 320.75L253.06 319.91L251.9 319.03L250.78 318.11L249.7 317.14L248.66 316.14L247.65 315.09L246.68 314.01L245.76 312.89L244.88 311.73L244.04 310.54L243.25 309.32L242.5 308.07L241.8 306.78L241.16 305.47L240.56 304.13L240.01 302.76L239.51 301.36L239.07 299.94L238.68 298.5L238.35 297.04L238.08 295.55L237.87 294.05L237.71 292.52L237.62 290.98L237.58 289.43L237.62 287.87L237.71 286.33L237.87 284.81L238.08 283.3L238.35 281.82L238.68 280.35L239.07 278.91L239.51 277.49L240.01 276.09L240.56 274.72L241.16 273.38L241.8 272.07L242.5 270.78L243.25 269.53L244.04 268.31L244.88 267.12L245.76 265.96L246.68 264.84L247.65 263.76L248.66 262.72L249.7 261.71L250.78 260.74L251.9 259.82L253.06 258.94L254.25 258.1L255.47 257.31L256.72 256.56L258.01 255.86L259.32 255.21L260.67 254.61L262.03 254.07L263.43 253.57L264.85 253.13L266.29 252.74L267.76 252.41L269.24 252.14L270.75 251.92L272.27 251.77L273.81 251.68L275.37 251.64L276.92 251.68L278.46 251.77ZM256.57 314.28L257.56 315.01L258.59 315.69L259.64 316.34L260.72 316.94L261.82 317.5L262.95 318.02L264.11 318.5L265.28 318.92L266.48 319.31L267.7 319.64L268.93 319.93L270.19 320.17L271.46 320.35L272.58 320.47L272.58 297.94L271.81 297.65L255.72 313.62L256.57 314.28ZM278.72 297.73L278.72 320.41L279.27 320.35L280.55 320.17L281.8 319.93L283.04 319.64L284.25 319.31L285.45 318.92L286.63 318.5L287.78 318.02L288.91 317.5L290.01 316.94L291.09 316.34L292.15 315.69L293.17 315.01L294.16 314.28L295.13 313.52L296.06 312.72L296.39 312.43L279.16 297.56L279.15 297.56L278.72 297.73ZM244.44 293.33L244.63 294.6L244.86 295.86L245.15 297.1L245.48 298.31L245.87 299.51L246.3 300.69L246.77 301.84L247.29 302.97L247.85 304.07L248.45 305.15L249.1 306.2L249.78 307.23L250.51 308.22L251.27 309.19L251.36 309.3L267.35 293.42L267.23 293.21L266.95 292.47L244.36 292.52L244.44 293.33ZM283.51 293.2L300.49 307.86L300.95 307.23L301.63 306.2L302.28 305.15L302.88 304.07L303.44 302.97L303.96 301.84L304.44 300.69L304.87 299.51L305.25 298.31L305.58 297.1L305.87 295.86L306.11 294.6L306.29 293.33L306.38 292.47L283.77 292.52L283.51 293.2ZM283.5 285.64L283.79 286.38L306.38 286.33L306.29 285.52L306.11 284.25L305.87 282.99L305.58 281.75L305.25 280.54L304.87 279.34L304.44 278.16L303.96 277.01L303.44 275.88L302.88 274.78L302.28 273.7L301.63 272.65L300.95 271.62L300.22 270.63L299.99 270.33L283.43 285.51L283.5 285.64ZM249.1 272.65L248.45 273.7L247.85 274.78L247.29 275.88L246.77 277.01L246.3 278.16L245.87 279.34L245.48 280.54L245.15 281.75L244.86 282.99L244.63 284.25L244.44 285.52L244.35 286.38L266.97 286.33L267.23 285.64L267.41 285.32L250.46 270.69L249.78 271.62L249.1 272.65ZM279.01 281.24L295.77 265.88L295.13 265.33L294.16 264.57L293.17 263.84L292.15 263.16L291.09 262.51L290.01 261.91L288.91 261.35L287.78 260.83L286.63 260.36L285.45 259.93L284.25 259.54L283.04 259.21L281.8 258.92L280.55 258.68L279.27 258.5L278.72 258.44L278.72 281.12L279.01 281.24ZM270.19 258.68L268.93 258.92L267.7 259.21L266.48 259.54L265.28 259.93L264.11 260.36L262.95 260.83L261.82 261.35L260.72 261.91L259.64 262.51L258.59 263.16L257.56 263.84L256.57 264.57L255.6 265.33L254.67 266.13L254.62 266.17L271.96 281.14L272.58 280.91L272.58 258.38L271.46 258.5L270.19 258.68Z" id="bb4J3hPSM"></path><linearGradient id="gradientbgaZ8aKf3" gradientUnits="userSpaceOnUse" x1="275.37" y1="251.64" x2="275.37" y2="327.21"><stop style="stop-color: #bfbfbf;stop-opacity: 1" offset="0%"></stop><stop style="stop-color: #6e6e6e;stop-opacity: 1" offset="100%"></stop></linearGradient><path d="M279.35 130.37L281.29 130.45L283.14 130.56L284.87 130.69L286.48 130.85L287.95 131.04L289.27 131.24L290.43 131.46L291.4 131.71L292.18 131.96L292.76 132.23L293.11 132.52L293.23 132.81L293.23 233.04L293.11 232.74L292.76 232.46L292.18 232.19L291.4 231.94L290.43 231.69L289.27 231.47L287.95 231.27L286.48 231.08L284.87 230.92L283.14 230.79L281.29 230.68L279.35 230.6L277.32 230.55L275.22 230.53L273.12 230.55L271.1 230.6L269.15 230.68L267.31 230.79L265.57 230.92L263.96 231.08L262.49 231.27L261.17 231.47L260.02 231.69L259.05 231.94L258.26 232.19L257.69 232.46L257.33 232.74L257.21 233.04L257.21 132.81L257.33 132.52L257.69 132.23L258.26 131.96L259.05 131.71L260.02 131.46L261.17 131.24L262.49 131.04L263.96 130.85L265.57 130.69L267.31 130.56L269.15 130.45L271.1 130.37L273.12 130.32L275.22 130.3L277.32 130.32L279.35 130.37Z" id="dBNMKJNV2"></path><linearGradient id="gradientacv8c9RGJ" gradientUnits="userSpaceOnUse" x1="293.23" y1="174.64" x2="257.21" y2="174.64"><stop style="stop-color: #474b5a;stop-opacity: 1" offset="0%"></stop><stop style="stop-color: #707584;stop-opacity: 1" offset="100%"></stop></linearGradient><path d="M287.97 454.32L287.95 454.32L286.48 454.52L284.87 454.69L283.14 454.83L281.29 454.95L279.35 455.03L277.32 455.09L275.22 455.1L273.12 455.09L271.1 455.03L269.15 454.95L267.31 454.83L265.57 454.69L263.96 454.52L262.49 454.32L262.48 454.32L257.21 454.32L257.21 345.43L257.33 345.74L257.69 346.04L258.26 346.33L259.05 346.61L260.02 346.86L261.17 347.1L262.49 347.32L263.96 347.52L265.57 347.69L267.31 347.83L269.15 347.95L271.1 348.03L273.12 348.09L275.22 348.11L277.32 348.09L279.35 348.03L281.29 347.95L283.14 347.83L284.87 347.69L286.48 347.52L287.95 347.32L289.27 347.1L290.43 346.86L291.4 346.61L292.18 346.33L292.76 346.04L293.11 345.74L293.23 345.43L293.23 454.32L287.97 454.32Z" id="b1b2hgTBrc"></path><linearGradient id="gradienta10hd5QlSS" gradientUnits="userSpaceOnUse" x1="293.23" y1="407.77" x2="257.21" y2="407.77"><stop style="stop-color: #474b5a;stop-opacity: 1" offset="0%"></stop><stop style="stop-color: #707584;stop-opacity: 1" offset="100%"></stop></linearGradient><path d="M221.11 268.98L220.81 269.1L220.52 269.45L220.23 270.02L219.96 270.8L219.71 271.77L219.47 272.92L219.25 274.24L219.05 275.71L218.87 277.32L218.72 279.05L218.59 280.9L218.5 282.84L218.43 284.87L218.4 286.97L218.41 289.07L218.44 291.1L218.51 293.04L218.61 294.89L218.74 296.62L218.9 298.23L219.08 299.71L219.28 301.03L219.5 302.18L219.75 303.16L220.01 303.94L220.28 304.51L220.57 304.87L220.88 304.99L117.16 304.31L116.85 304.18L116.56 303.83L116.29 303.25L116.03 302.47L115.78 301.49L115.56 300.34L115.36 299.02L115.18 297.54L115.02 295.93L114.89 294.2L114.79 292.35L114.72 290.41L114.69 288.38L114.68 286.28L114.71 284.18L114.78 282.15L114.87 280.21L115 278.36L115.15 276.63L115.33 275.02L115.53 273.55L115.75 272.24L115.99 271.08L116.24 270.11L116.51 269.33L116.8 268.76L117.09 268.41L117.4 268.29L221.12 268.98L221.11 268.98Z" id="g55ioGtJVD"></path><linearGradient id="gradientfaVcTUZNHW" gradientUnits="userSpaceOnUse" x1="160.45" y1="304.59" x2="160.69" y2="268.58"><stop style="stop-color: #474b5a;stop-opacity: 1" offset="0%"></stop><stop style="stop-color: #707584;stop-opacity: 1" offset="100%"></stop></linearGradient><path d="M433.57 269.4L433.85 269.98L434.12 270.76L434.37 271.73L434.61 272.89L434.82 274.2L435.01 275.68L435.18 277.28L435.32 279.02L435.43 280.86L435.52 282.81L435.57 284.84L435.59 286.94L435.57 289.04L435.52 291.06L435.44 293.01L435.33 294.85L435.19 296.59L435.02 298.2L434.83 299.67L434.62 300.99L434.39 302.14L434.14 303.11L433.87 303.9L433.59 304.47L433.3 304.82L432.99 304.95L432.99 304.95L328.9 304.99L328.9 304.99L329.21 304.87L329.5 304.52L329.78 303.94L330.05 303.16L330.3 302.19L330.53 301.04L330.74 299.72L330.93 298.25L331.1 296.64L331.24 294.9L331.35 293.06L331.43 291.11L331.48 289.08L331.5 286.98L331.48 284.88L331.43 282.86L331.34 280.91L331.23 279.07L331.09 277.33L330.92 275.72L330.73 274.25L330.52 272.93L330.28 271.78L330.03 270.81L329.76 270.03L329.48 269.45L329.19 269.1L328.89 268.98L432.98 268.93L433.28 269.05L433.57 269.4Z" id="bkTr4hT0s"></path><linearGradient id="gradiente36fh0cnCH" gradientUnits="userSpaceOnUse" x1="389.54" y1="304.97" x2="389.53" y2="268.95"><stop style="stop-color: #474b5a;stop-opacity: 1" offset="0%"></stop><stop style="stop-color: #707584;stop-opacity: 1" offset="100%"></stop></linearGradient><path d="M304.23 341.76L304.95 341.36L305.79 340.81L306.74 340.12L307.79 339.28L308.92 338.32L310.12 337.24L311.39 336.05L312.72 334.76L314.08 333.38L315.48 331.91L316.9 330.36L318.3 328.8L319.62 327.26L320.86 325.76L322.02 324.31L323.08 322.93L324.03 321.62L324.87 320.4L325.6 319.28L326.2 318.27L326.66 317.37L326.98 316.61L327.16 316L327.17 315.53L327.03 315.24L405.45 386.19L405.45 386.19L405.59 386.49L405.58 386.95L405.4 387.57L405.08 388.33L404.62 389.22L404.02 390.24L403.29 391.36L402.45 392.58L401.49 393.89L400.44 395.27L399.28 396.72L398.04 398.21L396.72 399.75L395.32 401.32L393.9 402.87L392.5 404.34L391.14 405.72L389.81 407.01L388.54 408.2L387.34 409.28L386.21 410.24L385.16 411.08L384.21 411.77L383.37 412.32L382.65 412.72L382.05 412.96L381.59 413.02L381.28 412.9L381.28 412.9L302.86 341.94L303.17 342.06L303.63 342L304.23 341.76Z" id="b5n3A2iqwh"></path><linearGradient id="gradienta8clzqNsyU" gradientUnits="userSpaceOnUse" x1="348.55" y1="383.28" x2="372.71" y2="356.57"><stop style="stop-color: #474b5a;stop-opacity: 1" offset="0%"></stop><stop style="stop-color: #707584;stop-opacity: 1" offset="100%"></stop></linearGradient><path d="M378.19 168.46L378.78 168.69L379.5 169.09L380.34 169.63L381.3 170.32L382.35 171.15L383.48 172.1L384.7 173.17L385.98 174.34L387.32 175.62L388.7 176.99L390.12 178.44L391.56 179.97L392.97 181.52L394.32 183.04L395.58 184.52L396.75 185.95L397.83 187.31L398.81 188.6L399.67 189.81L400.42 190.91L401.04 191.91L401.52 192.79L401.86 193.54L402.05 194.15L402.08 194.61L401.95 194.9L401.95 194.9L327.37 264.16L327.51 263.87L327.48 263.41L327.29 262.8L326.95 262.05L326.46 261.17L325.85 260.17L325.1 259.07L324.24 257.86L323.26 256.57L322.18 255.21L321 253.78L319.74 252.3L318.4 250.78L316.98 249.23L315.54 247.7L314.12 246.25L312.74 244.88L311.4 243.6L310.12 242.43L308.91 241.36L307.77 240.41L306.72 239.58L305.77 238.89L304.93 238.35L304.21 237.95L303.61 237.72L303.16 237.65L302.86 237.76L377.44 168.51L377.74 168.39L378.19 168.46Z" id="c2GIlJErU"></path><linearGradient id="gradientbz3Bsiys2" gradientUnits="userSpaceOnUse" x1="346.31" y1="197.42" x2="370.82" y2="223.81"><stop style="stop-color: #474b5a;stop-opacity: 1" offset="0%"></stop><stop style="stop-color: #707584;stop-opacity: 1" offset="100%"></stop></linearGradient><path d="M246.58 238.17L245.86 238.57L245.02 239.11L244.07 239.8L243.02 240.62L241.88 241.57L240.66 242.63L239.37 243.8L238.03 245.07L236.63 246.43L235.2 247.87L233.75 249.38L232.32 250.92L230.96 252.43L229.69 253.89L228.49 255.31L227.4 256.66L226.41 257.94L225.53 259.13L224.77 260.22L224.14 261.21L223.64 262.08L223.29 262.82L223.08 263.42L223.04 263.87L223.17 264.16L151.78 196.69L151.78 196.69L151.65 196.4L151.69 195.96L151.9 195.36L152.25 194.62L152.75 193.75L153.38 192.76L154.14 191.66L155.02 190.47L156.01 189.19L157.11 187.84L158.3 186.42L159.57 184.96L160.93 183.45L162.36 181.91L163.82 180.4L165.24 178.96L166.64 177.6L167.98 176.33L169.27 175.16L170.49 174.1L171.63 173.15L172.68 172.33L173.63 171.65L174.47 171.1L175.19 170.71L175.78 170.47L176.23 170.4L176.52 170.51L247.91 237.98L247.61 237.87L247.17 237.94L246.58 238.17Z" id="aHuGtVhzz"></path><linearGradient id="gradientb6hxpH7jz2" gradientUnits="userSpaceOnUse" x1="206.32" y1="198.67" x2="181.58" y2="224.85"><stop style="stop-color: #474b5a;stop-opacity: 1" offset="0%"></stop><stop style="stop-color: #707584;stop-opacity: 1" offset="100%"></stop></linearGradient><path d="M171.48 415.51L171.02 415.46L170.41 415.25L169.67 414.88L168.8 414.37L167.83 413.71L166.75 412.92L165.58 412L164.34 410.97L163.02 409.83L161.65 408.59L160.23 407.26L158.78 405.84L157.3 404.35L155.84 402.84L154.46 401.35L153.16 399.9L151.96 398.5L150.85 397.16L149.84 395.89L148.96 394.7L148.19 393.61L147.55 392.62L147.06 391.74L146.71 390.99L146.51 390.38L146.48 389.92L146.61 389.61L222.73 315.24L222.6 315.54L222.63 316L222.83 316.61L223.18 317.36L223.67 318.24L224.31 319.23L225.08 320.32L225.96 321.51L226.97 322.78L228.08 324.12L229.28 325.52L230.58 326.97L231.96 328.46L233.42 329.98L234.9 331.46L236.35 332.88L237.77 334.21L239.14 335.45L240.46 336.59L241.7 337.62L242.87 338.54L243.95 339.33L244.93 339.99L245.79 340.5L246.53 340.87L247.14 341.08L247.6 341.13L247.91 341L171.79 415.38L171.79 415.38L171.48 415.51Z" id="azilJLWzV"></path><linearGradient id="gradientgFCYHbYEg" gradientUnits="userSpaceOnUse" x1="203.56" y1="384.33" x2="178.39" y2="358.57"><stop style="stop-color: #474b5a;stop-opacity: 1" offset="0%"></stop><stop style="stop-color: #707584;stop-opacity: 1" offset="100%"></stop></linearGradient><path d="M481.17 245.31L553.64 245.31L553.64 333.54L481.17 333.54L481.17 245.31Z" id="c2nrqT33X6"></path><linearGradient id="gradientb3D37lZaTC" gradientUnits="userSpaceOnUse" x1="546.6" y1="249.34" x2="486.21" y2="333.54"><stop style="stop-color: #61689e;stop-opacity: 1" offset="0%"></stop><stop style="stop-color: #505576;stop-opacity: 1" offset="57.86673475392314%"></stop><stop style="stop-color: #434759;stop-opacity: 1" offset="100%"></stop></linearGradient><path d="M487.36 252.86L547.45 252.86L547.45 283.72L487.36 283.72L487.36 252.86Z" id="aMHHvvfMY"></path><linearGradient id="gradientc1dHR9mEWS" gradientUnits="userSpaceOnUse" x1="541.61" y1="254.27" x2="491.53" y2="283.72"><stop style="stop-color: #b4d9fb;stop-opacity: 1" offset="0%"></stop><stop style="stop-color: #6f93b4;stop-opacity: 1" offset="100%"></stop></linearGradient><path d="M505.98 298.66L512.22 298.66L512.22 304.88L505.98 304.88L505.98 298.66Z" id="a70KH4B3nc"></path><linearGradient id="gradientc7cHKtmCL" gradientUnits="userSpaceOnUse" x1="511.62" y1="298.94" x2="506.42" y2="304.88"><stop style="stop-color: #b4d9fb;stop-opacity: 1" offset="0%"></stop><stop style="stop-color: #6f93b4;stop-opacity: 1" offset="100%"></stop></linearGradient><path d="M514.29 298.66L520.53 298.66L520.53 304.88L514.29 304.88L514.29 298.66Z" id="dKuk6SFab"></path><linearGradient id="gradientajOWyOwMD" gradientUnits="userSpaceOnUse" x1="519.92" y1="298.94" x2="514.72" y2="304.88"><stop style="stop-color: #b4d9fb;stop-opacity: 1" offset="0%"></stop><stop style="stop-color: #6f93b4;stop-opacity: 1" offset="100%"></stop></linearGradient><path d="M522.67 298.66L528.92 298.66L528.92 304.88L522.67 304.88L522.67 298.66Z" id="d27KP2l4lV"></path><linearGradient id="gradientd2Kl07kWTH" gradientUnits="userSpaceOnUse" x1="528.31" y1="298.94" x2="523.11" y2="304.88"><stop style="stop-color: #b4d9fb;stop-opacity: 1" offset="0%"></stop><stop style="stop-color: #6f93b4;stop-opacity: 1" offset="100%"></stop></linearGradient><path d="M505.94 307.62L512.18 307.62L512.18 313.84L505.94 313.84L505.94 307.62Z" id="d2ilAp0tEO"></path><linearGradient id="gradientc5za6x6rz" gradientUnits="userSpaceOnUse" x1="511.58" y1="307.9" x2="506.37" y2="313.84"><stop style="stop-color: #b4d9fb;stop-opacity: 1" offset="0%"></stop><stop style="stop-color: #6f93b4;stop-opacity: 1" offset="100%"></stop></linearGradient><path d="M514.24 307.62L520.49 307.62L520.49 313.84L514.24 313.84L514.24 307.62Z" id="b2Pvo2eEUS"></path><linearGradient id="gradienta1LJCgfiLf" gradientUnits="userSpaceOnUse" x1="519.88" y1="307.9" x2="514.68" y2="313.84"><stop style="stop-color: #b4d9fb;stop-opacity: 1" offset="0%"></stop><stop style="stop-color: #6f93b4;stop-opacity: 1" offset="100%"></stop></linearGradient><path d="M522.63 307.62L528.87 307.62L528.87 313.84L522.63 313.84L522.63 307.62Z" id="bM70s6eW"></path><linearGradient id="gradientb70mG6cgMp" gradientUnits="userSpaceOnUse" x1="528.27" y1="307.9" x2="523.06" y2="313.84"><stop style="stop-color: #b4d9fb;stop-opacity: 1" offset="0%"></stop><stop style="stop-color: #6f93b4;stop-opacity: 1" offset="100%"></stop></linearGradient><path d="M505.98 316.01L512.22 316.01L512.22 322.22L505.98 322.22L505.98 316.01Z" id="b11aMfMyj6"></path><linearGradient id="gradientb5VU1aL40N" gradientUnits="userSpaceOnUse" x1="511.62" y1="316.29" x2="506.42" y2="322.22"><stop style="stop-color: #b4d9fb;stop-opacity: 1" offset="0%"></stop><stop style="stop-color: #6f93b4;stop-opacity: 1" offset="100%"></stop></linearGradient><path d="M514.29 316.01L520.53 316.01L520.53 322.22L514.29 322.22L514.29 316.01Z" id="d4pprmWRrh"></path><linearGradient id="gradientb1svJhSiI7" gradientUnits="userSpaceOnUse" x1="519.92" y1="316.29" x2="514.72" y2="322.22"><stop style="stop-color: #b4d9fb;stop-opacity: 1" offset="0%"></stop><stop style="stop-color: #6f93b4;stop-opacity: 1" offset="100%"></stop></linearGradient><path d="M522.67 316.01L528.92 316.01L528.92 322.22L522.67 322.22L522.67 316.01Z" id="chCvdrU4M"></path><linearGradient id="gradientdVPnxS6oC" gradientUnits="userSpaceOnUse" x1="528.31" y1="316.29" x2="523.11" y2="322.22"><stop style="stop-color: #b4d9fb;stop-opacity: 1" offset="0%"></stop><stop style="stop-color: #6f93b4;stop-opacity: 1" offset="100%"></stop></linearGradient><path d="M528.92 286.25L537.17 286.25L537.17 294.47L528.92 294.47L528.92 286.25Z" id="a5Ab5RxdZ"></path><linearGradient id="gradientaaR57mZxhc" gradientUnits="userSpaceOnUse" x1="536.37" y1="286.62" x2="529.49" y2="294.47"><stop style="stop-color: #6fff79;stop-opacity: 1" offset="0%"></stop><stop style="stop-color: #2c9b00;stop-opacity: 1" offset="100%"></stop></linearGradient><path d="M539.2 286.25L547.45 286.25L547.45 294.47L539.2 294.47L539.2 286.25Z" id="aLrb50dZV"></path><linearGradient id="gradienta1kIKmjmjV" gradientUnits="userSpaceOnUse" x1="546.65" y1="286.62" x2="539.77" y2="294.47"><stop style="stop-color: #ff6f6f;stop-opacity: 1" offset="0%"></stop><stop style="stop-color: #9b0000;stop-opacity: 1" offset="100%"></stop></linearGradient></defs><g><g><g><use xlink:href="#c2zST4Xo7i" opacity="1" fill="url(#gradienta5wP20SyoG)"></use></g><g><use xlink:href="#a8jfbZq1f" opacity="1" fill="url(#gradientcXPeW07q)"></use></g><g><use xlink:href="#etLSvW5dN" opacity="1" fill="url(#gradienta1JDuhQSb)"></use></g><g><use xlink:href="#bdhBJq9Hp" opacity="1" fill="url(#gradienthoBlAfsVY)"></use></g><g><use xlink:href="#bgHWuXHFp" opacity="1" fill="url(#gradientacg2MSRTYr)"></use></g><g><use xlink:href="#bb4J3hPSM" opacity="1" fill="url(#gradientbgaZ8aKf3)"></use></g><g><use xlink:href="#dBNMKJNV2" opacity="1" fill="url(#gradientacv8c9RGJ)"></use></g><g><use xlink:href="#b1b2hgTBrc" opacity="1" fill="url(#gradienta10hd5QlSS)"></use></g><g><use xlink:href="#g55ioGtJVD" opacity="1" fill="url(#gradientfaVcTUZNHW)"></use></g><g><use xlink:href="#bkTr4hT0s" opacity="1" fill="url(#gradiente36fh0cnCH)"></use></g><g><use xlink:href="#b5n3A2iqwh" opacity="1" fill="url(#gradienta8clzqNsyU)"></use></g><g><use xlink:href="#c2GIlJErU" opacity="1" fill="url(#gradientbz3Bsiys2)"></use></g><g><use xlink:href="#aHuGtVhzz" opacity="1" fill="url(#gradientb6hxpH7jz2)"></use></g><g><use xlink:href="#azilJLWzV" opacity="1" fill="url(#gradientgFCYHbYEg)"></use></g><g><use xlink:href="#c2nrqT33X6" opacity="1" fill="url(#gradientb3D37lZaTC)"></use></g><g><use xlink:href="#aMHHvvfMY" opacity="1" fill="url(#gradientc1dHR9mEWS)"></use></g><g><use xlink:href="#a70KH4B3nc" opacity="1" fill="url(#gradientc7cHKtmCL)"></use></g><g><use xlink:href="#dKuk6SFab" opacity="1" fill="url(#gradientajOWyOwMD)"></use></g><g><use xlink:href="#d27KP2l4lV" opacity="1" fill="url(#gradientd2Kl07kWTH)"></use></g><g><use xlink:href="#d2ilAp0tEO" opacity="1" fill="url(#gradientc5za6x6rz)"></use></g><g><use xlink:href="#b2Pvo2eEUS" opacity="1" fill="url(#gradienta1LJCgfiLf)"></use></g><g><use xlink:href="#bM70s6eW" opacity="1" fill="url(#gradientb70mG6cgMp)"></use></g><g><use xlink:href="#b11aMfMyj6" opacity="1" fill="url(#gradientb5VU1aL40N)"></use></g><g><use xlink:href="#d4pprmWRrh" opacity="1" fill="url(#gradientb1svJhSiI7)"></use></g><g><use xlink:href="#chCvdrU4M" opacity="1" fill="url(#gradientdVPnxS6oC)"></use></g><g><use xlink:href="#a5Ab5RxdZ" opacity="1" fill="url(#gradientaaR57mZxhc)"></use></g><g><use xlink:href="#aLrb50dZV" opacity="1" fill="url(#gradienta1kIKmjmjV)"></use></g></g></g></svg>