<?xml version="1.0" encoding="UTF-8" standalone="no"?>
<!DOCTYPE svg PUBLIC "-//W3C//DTD SVG 1.1//EN" "http://www.w3.org/Graphics/SVG/1.1/DTD/svg11.dtd">
<svg version="1.1" xmlns="http://www.w3.org/2000/svg" xmlns:xlink="http://www.w3.org/1999/xlink" preserveAspectRatio="xMidYMid meet" viewBox="0 0 640 640" width="640" height="640"><defs><path d="M448.58 295.92C448.58 362.18 394.79 415.97 328.53 415.97C262.27 415.97 208.48 362.18 208.48 295.92C208.48 229.66 262.27 175.87 328.53 175.87C394.79 175.87 448.58 229.66 448.58 295.92Z" id="c4k9aUJ8k"></path><linearGradient id="gradientcNO9HcopG" gradientUnits="userSpaceOnUse" x1="328.53" y1="175.87" x2="328.53" y2="415.97"><stop style="stop-color: #7284ff;stop-opacity: 1" offset="0%"></stop><stop style="stop-color: #0057ff;stop-opacity: 1" offset="100%"></stop></linearGradient><path d="M604.62 347.09C611.65 342.32 611.86 332.03 605.03 326.97C551.45 287.28 519.58 263.67 494.72 245.26C400.09 175.16 271.75 171.66 173.44 236.48C142.85 256.65 95.32 287.99 34.86 327.85C28.19 332.25 28.39 342.09 35.22 346.23C95.61 382.72 122.59 399.03 148.12 414.46C263.32 484.08 408.52 480.25 519.88 404.63C539.71 391.17 551.12 383.42 604.62 347.09Z" id="b3ufrlFOeG"></path></defs><g><g><g><use xlink:href="#c4k9aUJ8k" opacity="1" fill="url(#gradientcNO9HcopG)"></use></g><g><g><use xlink:href="#b3ufrlFOeG" opacity="1" fill-opacity="0" stroke="#0057ff" stroke-width="55" stroke-opacity="1"></use></g></g></g></g></svg>