<?xml version="1.0" encoding="UTF-8" standalone="no"?>
<!DOCTYPE svg PUBLIC "-//W3C//DTD SVG 1.1//EN" "http://www.w3.org/Graphics/SVG/1.1/DTD/svg11.dtd">
<svg version="1.1" xmlns="http://www.w3.org/2000/svg" xmlns:xlink="http://www.w3.org/1999/xlink" preserveAspectRatio="xMidYMid meet" viewBox="0 0 640 640" width="640" height="640"><defs><path d="M344.04 27.64L355.87 28.84L367.55 30.51L379.09 32.63L390.46 35.2L401.66 38.2L412.67 41.63L423.5 45.48L434.13 49.73L444.55 54.39L454.76 59.43L464.73 64.85L474.47 70.64L483.96 76.79L493.19 83.29L502.16 90.14L510.85 97.31L519.26 104.81L527.38 112.62L535.19 120.74L542.69 129.15L549.86 137.84L556.71 146.81L563.21 156.04L569.36 165.53L575.15 175.27L580.57 185.24L585.61 195.45L590.27 205.87L594.52 216.5L598.37 227.33L601.8 238.34L604.8 249.54L607.37 260.91L609.49 272.45L611.16 284.13L612.36 295.96L613.09 307.92L613.33 320L613.09 332.08L612.36 344.04L611.16 355.87L609.49 367.55L607.37 379.09L604.8 390.46L601.8 401.66L598.37 412.67L594.52 423.5L590.27 434.13L585.61 444.55L580.57 454.76L575.15 464.73L569.36 474.47L563.21 483.96L556.71 493.19L549.86 502.16L542.69 510.85L535.19 519.26L527.38 527.38L519.26 535.19L510.85 542.69L502.16 549.86L493.19 556.71L483.96 563.21L474.47 569.36L464.73 575.15L454.76 580.57L444.55 585.61L434.13 590.27L423.5 594.52L412.67 598.37L401.66 601.8L390.46 604.8L379.09 607.37L367.55 609.49L355.87 611.16L344.04 612.36L332.08 613.09L320 613.33L307.92 613.09L295.96 612.36L284.13 611.16L272.45 609.49L260.91 607.37L249.54 604.8L238.34 601.8L227.33 598.37L216.5 594.52L205.87 590.27L195.45 585.61L185.24 580.57L175.27 575.15L165.53 569.36L156.04 563.21L146.81 556.71L137.84 549.86L129.15 542.69L120.74 535.19L112.62 527.38L104.81 519.26L97.31 510.85L90.14 502.16L83.29 493.19L76.79 483.96L70.64 474.47L64.85 464.73L59.43 454.76L54.39 444.55L49.73 434.13L45.48 423.5L41.63 412.67L38.2 401.66L35.2 390.46L32.63 379.09L30.51 367.55L28.84 355.87L27.64 344.04L26.91 332.08L26.67 320L26.91 307.92L27.64 295.96L28.84 284.13L30.51 272.45L32.63 260.91L35.2 249.54L38.2 238.34L41.63 227.33L45.48 216.5L49.73 205.87L54.39 195.45L59.43 185.24L64.85 175.27L70.64 165.53L76.79 156.04L83.29 146.81L90.14 137.84L97.31 129.15L104.81 120.74L112.62 112.62L120.74 104.81L129.15 97.31L137.84 90.14L146.81 83.29L156.04 76.79L165.53 70.64L175.27 64.85L185.24 59.43L195.45 54.39L205.87 49.73L216.5 45.48L227.33 41.63L238.34 38.2L249.54 35.2L260.91 32.63L272.45 30.51L284.13 28.84L295.96 27.64L307.92 26.91L320 26.67L332.08 26.91L344.04 27.64ZM318.22 139.75L317.36 139.82L316.5 139.92L315.64 140.05L314.79 140.2L313.94 140.39L313.1 140.6L312.27 140.85L311.44 141.12L310.62 141.43L309.8 141.76L309 142.12L308.21 142.51L307.43 142.93L306.65 143.37L305.9 143.85L305.15 144.36L304.42 144.89L303.7 145.46L297.38 150.63L296.45 151.37L295.52 152.1L294.59 152.83L293.64 153.54L292.69 154.24L291.73 154.93L290.76 155.6L289.78 156.27L288.8 156.93L287.81 157.57L286.82 158.2L285.81 158.82L284.8 159.43L283.79 160.03L282.76 160.61L281.73 161.19L280.7 161.75L279.66 162.3L278.61 162.84L277.56 163.37L276.5 163.88L275.43 164.38L274.36 164.87L273.28 165.35L272.2 165.82L271.11 166.27L270.02 166.71L268.92 167.14L267.82 167.56L266.71 167.97L265.6 168.36L264.48 168.74L263.36 169.1L262.23 169.46L261.1 169.8L259.96 170.13L258.82 170.45L257.68 170.75L256.53 171.04L255.38 171.32L170.82 191.17L170.47 191.26L170.13 191.36L169.79 191.47L169.46 191.59L169.14 191.73L168.82 191.88L168.51 192.03L168.21 192.2L167.91 192.38L167.62 192.57L167.34 192.77L167.07 192.97L166.81 193.19L166.55 193.41L166.3 193.65L166.06 193.89L165.83 194.14L165.61 194.4L165.4 194.66L165.2 194.94L165 195.21L164.82 195.5L164.65 195.79L164.49 196.09L164.34 196.4L164.19 196.71L164.06 197.02L163.94 197.34L163.84 197.67L163.74 198L163.65 198.33L163.58 198.67L163.52 199.01L163.47 199.35L163.43 199.7L163.41 200.05L163.4 200.4L163.4 200.76L163.42 201.12L163.45 201.48L172.3 291.68L172.64 294.89L173.01 298.1L173.42 301.3L173.86 304.49L174.34 307.68L174.86 310.86L175.42 314.03L176.01 317.19L176.64 320.35L177.31 323.49L178.01 326.63L178.75 329.76L179.53 332.88L180.34 335.98L181.18 339.08L182.06 342.17L182.98 345.25L183.94 348.31L184.93 351.37L185.95 354.41L187.01 357.44L188.1 360.46L189.23 363.46L190.4 366.45L191.6 369.43L192.83 372.4L194.1 375.35L195.4 378.28L196.74 381.21L198.11 384.11L199.52 387.01L200.96 389.88L202.43 392.74L203.94 395.59L205.49 398.42L207.06 401.23L208.67 404.02L210.31 406.8L211.99 409.56L213.7 412.3L214.79 413.99L215.9 415.67L217.04 417.32L218.2 418.95L219.39 420.56L220.6 422.16L221.84 423.73L223.1 425.28L224.38 426.81L225.69 428.31L227.02 429.8L228.37 431.26L229.75 432.7L231.15 434.12L232.56 435.52L234 436.89L235.47 438.24L236.95 439.57L238.45 440.87L239.97 442.15L241.52 443.4L243.08 444.63L244.66 445.84L246.26 447.02L247.88 448.17L249.52 449.3L251.18 450.41L252.85 451.49L254.55 452.54L256.26 453.57L257.98 454.56L259.73 455.54L261.49 456.48L263.26 457.4L265.05 458.29L266.86 459.15L268.69 459.99L270.52 460.8L272.38 461.57L274.25 462.32L284.98 466.53L286.67 467.17L288.36 467.78L290.07 468.35L291.78 468.89L293.5 469.39L295.22 469.86L296.96 470.3L298.69 470.7L300.44 471.06L302.19 471.4L303.94 471.69L305.7 471.96L307.46 472.18L309.22 472.38L310.99 472.54L312.76 472.66L314.53 472.75L316.3 472.81L318.07 472.83L319.85 472.82L321.62 472.77L323.39 472.69L325.15 472.58L326.92 472.43L328.68 472.25L330.44 472.03L332.2 471.78L333.95 471.49L335.7 471.17L337.45 470.82L339.18 470.43L340.91 470L342.64 469.55L344.36 469.05L346.07 468.53L347.77 467.97L349.46 467.37L351.14 466.75L352.82 466.08L354.48 465.39L356.54 464.48L358.59 463.55L360.62 462.59L362.63 461.61L364.63 460.59L366.61 459.55L368.58 458.49L370.53 457.39L372.46 456.27L374.38 455.13L376.28 453.95L378.16 452.76L380.03 451.53L381.88 450.28L383.71 449.01L385.52 447.71L387.31 446.39L389.09 445.04L390.84 443.67L392.58 442.27L394.3 440.85L395.99 439.4L397.67 437.94L399.33 436.45L400.96 434.93L402.58 433.39L404.17 431.83L405.75 430.25L407.3 428.65L408.83 427.02L410.33 425.37L411.82 423.7L413.28 422.01L414.72 420.3L416.14 418.57L417.54 416.81L418.91 415.04L420.25 413.24L421.58 411.42L422.87 409.59L424.64 407.02L426.37 404.43L428.06 401.83L429.73 399.2L431.35 396.56L432.95 393.89L434.51 391.21L436.03 388.51L437.52 385.79L438.97 383.06L440.39 380.31L441.77 377.54L443.12 374.75L444.44 371.95L445.71 369.13L446.95 366.3L448.16 363.45L449.33 360.59L450.46 357.72L451.56 354.83L452.62 351.92L453.64 349.01L454.63 346.08L455.58 343.13L456.49 340.18L457.37 337.21L458.21 334.24L459.01 331.25L459.78 328.25L460.5 325.24L461.19 322.22L461.84 319.19L462.46 316.15L463.03 313.1L463.57 310.04L464.07 306.98L464.53 303.9L464.95 300.82L465.33 297.73L465.68 294.64L475.56 200.26L475.59 199.96L475.6 199.65L475.61 199.35L475.6 199.05L475.58 198.75L475.55 198.45L475.51 198.15L475.46 197.86L475.4 197.57L475.33 197.29L475.25 197.01L475.16 196.73L475.05 196.45L474.94 196.18L474.82 195.92L474.7 195.66L474.56 195.4L474.41 195.15L474.26 194.91L474.09 194.67L473.92 194.43L473.74 194.21L473.55 193.99L473.36 193.77L473.15 193.57L472.94 193.36L472.72 193.17L472.5 192.99L472.27 192.81L472.03 192.64L471.78 192.48L471.53 192.33L471.27 192.18L471 192.05L470.73 191.92L470.46 191.8L470.17 191.7L469.89 191.6L469.59 191.51L469.29 191.44L384.69 171.5L383.51 171.21L382.33 170.91L381.15 170.6L379.98 170.27L378.81 169.93L377.65 169.58L376.49 169.21L375.34 168.83L374.19 168.44L373.04 168.03L371.91 167.61L370.77 167.18L369.64 166.74L368.52 166.28L367.4 165.81L366.29 165.33L365.19 164.83L364.09 164.32L362.99 163.8L361.91 163.27L360.83 162.72L359.75 162.17L358.68 161.6L357.62 161.01L356.56 160.42L355.51 159.81L354.47 159.19L353.44 158.56L352.41 157.92L351.39 157.26L350.37 156.6L349.37 155.92L348.37 155.23L347.38 154.53L346.39 153.81L345.42 153.09L344.45 152.35L343.49 151.6L342.54 150.84L341.6 150.07L336.15 145.56L335.43 144.99L334.71 144.45L333.96 143.94L333.21 143.46L332.44 143.01L331.66 142.58L330.87 142.19L330.07 141.82L329.26 141.48L328.44 141.18L327.61 140.9L326.78 140.65L325.94 140.43L325.09 140.24L324.24 140.07L323.39 139.94L322.53 139.84L321.67 139.76L320.81 139.71L319.94 139.7L319.08 139.71L318.22 139.75Z" id="b1w6qKan0h"></path><linearGradient id="gradientawV7uLzWU" gradientUnits="userSpaceOnUse" x1="467" y1="75.67" x2="161" y2="559.33"><stop style="stop-color: #7a8bff;stop-opacity: 1" offset="0%"></stop><stop style="stop-color: #2b4eff;stop-opacity: 1" offset="100%"></stop></linearGradient></defs><g><g><g><use xlink:href="#b1w6qKan0h" opacity="1" fill="url(#gradientawV7uLzWU)"></use></g></g></g></svg>