<?xml version="1.0" encoding="UTF-8" standalone="no"?>
<!DOCTYPE svg PUBLIC "-//W3C//DTD SVG 1.1//EN" "http://www.w3.org/Graphics/SVG/1.1/DTD/svg11.dtd">
<svg version="1.1" xmlns="http://www.w3.org/2000/svg" xmlns:xlink="http://www.w3.org/1999/xlink" preserveAspectRatio="xMidYMid meet" viewBox="0 0 640 640" width="640" height="640"><defs><path d="M602.58 315.12C602.58 471.08 475.96 597.69 320 597.69C164.04 597.69 37.42 471.08 37.42 315.12C37.42 159.16 164.04 32.54 320 32.54C475.96 32.54 602.58 159.16 602.58 315.12Z" id="a2qhLLjLo"></path><path d="M306.43 257.81C307.24 257.81 307.89 258.47 307.89 259.28C307.89 282.36 307.89 350.14 307.89 373.22C307.89 374.03 307.24 374.69 306.43 374.69C294.14 374.69 258.74 374.69 246.45 374.69C245.64 374.69 244.98 374.03 244.98 373.22C244.98 350.14 244.98 282.36 244.98 259.28C244.98 258.47 245.64 257.81 246.45 257.81C258.74 257.81 294.14 257.81 306.43 257.81Z" id="b2BLtq2VB"></path><linearGradient id="gradientaztbwublv" gradientUnits="userSpaceOnUse" x1="276.44" y1="257.81" x2="276.44" y2="372.46"><stop style="stop-color: #ec9696;stop-opacity: 1" offset="0%"></stop><stop style="stop-color: #8a6863;stop-opacity: 1" offset="100%"></stop></linearGradient><path d="M253.84 148.86C255.48 148.86 256.81 150.19 256.81 151.83C256.81 198.58 256.81 335.86 256.81 382.62C256.81 384.26 255.48 385.58 253.84 385.58C228.95 385.58 157.24 385.58 132.35 385.58C130.71 385.58 129.39 384.26 129.39 382.62C129.39 335.86 129.39 198.58 129.39 151.83C129.39 150.19 130.71 148.86 132.35 148.86C157.24 148.86 228.95 148.86 253.84 148.86Z" id="g9LiH6DbH"></path><linearGradient id="gradienthY1bUalw" gradientUnits="userSpaceOnUse" x1="193.1" y1="148.86" x2="193.1" y2="385.58"><stop style="stop-color: #ffb6b6;stop-opacity: 1" offset="0%"></stop><stop style="stop-color: #ef8383;stop-opacity: 1" offset="100%"></stop></linearGradient><path d="M164.13 160.65C164.5 160.65 164.79 160.95 164.79 161.31C164.79 165.16 164.79 176.03 164.79 179.88C164.79 180.24 164.5 180.54 164.13 180.54C160.4 180.54 149.86 180.54 146.13 180.54C145.77 180.54 145.47 180.24 145.47 179.88C145.47 176.03 145.47 165.16 145.47 161.31C145.47 160.95 145.77 160.65 146.13 160.65C149.86 160.65 160.4 160.65 164.13 160.65Z" id="g16MMbvdCa"></path><linearGradient id="gradientb3F1mEIcFk" gradientUnits="userSpaceOnUse" x1="163.7" y1="160.84" x2="145.47" y2="180.11"><stop style="stop-color: #fffffc;stop-opacity: 1" offset="0%"></stop><stop style="stop-color: #fff900;stop-opacity: 1" offset="100%"></stop></linearGradient><path d="M189.49 160.65C189.85 160.65 190.15 160.95 190.15 161.31C190.15 165.16 190.15 176.03 190.15 179.88C190.15 180.24 189.85 180.54 189.49 180.54C185.76 180.54 175.22 180.54 171.48 180.54C171.12 180.54 170.83 180.24 170.83 179.88C170.83 176.03 170.83 165.16 170.83 161.31C170.83 160.95 171.12 160.65 171.48 160.65C175.22 160.65 185.76 160.65 189.49 160.65Z" id="b10Nvi3YnB"></path><linearGradient id="gradienta4TASvYCh" gradientUnits="userSpaceOnUse" x1="189.05" y1="160.84" x2="170.83" y2="180.11"><stop style="stop-color: #fffffc;stop-opacity: 1" offset="0%"></stop><stop style="stop-color: #fff900;stop-opacity: 1" offset="100%"></stop></linearGradient><path d="M214.82 160.65C215.19 160.65 215.48 160.95 215.48 161.31C215.48 165.16 215.48 176.03 215.48 179.88C215.48 180.24 215.19 180.54 214.82 180.54C211.09 180.54 200.55 180.54 196.82 180.54C196.46 180.54 196.16 180.24 196.16 179.88C196.16 176.03 196.16 165.16 196.16 161.31C196.16 160.95 196.46 160.65 196.82 160.65C200.55 160.65 211.09 160.65 214.82 160.65Z" id="d3jnifYvya"></path><linearGradient id="gradienta4qz4GJKoR" gradientUnits="userSpaceOnUse" x1="214.39" y1="160.84" x2="196.16" y2="180.11"><stop style="stop-color: #fffffc;stop-opacity: 1" offset="0%"></stop><stop style="stop-color: #fff900;stop-opacity: 1" offset="100%"></stop></linearGradient><path d="M240.17 160.65C240.53 160.65 240.83 160.95 240.83 161.31C240.83 165.16 240.83 176.03 240.83 179.88C240.83 180.24 240.53 180.54 240.17 180.54C236.44 180.54 225.9 180.54 222.16 180.54C221.8 180.54 221.5 180.24 221.5 179.88C221.5 176.03 221.5 165.16 221.5 161.31C221.5 160.95 221.8 160.65 222.16 160.65C225.9 160.65 236.44 160.65 240.17 160.65Z" id="a2gAGiwEvI"></path><linearGradient id="gradientc6Yxn9ssG" gradientUnits="userSpaceOnUse" x1="239.73" y1="160.84" x2="221.5" y2="180.11"><stop style="stop-color: #fffffc;stop-opacity: 1" offset="0%"></stop><stop style="stop-color: #fff900;stop-opacity: 1" offset="100%"></stop></linearGradient><path d="M164.08 186C164.45 186 164.74 186.29 164.74 186.66C164.74 190.5 164.74 201.38 164.74 205.22C164.74 205.59 164.45 205.88 164.08 205.88C160.35 205.88 149.81 205.88 146.08 205.88C145.71 205.88 145.42 205.59 145.42 205.22C145.42 201.38 145.42 190.5 145.42 186.66C145.42 186.29 145.71 186 146.08 186C149.81 186 160.35 186 164.08 186Z" id="fDy74t8VJ"></path><linearGradient id="gradientd1lZn734WJ" gradientUnits="userSpaceOnUse" x1="163.64" y1="186.18" x2="145.42" y2="205.45"><stop style="stop-color: #fffffc;stop-opacity: 1" offset="0%"></stop><stop style="stop-color: #fff900;stop-opacity: 1" offset="100%"></stop></linearGradient><path d="M189.44 186C189.8 186 190.1 186.29 190.1 186.66C190.1 190.5 190.1 201.38 190.1 205.22C190.1 205.59 189.8 205.88 189.44 205.88C185.7 205.88 175.17 205.88 171.43 205.88C171.07 205.88 170.77 205.59 170.77 205.22C170.77 201.38 170.77 190.5 170.77 186.66C170.77 186.29 171.07 186 171.43 186C175.17 186 185.7 186 189.44 186Z" id="b1939TVtwW"></path><linearGradient id="gradientb4iOxY4Ml" gradientUnits="userSpaceOnUse" x1="189" y1="186.18" x2="170.77" y2="205.45"><stop style="stop-color: #fffffc;stop-opacity: 1" offset="0%"></stop><stop style="stop-color: #fff900;stop-opacity: 1" offset="100%"></stop></linearGradient><path d="M214.77 186C215.14 186 215.43 186.29 215.43 186.66C215.43 190.5 215.43 201.38 215.43 205.22C215.43 205.59 215.14 205.88 214.77 205.88C211.04 205.88 200.5 205.88 196.77 205.88C196.4 205.88 196.11 205.59 196.11 205.22C196.11 201.38 196.11 190.5 196.11 186.66C196.11 186.29 196.4 186 196.77 186C200.5 186 211.04 186 214.77 186Z" id="a304vAQwo"></path><linearGradient id="gradientg21KZ1hOhT" gradientUnits="userSpaceOnUse" x1="214.33" y1="186.18" x2="196.11" y2="205.45"><stop style="stop-color: #fffffc;stop-opacity: 1" offset="0%"></stop><stop style="stop-color: #fff900;stop-opacity: 1" offset="100%"></stop></linearGradient><path d="M240.12 186C240.48 186 240.78 186.29 240.78 186.66C240.78 190.5 240.78 201.38 240.78 205.22C240.78 205.59 240.48 205.88 240.12 205.88C236.38 205.88 225.85 205.88 222.11 205.88C221.75 205.88 221.45 205.59 221.45 205.22C221.45 201.38 221.45 190.5 221.45 186.66C221.45 186.29 221.75 186 222.11 186C225.85 186 236.38 186 240.12 186Z" id="adtV2YTkr"></path><linearGradient id="gradientcefZhcU83" gradientUnits="userSpaceOnUse" x1="239.68" y1="186.18" x2="221.45" y2="205.45"><stop style="stop-color: #fffffc;stop-opacity: 1" offset="0%"></stop><stop style="stop-color: #fff900;stop-opacity: 1" offset="100%"></stop></linearGradient><path d="M164.08 211.92C164.45 211.92 164.74 212.21 164.74 212.58C164.74 216.42 164.74 227.3 164.74 231.14C164.74 231.51 164.45 231.8 164.08 231.8C160.35 231.8 149.81 231.8 146.08 231.8C145.71 231.8 145.42 231.51 145.42 231.14C145.42 227.3 145.42 216.42 145.42 212.58C145.42 212.21 145.71 211.92 146.08 211.92C149.81 211.92 160.35 211.92 164.08 211.92Z" id="c3kx69ATy"></path><linearGradient id="gradientb9DL6CcZx" gradientUnits="userSpaceOnUse" x1="163.64" y1="212.1" x2="145.42" y2="231.37"><stop style="stop-color: #fffffc;stop-opacity: 1" offset="0%"></stop><stop style="stop-color: #fff900;stop-opacity: 1" offset="100%"></stop></linearGradient><path d="M189.44 211.92C189.8 211.92 190.1 212.21 190.1 212.58C190.1 216.42 190.1 227.3 190.1 231.14C190.1 231.51 189.8 231.8 189.44 231.8C185.7 231.8 175.17 231.8 171.43 231.8C171.07 231.8 170.77 231.51 170.77 231.14C170.77 227.3 170.77 216.42 170.77 212.58C170.77 212.21 171.07 211.92 171.43 211.92C175.17 211.92 185.7 211.92 189.44 211.92Z" id="ePKVdh8g"></path><linearGradient id="gradientc1jsGo61fY" gradientUnits="userSpaceOnUse" x1="189" y1="212.1" x2="170.77" y2="231.37"><stop style="stop-color: #fffffc;stop-opacity: 1" offset="0%"></stop><stop style="stop-color: #fff900;stop-opacity: 1" offset="100%"></stop></linearGradient><path d="M214.77 211.92C215.14 211.92 215.43 212.21 215.43 212.58C215.43 216.42 215.43 227.3 215.43 231.14C215.43 231.51 215.14 231.8 214.77 231.8C211.04 231.8 200.5 231.8 196.77 231.8C196.4 231.8 196.11 231.51 196.11 231.14C196.11 227.3 196.11 216.42 196.11 212.58C196.11 212.21 196.4 211.92 196.77 211.92C200.5 211.92 211.04 211.92 214.77 211.92Z" id="a3eAmjEfsg"></path><linearGradient id="gradienta6X9kYgkPY" gradientUnits="userSpaceOnUse" x1="214.33" y1="212.1" x2="196.11" y2="231.37"><stop style="stop-color: #fffffc;stop-opacity: 1" offset="0%"></stop><stop style="stop-color: #fff900;stop-opacity: 1" offset="100%"></stop></linearGradient><path d="M240.12 211.92C240.48 211.92 240.78 212.21 240.78 212.58C240.78 216.42 240.78 227.3 240.78 231.14C240.78 231.51 240.48 231.8 240.12 231.8C236.38 231.8 225.85 231.8 222.11 231.8C221.75 231.8 221.45 231.51 221.45 231.14C221.45 227.3 221.45 216.42 221.45 212.58C221.45 212.21 221.75 211.92 222.11 211.92C225.85 211.92 236.38 211.92 240.12 211.92Z" id="c4ctTDsX8v"></path><linearGradient id="gradienta15yKaOauv" gradientUnits="userSpaceOnUse" x1="239.68" y1="212.1" x2="221.45" y2="231.37"><stop style="stop-color: #fffffc;stop-opacity: 1" offset="0%"></stop><stop style="stop-color: #fff900;stop-opacity: 1" offset="100%"></stop></linearGradient><path d="M164.08 237.93C164.45 237.93 164.74 238.23 164.74 238.59C164.74 242.44 164.74 253.31 164.74 257.15C164.74 257.52 164.45 257.81 164.08 257.81C160.35 257.81 149.81 257.81 146.08 257.81C145.71 257.81 145.42 257.52 145.42 257.15C145.42 253.31 145.42 242.44 145.42 238.59C145.42 238.23 145.71 237.93 146.08 237.93C149.81 237.93 160.35 237.93 164.08 237.93Z" id="a3N8HLieP1"></path><linearGradient id="gradienta2qRIURa3d" gradientUnits="userSpaceOnUse" x1="163.64" y1="238.12" x2="145.42" y2="257.38"><stop style="stop-color: #fffffc;stop-opacity: 1" offset="0%"></stop><stop style="stop-color: #fff900;stop-opacity: 1" offset="100%"></stop></linearGradient><path d="M189.44 237.93C189.8 237.93 190.1 238.23 190.1 238.59C190.1 242.44 190.1 253.31 190.1 257.15C190.1 257.52 189.8 257.81 189.44 257.81C185.7 257.81 175.17 257.81 171.43 257.81C171.07 257.81 170.77 257.52 170.77 257.15C170.77 253.31 170.77 242.44 170.77 238.59C170.77 238.23 171.07 237.93 171.43 237.93C175.17 237.93 185.7 237.93 189.44 237.93Z" id="a40TdhZtc"></path><linearGradient id="gradientf3X3WMcCq" gradientUnits="userSpaceOnUse" x1="189" y1="238.12" x2="170.77" y2="257.38"><stop style="stop-color: #fffffc;stop-opacity: 1" offset="0%"></stop><stop style="stop-color: #fff900;stop-opacity: 1" offset="100%"></stop></linearGradient><path d="M214.77 237.93C215.14 237.93 215.43 238.23 215.43 238.59C215.43 242.44 215.43 253.31 215.43 257.15C215.43 257.52 215.14 257.81 214.77 257.81C211.04 257.81 200.5 257.81 196.77 257.81C196.4 257.81 196.11 257.52 196.11 257.15C196.11 253.31 196.11 242.44 196.11 238.59C196.11 238.23 196.4 237.93 196.77 237.93C200.5 237.93 211.04 237.93 214.77 237.93Z" id="a35kq9ahOR"></path><linearGradient id="gradientb2PPIRh8iU" gradientUnits="userSpaceOnUse" x1="214.33" y1="238.12" x2="196.11" y2="257.38"><stop style="stop-color: #fffffc;stop-opacity: 1" offset="0%"></stop><stop style="stop-color: #fff900;stop-opacity: 1" offset="100%"></stop></linearGradient><path d="M240.12 237.93C240.48 237.93 240.78 238.23 240.78 238.59C240.78 242.44 240.78 253.31 240.78 257.15C240.78 257.52 240.48 257.81 240.12 257.81C236.38 257.81 225.85 257.81 222.11 257.81C221.75 257.81 221.45 257.52 221.45 257.15C221.45 253.31 221.45 242.44 221.45 238.59C221.45 238.23 221.75 237.93 222.11 237.93C225.85 237.93 236.38 237.93 240.12 237.93Z" id="bAJAoaUqh"></path><linearGradient id="gradientf1Ao56VVPl" gradientUnits="userSpaceOnUse" x1="239.68" y1="238.12" x2="221.45" y2="257.38"><stop style="stop-color: #fffffc;stop-opacity: 1" offset="0%"></stop><stop style="stop-color: #fff900;stop-opacity: 1" offset="100%"></stop></linearGradient><path d="M164.13 263.56C164.5 263.56 164.79 263.86 164.79 264.22C164.79 268.07 164.79 278.94 164.79 282.79C164.79 283.15 164.5 283.45 164.13 283.45C160.4 283.45 149.86 283.45 146.13 283.45C145.77 283.45 145.47 283.15 145.47 282.79C145.47 278.94 145.47 268.07 145.47 264.22C145.47 263.86 145.77 263.56 146.13 263.56C149.86 263.56 160.4 263.56 164.13 263.56Z" id="arAeirrRu"></path><linearGradient id="gradienta6brNPrGA" gradientUnits="userSpaceOnUse" x1="163.7" y1="263.75" x2="145.47" y2="283.02"><stop style="stop-color: #fffffc;stop-opacity: 1" offset="0%"></stop><stop style="stop-color: #fff900;stop-opacity: 1" offset="100%"></stop></linearGradient><path d="M189.49 263.56C189.85 263.56 190.15 263.86 190.15 264.22C190.15 268.07 190.15 278.94 190.15 282.79C190.15 283.15 189.85 283.45 189.49 283.45C185.76 283.45 175.22 283.45 171.48 283.45C171.12 283.45 170.83 283.15 170.83 282.79C170.83 278.94 170.83 268.07 170.83 264.22C170.83 263.86 171.12 263.56 171.48 263.56C175.22 263.56 185.76 263.56 189.49 263.56Z" id="dpAulRNi3"></path><linearGradient id="gradientc1v6QI7RTA" gradientUnits="userSpaceOnUse" x1="189.05" y1="263.75" x2="170.83" y2="283.02"><stop style="stop-color: #fffffc;stop-opacity: 1" offset="0%"></stop><stop style="stop-color: #fff900;stop-opacity: 1" offset="100%"></stop></linearGradient><path d="M214.82 263.56C215.19 263.56 215.48 263.86 215.48 264.22C215.48 268.07 215.48 278.94 215.48 282.79C215.48 283.15 215.19 283.45 214.82 283.45C211.09 283.45 200.55 283.45 196.82 283.45C196.46 283.45 196.16 283.15 196.16 282.79C196.16 278.94 196.16 268.07 196.16 264.22C196.16 263.86 196.46 263.56 196.82 263.56C200.55 263.56 211.09 263.56 214.82 263.56Z" id="b2uuS0CZb"></path><linearGradient id="gradientc2bPAekhe4" gradientUnits="userSpaceOnUse" x1="214.39" y1="263.75" x2="196.16" y2="283.02"><stop style="stop-color: #fffffc;stop-opacity: 1" offset="0%"></stop><stop style="stop-color: #fff900;stop-opacity: 1" offset="100%"></stop></linearGradient><path d="M240.17 263.56C240.53 263.56 240.83 263.86 240.83 264.22C240.83 268.07 240.83 278.94 240.83 282.79C240.83 283.15 240.53 283.45 240.17 283.45C236.44 283.45 225.9 283.45 222.16 283.45C221.8 283.45 221.5 283.15 221.5 282.79C221.5 278.94 221.5 268.07 221.5 264.22C221.5 263.86 221.8 263.56 222.16 263.56C225.9 263.56 236.44 263.56 240.17 263.56Z" id="bIvPctFl6"></path><linearGradient id="gradientd396zqjNa8" gradientUnits="userSpaceOnUse" x1="239.73" y1="263.75" x2="221.5" y2="283.02"><stop style="stop-color: #fffffc;stop-opacity: 1" offset="0%"></stop><stop style="stop-color: #fff900;stop-opacity: 1" offset="100%"></stop></linearGradient><path d="M164.13 289.49C164.5 289.49 164.79 289.78 164.79 290.14C164.79 293.99 164.79 304.86 164.79 308.71C164.79 309.07 164.5 309.37 164.13 309.37C160.4 309.37 149.86 309.37 146.13 309.37C145.77 309.37 145.47 309.07 145.47 308.71C145.47 304.86 145.47 293.99 145.47 290.14C145.47 289.78 145.77 289.49 146.13 289.49C149.86 289.49 160.4 289.49 164.13 289.49Z" id="bvtf7rBul"></path><linearGradient id="gradientcomUM2TRB" gradientUnits="userSpaceOnUse" x1="163.7" y1="289.67" x2="145.47" y2="308.94"><stop style="stop-color: #fffffc;stop-opacity: 1" offset="0%"></stop><stop style="stop-color: #fff900;stop-opacity: 1" offset="100%"></stop></linearGradient><path d="M189.49 289.49C189.85 289.49 190.15 289.78 190.15 290.14C190.15 293.99 190.15 304.86 190.15 308.71C190.15 309.07 189.85 309.37 189.49 309.37C185.76 309.37 175.22 309.37 171.48 309.37C171.12 309.37 170.83 309.07 170.83 308.71C170.83 304.86 170.83 293.99 170.83 290.14C170.83 289.78 171.12 289.49 171.48 289.49C175.22 289.49 185.76 289.49 189.49 289.49Z" id="chqD2hzR"></path><linearGradient id="gradienta1I1kwWNUQ" gradientUnits="userSpaceOnUse" x1="189.05" y1="289.67" x2="170.83" y2="308.94"><stop style="stop-color: #fffffc;stop-opacity: 1" offset="0%"></stop><stop style="stop-color: #fff900;stop-opacity: 1" offset="100%"></stop></linearGradient><path d="M214.82 289.49C215.19 289.49 215.48 289.78 215.48 290.14C215.48 293.99 215.48 304.86 215.48 308.71C215.48 309.07 215.19 309.37 214.82 309.37C211.09 309.37 200.55 309.37 196.82 309.37C196.46 309.37 196.16 309.07 196.16 308.71C196.16 304.86 196.16 293.99 196.16 290.14C196.16 289.78 196.46 289.49 196.82 289.49C200.55 289.49 211.09 289.49 214.82 289.49Z" id="f3LXPOHtVR"></path><linearGradient id="gradientd1MuTkBrAP" gradientUnits="userSpaceOnUse" x1="214.39" y1="289.67" x2="196.16" y2="308.94"><stop style="stop-color: #fffffc;stop-opacity: 1" offset="0%"></stop><stop style="stop-color: #fff900;stop-opacity: 1" offset="100%"></stop></linearGradient><path d="M240.17 289.49C240.53 289.49 240.83 289.78 240.83 290.14C240.83 293.99 240.83 304.86 240.83 308.71C240.83 309.07 240.53 309.37 240.17 309.37C236.44 309.37 225.9 309.37 222.16 309.37C221.8 309.37 221.5 309.07 221.5 308.71C221.5 304.86 221.5 293.99 221.5 290.14C221.5 289.78 221.8 289.49 222.16 289.49C225.9 289.49 236.44 289.49 240.17 289.49Z" id="a28BQsqCbn"></path><linearGradient id="gradientdojf7uOOd" gradientUnits="userSpaceOnUse" x1="239.73" y1="289.67" x2="221.5" y2="308.94"><stop style="stop-color: #fffffc;stop-opacity: 1" offset="0%"></stop><stop style="stop-color: #fff900;stop-opacity: 1" offset="100%"></stop></linearGradient><path d="M164.13 315.12C164.5 315.12 164.79 315.41 164.79 315.78C164.79 319.62 164.79 330.5 164.79 334.34C164.79 334.71 164.5 335 164.13 335C160.4 335 149.86 335 146.13 335C145.77 335 145.47 334.71 145.47 334.34C145.47 330.5 145.47 319.62 145.47 315.78C145.47 315.41 145.77 315.12 146.13 315.12C149.86 315.12 160.4 315.12 164.13 315.12Z" id="e1AXbomMQF"></path><linearGradient id="gradientaT5GfVlP8" gradientUnits="userSpaceOnUse" x1="163.7" y1="315.3" x2="145.47" y2="334.57"><stop style="stop-color: #fffffc;stop-opacity: 1" offset="0%"></stop><stop style="stop-color: #fff900;stop-opacity: 1" offset="100%"></stop></linearGradient><path d="M189.49 315.12C189.85 315.12 190.15 315.41 190.15 315.78C190.15 319.62 190.15 330.5 190.15 334.34C190.15 334.71 189.85 335 189.49 335C185.76 335 175.22 335 171.48 335C171.12 335 170.83 334.71 170.83 334.34C170.83 330.5 170.83 319.62 170.83 315.78C170.83 315.41 171.12 315.12 171.48 315.12C175.22 315.12 185.76 315.12 189.49 315.12Z" id="bqGSdhf7q"></path><linearGradient id="gradientf2opCWJZu2" gradientUnits="userSpaceOnUse" x1="189.05" y1="315.3" x2="170.83" y2="334.57"><stop style="stop-color: #fffffc;stop-opacity: 1" offset="0%"></stop><stop style="stop-color: #fff900;stop-opacity: 1" offset="100%"></stop></linearGradient><path d="M214.82 315.12C215.19 315.12 215.48 315.41 215.48 315.78C215.48 319.62 215.48 330.5 215.48 334.34C215.48 334.71 215.19 335 214.82 335C211.09 335 200.55 335 196.82 335C196.46 335 196.16 334.71 196.16 334.34C196.16 330.5 196.16 319.62 196.16 315.78C196.16 315.41 196.46 315.12 196.82 315.12C200.55 315.12 211.09 315.12 214.82 315.12Z" id="b3Zm1lE0mQ"></path><linearGradient id="gradientb1zwvODOu" gradientUnits="userSpaceOnUse" x1="214.39" y1="315.3" x2="196.16" y2="334.57"><stop style="stop-color: #fffffc;stop-opacity: 1" offset="0%"></stop><stop style="stop-color: #fff900;stop-opacity: 1" offset="100%"></stop></linearGradient><path d="M240.17 315.12C240.53 315.12 240.83 315.41 240.83 315.78C240.83 319.62 240.83 330.5 240.83 334.34C240.83 334.71 240.53 335 240.17 335C236.44 335 225.9 335 222.16 335C221.8 335 221.5 334.71 221.5 334.34C221.5 330.5 221.5 319.62 221.5 315.78C221.5 315.41 221.8 315.12 222.16 315.12C225.9 315.12 236.44 315.12 240.17 315.12Z" id="ajoh52wWd"></path><linearGradient id="gradientb5TNrsRw" gradientUnits="userSpaceOnUse" x1="239.73" y1="315.3" x2="221.5" y2="334.57"><stop style="stop-color: #fffffc;stop-opacity: 1" offset="0%"></stop><stop style="stop-color: #fff900;stop-opacity: 1" offset="100%"></stop></linearGradient><path d="M164.13 339.89C164.5 339.89 164.79 340.18 164.79 340.55C164.79 344.39 164.79 355.27 164.79 359.11C164.79 359.47 164.5 359.77 164.13 359.77C160.4 359.77 149.86 359.77 146.13 359.77C145.77 359.77 145.47 359.47 145.47 359.11C145.47 355.27 145.47 344.39 145.47 340.55C145.47 340.18 145.77 339.89 146.13 339.89C149.86 339.89 160.4 339.89 164.13 339.89Z" id="p1jqWRh4GW"></path><linearGradient id="gradientc3WVA1sUFp" gradientUnits="userSpaceOnUse" x1="163.7" y1="340.07" x2="145.47" y2="359.34"><stop style="stop-color: #fffffc;stop-opacity: 1" offset="0%"></stop><stop style="stop-color: #fff900;stop-opacity: 1" offset="100%"></stop></linearGradient><path d="M189.49 339.89C189.85 339.89 190.15 340.18 190.15 340.55C190.15 344.39 190.15 355.27 190.15 359.11C190.15 359.47 189.85 359.77 189.49 359.77C185.76 359.77 175.22 359.77 171.48 359.77C171.12 359.77 170.83 359.47 170.83 359.11C170.83 355.27 170.83 344.39 170.83 340.55C170.83 340.18 171.12 339.89 171.48 339.89C175.22 339.89 185.76 339.89 189.49 339.89Z" id="bYDT3EyfV"></path><linearGradient id="gradientgd6Vxlokg" gradientUnits="userSpaceOnUse" x1="189.05" y1="340.07" x2="170.83" y2="359.34"><stop style="stop-color: #fffffc;stop-opacity: 1" offset="0%"></stop><stop style="stop-color: #fff900;stop-opacity: 1" offset="100%"></stop></linearGradient><path d="M214.82 339.89C215.19 339.89 215.48 340.18 215.48 340.55C215.48 344.39 215.48 355.27 215.48 359.11C215.48 359.47 215.19 359.77 214.82 359.77C211.09 359.77 200.55 359.77 196.82 359.77C196.46 359.77 196.16 359.47 196.16 359.11C196.16 355.27 196.16 344.39 196.16 340.55C196.16 340.18 196.46 339.89 196.82 339.89C200.55 339.89 211.09 339.89 214.82 339.89Z" id="csoDy6c50"></path><linearGradient id="gradientb3SMI89Sy" gradientUnits="userSpaceOnUse" x1="214.39" y1="340.07" x2="196.16" y2="359.34"><stop style="stop-color: #fffffc;stop-opacity: 1" offset="0%"></stop><stop style="stop-color: #fff900;stop-opacity: 1" offset="100%"></stop></linearGradient><path d="M240.17 339.89C240.53 339.89 240.83 340.18 240.83 340.55C240.83 344.39 240.83 355.27 240.83 359.11C240.83 359.47 240.53 359.77 240.17 359.77C236.44 359.77 225.9 359.77 222.16 359.77C221.8 359.77 221.5 359.47 221.5 359.11C221.5 355.27 221.5 344.39 221.5 340.55C221.5 340.18 221.8 339.89 222.16 339.89C225.9 339.89 236.44 339.89 240.17 339.89Z" id="axBDmkhiG"></path><linearGradient id="gradientc4C89antwS" gradientUnits="userSpaceOnUse" x1="239.73" y1="340.07" x2="221.5" y2="359.34"><stop style="stop-color: #fffffc;stop-opacity: 1" offset="0%"></stop><stop style="stop-color: #fff900;stop-opacity: 1" offset="100%"></stop></linearGradient><path d="M269.36 267.47C269.58 267.47 269.76 267.65 269.76 267.87C269.76 270.2 269.76 276.81 269.76 279.14C269.76 279.36 269.58 279.54 269.36 279.54C267.09 279.54 260.69 279.54 258.43 279.54C258.2 279.54 258.03 279.36 258.03 279.14C258.03 276.81 258.03 270.2 258.03 267.87C258.03 267.65 258.2 267.47 258.43 267.47C260.69 267.47 267.09 267.47 269.36 267.47Z" id="hUzNkdskB"></path><linearGradient id="gradienta43ouoaDl4" gradientUnits="userSpaceOnUse" x1="269.09" y1="267.58" x2="258.03" y2="279.28"><stop style="stop-color: #e4e4c6;stop-opacity: 1" offset="0%"></stop><stop style="stop-color: #c2be0e;stop-opacity: 1" offset="100%"></stop></linearGradient><path d="M284.75 267.47C284.97 267.47 285.15 267.65 285.15 267.87C285.15 270.2 285.15 276.81 285.15 279.14C285.15 279.36 284.97 279.54 284.75 279.54C282.48 279.54 276.08 279.54 273.81 279.54C273.59 279.54 273.41 279.36 273.41 279.14C273.41 276.81 273.41 270.2 273.41 267.87C273.41 267.65 273.59 267.47 273.81 267.47C276.08 267.47 282.48 267.47 284.75 267.47Z" id="a1kzbSc6x6"></path><linearGradient id="gradienta5cyBVT2DS" gradientUnits="userSpaceOnUse" x1="284.48" y1="267.58" x2="273.41" y2="279.28"><stop style="stop-color: #e4e4c6;stop-opacity: 1" offset="0%"></stop><stop style="stop-color: #c2be0e;stop-opacity: 1" offset="100%"></stop></linearGradient><path d="M300.14 267.47C300.36 267.47 300.54 267.65 300.54 267.87C300.54 270.2 300.54 276.81 300.54 279.14C300.54 279.36 300.36 279.54 300.14 279.54C297.87 279.54 291.47 279.54 289.21 279.54C288.99 279.54 288.81 279.36 288.81 279.14C288.81 276.81 288.81 270.2 288.81 267.87C288.81 267.65 288.99 267.47 289.21 267.47C291.47 267.47 297.87 267.47 300.14 267.47Z" id="aptappMil"></path><linearGradient id="gradienta77lSKodmJ" gradientUnits="userSpaceOnUse" x1="299.87" y1="267.58" x2="288.81" y2="279.28"><stop style="stop-color: #e4e4c6;stop-opacity: 1" offset="0%"></stop><stop style="stop-color: #c2be0e;stop-opacity: 1" offset="100%"></stop></linearGradient><path d="M269.36 283.02C269.58 283.02 269.76 283.2 269.76 283.42C269.76 285.76 269.76 292.36 269.76 294.7C269.76 294.92 269.58 295.1 269.36 295.1C267.09 295.1 260.69 295.1 258.43 295.1C258.2 295.1 258.03 294.92 258.03 294.7C258.03 292.36 258.03 285.76 258.03 283.42C258.03 283.2 258.2 283.02 258.43 283.02C260.69 283.02 267.09 283.02 269.36 283.02Z" id="b2jcVyOsR3"></path><linearGradient id="gradientc1qkEwyo9Q" gradientUnits="userSpaceOnUse" x1="269.09" y1="283.13" x2="258.03" y2="294.83"><stop style="stop-color: #e4e4c6;stop-opacity: 1" offset="0%"></stop><stop style="stop-color: #c2be0e;stop-opacity: 1" offset="100%"></stop></linearGradient><path d="M284.75 283.02C284.97 283.02 285.15 283.2 285.15 283.42C285.15 285.76 285.15 292.36 285.15 294.7C285.15 294.92 284.97 295.1 284.75 295.1C282.48 295.1 276.08 295.1 273.81 295.1C273.59 295.1 273.41 294.92 273.41 294.7C273.41 292.36 273.41 285.76 273.41 283.42C273.41 283.2 273.59 283.02 273.81 283.02C276.08 283.02 282.48 283.02 284.75 283.02Z" id="a2HLVv4ERb"></path><linearGradient id="gradientd1uUuq0OOd" gradientUnits="userSpaceOnUse" x1="284.48" y1="283.13" x2="273.41" y2="294.83"><stop style="stop-color: #e4e4c6;stop-opacity: 1" offset="0%"></stop><stop style="stop-color: #c2be0e;stop-opacity: 1" offset="100%"></stop></linearGradient><path d="M300.14 283.02C300.36 283.02 300.54 283.2 300.54 283.42C300.54 285.76 300.54 292.36 300.54 294.7C300.54 294.92 300.36 295.1 300.14 295.1C297.87 295.1 291.47 295.1 289.21 295.1C288.99 295.1 288.81 294.92 288.81 294.7C288.81 292.36 288.81 285.76 288.81 283.42C288.81 283.2 288.99 283.02 289.21 283.02C291.47 283.02 297.87 283.02 300.14 283.02Z" id="g3Qjai0z4s"></path><linearGradient id="gradientb1iQUKxK7v" gradientUnits="userSpaceOnUse" x1="299.87" y1="283.13" x2="288.81" y2="294.83"><stop style="stop-color: #e4e4c6;stop-opacity: 1" offset="0%"></stop><stop style="stop-color: #c2be0e;stop-opacity: 1" offset="100%"></stop></linearGradient><path d="M284.75 298.86C284.97 298.86 285.15 299.04 285.15 299.26C285.15 301.6 285.15 308.2 285.15 310.54C285.15 310.76 284.97 310.94 284.75 310.94C282.48 310.94 276.08 310.94 273.81 310.94C273.59 310.94 273.41 310.76 273.41 310.54C273.41 308.2 273.41 301.6 273.41 299.26C273.41 299.04 273.59 298.86 273.81 298.86C276.08 298.86 282.48 298.86 284.75 298.86Z" id="adPBFCfUB"></path><linearGradient id="gradientaj6MJw0uv" gradientUnits="userSpaceOnUse" x1="284.48" y1="298.97" x2="273.41" y2="310.67"><stop style="stop-color: #e4e4c6;stop-opacity: 1" offset="0%"></stop><stop style="stop-color: #c2be0e;stop-opacity: 1" offset="100%"></stop></linearGradient><path d="M300.14 298.86C300.36 298.86 300.54 299.04 300.54 299.26C300.54 301.6 300.54 308.2 300.54 310.54C300.54 310.76 300.36 310.94 300.14 310.94C297.87 310.94 291.47 310.94 289.21 310.94C288.99 310.94 288.81 310.76 288.81 310.54C288.81 308.2 288.81 301.6 288.81 299.26C288.81 299.04 288.99 298.86 289.21 298.86C291.47 298.86 297.87 298.86 300.14 298.86Z" id="e1EO0ad72K"></path><linearGradient id="gradienta4gAsDfSn4" gradientUnits="userSpaceOnUse" x1="299.87" y1="298.97" x2="288.81" y2="310.67"><stop style="stop-color: #e4e4c6;stop-opacity: 1" offset="0%"></stop><stop style="stop-color: #c2be0e;stop-opacity: 1" offset="100%"></stop></linearGradient><path d="M269.36 331.12C269.58 331.12 269.76 331.3 269.76 331.52C269.76 333.85 269.76 340.46 269.76 342.79C269.76 343.01 269.58 343.19 269.36 343.19C267.09 343.19 260.69 343.19 258.43 343.19C258.2 343.19 258.03 343.01 258.03 342.79C258.03 340.46 258.03 333.85 258.03 331.52C258.03 331.3 258.2 331.12 258.43 331.12C260.69 331.12 267.09 331.12 269.36 331.12Z" id="dTQsROx3e"></path><linearGradient id="gradientjh3QKVrhG" gradientUnits="userSpaceOnUse" x1="269.09" y1="331.23" x2="258.03" y2="342.93"><stop style="stop-color: #e4e4c6;stop-opacity: 1" offset="0%"></stop><stop style="stop-color: #c2be0e;stop-opacity: 1" offset="100%"></stop></linearGradient><path d="M269.36 298.86C269.58 298.86 269.76 299.04 269.76 299.26C269.76 301.6 269.76 308.2 269.76 310.54C269.76 310.76 269.58 310.94 269.36 310.94C267.09 310.94 260.69 310.94 258.43 310.94C258.2 310.94 258.03 310.76 258.03 310.54C258.03 308.2 258.03 301.6 258.03 299.26C258.03 299.04 258.2 298.86 258.43 298.86C260.69 298.86 267.09 298.86 269.36 298.86Z" id="an3ne3Izy"></path><linearGradient id="gradientf403od7HEE" gradientUnits="userSpaceOnUse" x1="269.09" y1="298.97" x2="258.03" y2="310.67"><stop style="stop-color: #e4e4c6;stop-opacity: 1" offset="0%"></stop><stop style="stop-color: #c2be0e;stop-opacity: 1" offset="100%"></stop></linearGradient><path d="M269.36 314.99C269.58 314.99 269.76 315.17 269.76 315.39C269.76 317.72 269.76 324.33 269.76 326.66C269.76 326.89 269.58 327.07 269.36 327.07C267.09 327.07 260.69 327.07 258.43 327.07C258.2 327.07 258.03 326.89 258.03 326.66C258.03 324.33 258.03 317.72 258.03 315.39C258.03 315.17 258.2 314.99 258.43 314.99C260.69 314.99 267.09 314.99 269.36 314.99Z" id="cwObFiB23"></path><linearGradient id="gradientakxXCCUjL" gradientUnits="userSpaceOnUse" x1="269.09" y1="315.1" x2="258.03" y2="326.8"><stop style="stop-color: #e4e4c6;stop-opacity: 1" offset="0%"></stop><stop style="stop-color: #c2be0e;stop-opacity: 1" offset="100%"></stop></linearGradient><path d="M284.75 314.99C284.97 314.99 285.15 315.17 285.15 315.39C285.15 317.72 285.15 324.33 285.15 326.66C285.15 326.89 284.97 327.07 284.75 327.07C282.48 327.07 276.08 327.07 273.81 327.07C273.59 327.07 273.41 326.89 273.41 326.66C273.41 324.33 273.41 317.72 273.41 315.39C273.41 315.17 273.59 314.99 273.81 314.99C276.08 314.99 282.48 314.99 284.75 314.99Z" id="a1dDeJ1r0B"></path><linearGradient id="gradienta1UY9pJdOt" gradientUnits="userSpaceOnUse" x1="284.48" y1="315.1" x2="273.41" y2="326.8"><stop style="stop-color: #e4e4c6;stop-opacity: 1" offset="0%"></stop><stop style="stop-color: #c2be0e;stop-opacity: 1" offset="100%"></stop></linearGradient><path d="M300.14 314.99C300.36 314.99 300.54 315.17 300.54 315.39C300.54 317.72 300.54 324.33 300.54 326.66C300.54 326.89 300.36 327.07 300.14 327.07C297.87 327.07 291.47 327.07 289.21 327.07C288.99 327.07 288.81 326.89 288.81 326.66C288.81 324.33 288.81 317.72 288.81 315.39C288.81 315.17 288.99 314.99 289.21 314.99C291.47 314.99 297.87 314.99 300.14 314.99Z" id="a2pXwXo61E"></path><linearGradient id="gradientbAFr5As9Z" gradientUnits="userSpaceOnUse" x1="299.87" y1="315.1" x2="288.81" y2="326.8"><stop style="stop-color: #e4e4c6;stop-opacity: 1" offset="0%"></stop><stop style="stop-color: #c2be0e;stop-opacity: 1" offset="100%"></stop></linearGradient><path d="M300.14 331.12C300.36 331.12 300.54 331.3 300.54 331.52C300.54 333.85 300.54 340.46 300.54 342.79C300.54 343.01 300.36 343.19 300.14 343.19C297.87 343.19 291.47 343.19 289.21 343.19C288.99 343.19 288.81 343.01 288.81 342.79C288.81 340.46 288.81 333.85 288.81 331.52C288.81 331.3 288.99 331.12 289.21 331.12C291.47 331.12 297.87 331.12 300.14 331.12Z" id="e1XANsHq"></path><linearGradient id="gradientj1FfsHtv1" gradientUnits="userSpaceOnUse" x1="299.87" y1="331.23" x2="288.81" y2="342.93"><stop style="stop-color: #e4e4c6;stop-opacity: 1" offset="0%"></stop><stop style="stop-color: #c2be0e;stop-opacity: 1" offset="100%"></stop></linearGradient><path d="M284.75 331.12C284.97 331.12 285.15 331.3 285.15 331.52C285.15 333.85 285.15 340.46 285.15 342.79C285.15 343.01 284.97 343.19 284.75 343.19C282.48 343.19 276.08 343.19 273.81 343.19C273.59 343.19 273.41 343.01 273.41 342.79C273.41 340.46 273.41 333.85 273.41 331.52C273.41 331.3 273.59 331.12 273.81 331.12C276.08 331.12 282.48 331.12 284.75 331.12Z" id="bSrzxNpsh"></path><linearGradient id="gradientb2mlVTs6Ws" gradientUnits="userSpaceOnUse" x1="284.48" y1="331.23" x2="273.41" y2="342.93"><stop style="stop-color: #e4e4c6;stop-opacity: 1" offset="0%"></stop><stop style="stop-color: #c2be0e;stop-opacity: 1" offset="100%"></stop></linearGradient><path d="M269.36 347.69C269.58 347.69 269.76 347.87 269.76 348.09C269.76 350.43 269.76 357.03 269.76 359.37C269.76 359.59 269.58 359.77 269.36 359.77C267.09 359.77 260.69 359.77 258.42 359.77C258.2 359.77 258.02 359.59 258.02 359.37C258.02 357.03 258.02 350.43 258.02 348.09C258.02 347.87 258.2 347.69 258.42 347.69C260.69 347.69 267.09 347.69 269.36 347.69Z" id="fb5XjRsjL"></path><linearGradient id="gradientljdQ7dtV8" gradientUnits="userSpaceOnUse" x1="269.09" y1="347.81" x2="258.02" y2="359.51"><stop style="stop-color: #e4e4c6;stop-opacity: 1" offset="0%"></stop><stop style="stop-color: #c2be0e;stop-opacity: 1" offset="100%"></stop></linearGradient><path d="M284.75 347.69C284.97 347.69 285.15 347.87 285.15 348.09C285.15 350.43 285.15 357.03 285.15 359.37C285.15 359.59 284.97 359.77 284.75 359.77C282.48 359.77 276.08 359.77 273.81 359.77C273.59 359.77 273.41 359.59 273.41 359.37C273.41 357.03 273.41 350.43 273.41 348.09C273.41 347.87 273.59 347.69 273.81 347.69C276.08 347.69 282.48 347.69 284.75 347.69Z" id="f1vZVeYrDy"></path><linearGradient id="gradientc12j7G7ks" gradientUnits="userSpaceOnUse" x1="284.48" y1="347.81" x2="273.41" y2="359.51"><stop style="stop-color: #e4e4c6;stop-opacity: 1" offset="0%"></stop><stop style="stop-color: #c2be0e;stop-opacity: 1" offset="100%"></stop></linearGradient><path d="M300.14 347.69C300.36 347.69 300.54 347.87 300.54 348.09C300.54 350.43 300.54 357.03 300.54 359.37C300.54 359.59 300.36 359.77 300.14 359.77C297.87 359.77 291.47 359.77 289.2 359.77C288.98 359.77 288.8 359.59 288.8 359.37C288.8 357.03 288.8 350.43 288.8 348.09C288.8 347.87 288.98 347.69 289.2 347.69C291.47 347.69 297.87 347.69 300.14 347.69Z" id="fjP0DSbAa"></path><linearGradient id="gradienta6Oos8t6oO" gradientUnits="userSpaceOnUse" x1="299.87" y1="347.81" x2="288.8" y2="359.51"><stop style="stop-color: #e4e4c6;stop-opacity: 1" offset="0%"></stop><stop style="stop-color: #c2be0e;stop-opacity: 1" offset="100%"></stop></linearGradient><path d="M476.43 372.46C482.55 372.46 487.86 376.67 489.26 382.64C493.94 402.7 505.18 450.8 509.75 470.38C511.25 476.8 506.38 482.95 499.78 482.95C478.93 482.95 429.28 482.95 408.42 482.95C401.81 482.95 396.89 476.81 398.34 470.36C402.72 450.78 413.48 402.72 417.97 382.66C419.3 376.7 424.59 372.46 430.7 372.46C441.94 372.46 465.19 372.46 476.43 372.46Z" id="e19EClg2n1"></path><linearGradient id="gradienta1lmErSlfq" gradientUnits="userSpaceOnUse" x1="505.63" y1="372.46" x2="413.06" y2="482.95"><stop style="stop-color: #666666;stop-opacity: 1" offset="0%"></stop><stop style="stop-color: #010000;stop-opacity: 1" offset="100%"></stop></linearGradient><path d="M476.35 376.28L454.1 424.48L431.11 376.28C431.88 376.42 432.36 376.51 432.56 376.55C446.12 379.07 460.02 379.15 473.61 376.76C473.97 376.7 474.89 376.54 476.35 376.28Z" id="e5VxVZ7e9"></path><path d="M409.58 306.65L497.89 306.65L497.89 366.01C494.35 365.74 492.13 365.57 491.25 365.5C465.55 363.55 439.74 363.6 414.05 365.65C413.45 365.7 411.96 365.82 409.58 366.01L409.58 306.65Z" id="c7KXP7jaRG"></path><linearGradient id="gradientb2MTaHmPvf" gradientUnits="userSpaceOnUse" x1="497.39" y1="309.67" x2="410.94" y2="349.23"><stop style="stop-color: #9e8362;stop-opacity: 1" offset="0%"></stop><stop style="stop-color: #2c2011;stop-opacity: 1" offset="100%"></stop></linearGradient><path d="M497.12 317.34C497.12 341.71 477.34 361.49 452.97 361.49C428.6 361.49 408.81 341.71 408.81 317.34C408.81 292.97 428.6 273.18 452.97 273.18C477.34 273.18 497.12 292.97 497.12 317.34Z" id="a10wyTI2hZ"></path><linearGradient id="gradientc2sJE7AoxZ" gradientUnits="userSpaceOnUse" x1="482.21" y1="287.52" x2="430.03" y2="352.32"><stop style="stop-color: #ffedde;stop-opacity: 1" offset="0%"></stop><stop style="stop-color: #ffc88d;stop-opacity: 1" offset="100%"></stop></linearGradient><path d="M455.55 270.06C458.49 270.2 462 270.84 466.07 272C470.83 273.34 475.21 275.75 478.9 279.04C481.58 281.44 481.1 281 483.05 282.74C489.13 288.17 493.73 295.07 496.41 302.78C497.21 305.07 495.8 301.03 496.67 303.53C499.14 310.66 500.79 318.04 501.59 325.53C502.06 329.99 501.92 328.71 502.3 332.33C503.39 342.62 503.53 352.99 502.71 363.31C502.63 364.27 502.82 361.94 502.54 365.48C502.41 367.14 501.49 368.64 500.08 369.52C499.5 369.89 499.99 369.58 499.41 369.94C498.26 370.66 496.75 370.12 496.31 368.84C495.71 367.08 496.48 369.34 496.31 368.84C494.31 363.01 493.08 356.94 492.65 350.79C492.61 350.18 492.5 348.64 492.33 346.19C491.86 341.99 491.56 339.36 491.45 338.31C490.95 333.9 489.71 329.61 487.77 325.62C487.26 324.57 488.02 326.14 487.36 324.76C485.94 321.85 484.2 319.12 482.15 316.62C475.99 309.12 469.66 302.63 463.14 297.16C456.44 291.54 449.53 286.93 442.41 283.34C440.38 282.32 439.1 280.24 439.1 277.97C439.1 277.19 439.1 279.21 439.1 278.59C439.1 275.85 440.79 273.39 443.35 272.4C447.83 270.67 451.9 269.89 455.55 270.06Z" id="a1fI0RZF9F"></path><linearGradient id="gradientayk0aScFS" gradientUnits="userSpaceOnUse" x1="453.68" y1="271.31" x2="500.84" y2="366.43"><stop style="stop-color: #a58e79;stop-opacity: 1" offset="0%"></stop><stop style="stop-color: #482c15;stop-opacity: 1" offset="100%"></stop></linearGradient><path d="M380.19 310.64C380.19 338.07 357.93 360.33 330.51 360.33C303.09 360.33 280.82 338.07 280.82 310.64C280.82 283.22 303.09 260.96 330.51 260.96C357.93 260.96 380.19 283.22 380.19 310.64Z" id="b3VJJWaM"></path><linearGradient id="gradientg136aAtT15" gradientUnits="userSpaceOnUse" x1="363.41" y1="277.09" x2="304.7" y2="350.01"><stop style="stop-color: #ffedde;stop-opacity: 1" offset="0%"></stop><stop style="stop-color: #ffc88d;stop-opacity: 1" offset="100%"></stop></linearGradient><path d="M376.19 370.84C383.31 370.84 389.09 376.62 389.09 383.74C389.09 403.26 389.09 448.91 389.09 468.43C389.09 475.55 383.31 481.33 376.19 481.33C355.34 481.33 305.68 481.33 284.83 481.33C277.7 481.33 271.93 475.55 271.93 468.43C271.93 448.91 271.93 403.26 271.93 383.74C271.93 376.62 277.7 370.84 284.83 370.84C305.68 370.84 355.34 370.84 376.19 370.84Z" id="aVt3yUOY"></path><linearGradient id="gradientc1dArt7Lre" gradientUnits="userSpaceOnUse" x1="384.06" y1="370.84" x2="287.93" y2="481.33"><stop style="stop-color: #666666;stop-opacity: 1" offset="0%"></stop><stop style="stop-color: #010000;stop-opacity: 1" offset="100%"></stop></linearGradient><path d="M353.13 374.97L330.88 423.17L307.89 374.97L353.13 374.97Z" id="jA7bFCCP5"></path><path d="M341.02 400.66L320 400.66L329.53 380.67L322.42 374.97L338.6 374.97L331.77 380.62L341.02 400.66Z" id="b16MX4vHQs"></path><linearGradient id="gradientapMt4pvzc" gradientUnits="userSpaceOnUse" x1="337.35" y1="375.49" x2="320.44" y2="400.66"><stop style="stop-color: #ffadad;stop-opacity: 1" offset="0%"></stop><stop style="stop-color: #ff1212;stop-opacity: 1" offset="100%"></stop></linearGradient><path d="M452.16 267.25C449.23 267.39 445.72 268.03 441.64 269.19C436.89 270.53 432.51 272.94 428.82 276.23C426.13 278.63 426.62 278.19 424.67 279.93C418.58 285.36 413.98 292.26 411.31 299.97C410.51 302.26 410.99 300.87 409.9 304.04C408.19 308.96 407.05 314.05 406.5 319.23C405.96 324.38 405.8 325.9 405.41 329.52C404.32 339.81 404.13 350.18 404.84 360.51C404.94 361.94 404.87 361.01 405.15 365.02C405.26 366.66 406.23 368.11 407.7 368.84C408.27 369.13 407.61 368.8 408.18 369.08C409.42 369.7 410.91 369.05 411.31 367.73C411.93 365.63 411.53 366.97 411.77 366.15C413.53 360.23 414.64 354.14 415.07 347.98C415.11 347.37 415.22 345.83 415.39 343.37C415.86 339.18 416.15 336.55 416.27 335.5C416.76 331.09 418.01 326.8 419.94 322.81C420.45 321.76 419.69 323.32 420.36 321.95C421.77 319.04 423.52 316.31 425.57 313.81C431.72 306.3 438.06 299.82 444.58 294.34C451.24 288.75 457.81 284.19 464.29 280.64C466.35 279.51 467.82 277.54 468.32 275.24C468.52 274.32 468.27 275.47 468.45 274.62C468.94 272.36 467.63 270.1 465.43 269.39C460.42 267.78 456 267.07 452.16 267.25Z" id="asrP8kJWw"></path><linearGradient id="gradienta2BsWRZgd9" gradientUnits="userSpaceOnUse" x1="461.28" y1="269.6" x2="406.81" y2="365.42"><stop style="stop-color: #c8a687;stop-opacity: 1" offset="0%"></stop><stop style="stop-color: #482c15;stop-opacity: 1" offset="100%"></stop></linearGradient></defs><g><g><g><use xlink:href="#a2qhLLjLo" opacity="1" fill="#6480ff" fill-opacity="0.28"></use></g><g><use xlink:href="#b2BLtq2VB" opacity="1" fill="url(#gradientaztbwublv)"></use><g><filter id="shadow13990302" x="235.98" y="248.81" width="81.91" height="135.87" filterUnits="userSpaceOnUse" primitiveUnits="userSpaceOnUse"><feFlood></feFlood><feComposite in2="SourceAlpha" operator="out"></feComposite><feGaussianBlur stdDeviation="1"></feGaussianBlur><feOffset dx="1" dy="1" result="afterOffset"></feOffset><feFlood flood-color="#ffffff" flood-opacity="0.8"></feFlood><feComposite in2="afterOffset" operator="in"></feComposite><feMorphology operator="dilate" radius="1"></feMorphology><feComposite in2="SourceAlpha" operator="in"></feComposite></filter><path d="M306.43 257.81C307.24 257.81 307.89 258.47 307.89 259.28C307.89 282.36 307.89 350.14 307.89 373.22C307.89 374.03 307.24 374.69 306.43 374.69C294.14 374.69 258.74 374.69 246.45 374.69C245.64 374.69 244.98 374.03 244.98 373.22C244.98 350.14 244.98 282.36 244.98 259.28C244.98 258.47 245.64 257.81 246.45 257.81C258.74 257.81 294.14 257.81 306.43 257.81Z" id="akgfx1QTK" fill="white" fill-opacity="1" filter="url(#shadow13990302)"></path></g></g><g><use xlink:href="#g9LiH6DbH" opacity="1" fill="url(#gradienthY1bUalw)"></use></g><g><use xlink:href="#g16MMbvdCa" opacity="1" fill="url(#gradientb3F1mEIcFk)"></use></g><g><use xlink:href="#b10Nvi3YnB" opacity="1" fill="url(#gradienta4TASvYCh)"></use></g><g><use xlink:href="#d3jnifYvya" opacity="1" fill="url(#gradienta4qz4GJKoR)"></use></g><g><use xlink:href="#a2gAGiwEvI" opacity="1" fill="url(#gradientc6Yxn9ssG)"></use></g><g><use xlink:href="#fDy74t8VJ" opacity="1" fill="url(#gradientd1lZn734WJ)"></use></g><g><use xlink:href="#b1939TVtwW" opacity="1" fill="url(#gradientb4iOxY4Ml)"></use></g><g><use xlink:href="#a304vAQwo" opacity="1" fill="url(#gradientg21KZ1hOhT)"></use></g><g><use xlink:href="#adtV2YTkr" opacity="1" fill="url(#gradientcefZhcU83)"></use></g><g><use xlink:href="#c3kx69ATy" opacity="1" fill="url(#gradientb9DL6CcZx)"></use></g><g><use xlink:href="#ePKVdh8g" opacity="1" fill="url(#gradientc1jsGo61fY)"></use></g><g><use xlink:href="#a3eAmjEfsg" opacity="1" fill="url(#gradienta6X9kYgkPY)"></use></g><g><use xlink:href="#c4ctTDsX8v" opacity="1" fill="url(#gradienta15yKaOauv)"></use></g><g><use xlink:href="#a3N8HLieP1" opacity="1" fill="url(#gradienta2qRIURa3d)"></use></g><g><use xlink:href="#a40TdhZtc" opacity="1" fill="url(#gradientf3X3WMcCq)"></use></g><g><use xlink:href="#a35kq9ahOR" opacity="1" fill="url(#gradientb2PPIRh8iU)"></use></g><g><use xlink:href="#bAJAoaUqh" opacity="1" fill="url(#gradientf1Ao56VVPl)"></use></g><g><use xlink:href="#arAeirrRu" opacity="1" fill="url(#gradienta6brNPrGA)"></use></g><g><use xlink:href="#dpAulRNi3" opacity="1" fill="url(#gradientc1v6QI7RTA)"></use></g><g><use xlink:href="#b2uuS0CZb" opacity="1" fill="url(#gradientc2bPAekhe4)"></use></g><g><use xlink:href="#bIvPctFl6" opacity="1" fill="url(#gradientd396zqjNa8)"></use></g><g><use xlink:href="#bvtf7rBul" opacity="1" fill="url(#gradientcomUM2TRB)"></use></g><g><use xlink:href="#chqD2hzR" opacity="1" fill="url(#gradienta1I1kwWNUQ)"></use></g><g><use xlink:href="#f3LXPOHtVR" opacity="1" fill="url(#gradientd1MuTkBrAP)"></use></g><g><use xlink:href="#a28BQsqCbn" opacity="1" fill="url(#gradientdojf7uOOd)"></use></g><g><use xlink:href="#e1AXbomMQF" opacity="1" fill="url(#gradientaT5GfVlP8)"></use></g><g><use xlink:href="#bqGSdhf7q" opacity="1" fill="url(#gradientf2opCWJZu2)"></use></g><g><use xlink:href="#b3Zm1lE0mQ" opacity="1" fill="url(#gradientb1zwvODOu)"></use></g><g><use xlink:href="#ajoh52wWd" opacity="1" fill="url(#gradientb5TNrsRw)"></use></g><g><use xlink:href="#p1jqWRh4GW" opacity="1" fill="url(#gradientc3WVA1sUFp)"></use></g><g><use xlink:href="#bYDT3EyfV" opacity="1" fill="url(#gradientgd6Vxlokg)"></use></g><g><use xlink:href="#csoDy6c50" opacity="1" fill="url(#gradientb3SMI89Sy)"></use></g><g><use xlink:href="#axBDmkhiG" opacity="1" fill="url(#gradientc4C89antwS)"></use></g><g><use xlink:href="#hUzNkdskB" opacity="1" fill="url(#gradienta43ouoaDl4)"></use></g><g><use xlink:href="#a1kzbSc6x6" opacity="1" fill="url(#gradienta5cyBVT2DS)"></use></g><g><use xlink:href="#aptappMil" opacity="1" fill="url(#gradienta77lSKodmJ)"></use></g><g><use xlink:href="#b2jcVyOsR3" opacity="1" fill="url(#gradientc1qkEwyo9Q)"></use></g><g><use xlink:href="#a2HLVv4ERb" opacity="1" fill="url(#gradientd1uUuq0OOd)"></use></g><g><use xlink:href="#g3Qjai0z4s" opacity="1" fill="url(#gradientb1iQUKxK7v)"></use></g><g><use xlink:href="#adPBFCfUB" opacity="1" fill="url(#gradientaj6MJw0uv)"></use></g><g><use xlink:href="#e1EO0ad72K" opacity="1" fill="url(#gradienta4gAsDfSn4)"></use></g><g><use xlink:href="#dTQsROx3e" opacity="1" fill="url(#gradientjh3QKVrhG)"></use></g><g><use xlink:href="#an3ne3Izy" opacity="1" fill="url(#gradientf403od7HEE)"></use></g><g><use xlink:href="#cwObFiB23" opacity="1" fill="url(#gradientakxXCCUjL)"></use></g><g><use xlink:href="#a1dDeJ1r0B" opacity="1" fill="url(#gradienta1UY9pJdOt)"></use></g><g><use xlink:href="#a2pXwXo61E" opacity="1" fill="url(#gradientbAFr5As9Z)"></use></g><g><use xlink:href="#e1XANsHq" opacity="1" fill="url(#gradientj1FfsHtv1)"></use></g><g><use xlink:href="#bSrzxNpsh" opacity="1" fill="url(#gradientb2mlVTs6Ws)"></use></g><g><use xlink:href="#fb5XjRsjL" opacity="1" fill="url(#gradientljdQ7dtV8)"></use></g><g><use xlink:href="#f1vZVeYrDy" opacity="1" fill="url(#gradientc12j7G7ks)"></use></g><g><use xlink:href="#fjP0DSbAa" opacity="1" fill="url(#gradienta6Oos8t6oO)"></use></g><g><use xlink:href="#e19EClg2n1" opacity="1" fill="url(#gradienta1lmErSlfq)"></use></g><g><use xlink:href="#e5VxVZ7e9" opacity="1" fill="#ffffff" fill-opacity="1"></use></g><g><use xlink:href="#c7KXP7jaRG" opacity="1" fill="url(#gradientb2MTaHmPvf)"></use></g><g><use xlink:href="#a10wyTI2hZ" opacity="1" fill="url(#gradientc2sJE7AoxZ)"></use></g><g><use xlink:href="#a1fI0RZF9F" opacity="1" fill="url(#gradientayk0aScFS)"></use><g><use xlink:href="#a1fI0RZF9F" opacity="1" fill-opacity="0" stroke="#000000" stroke-width="0" stroke-opacity="1"></use></g></g><g><use xlink:href="#b3VJJWaM" opacity="1" fill="url(#gradientg136aAtT15)"></use></g><g><use xlink:href="#aVt3yUOY" opacity="1" fill="url(#gradientc1dArt7Lre)"></use></g><g><use xlink:href="#jA7bFCCP5" opacity="1" fill="#ffffff" fill-opacity="1"></use></g><g><use xlink:href="#b16MX4vHQs" opacity="1" fill="url(#gradientapMt4pvzc)"></use><g><use xlink:href="#b16MX4vHQs" opacity="1" fill-opacity="0" stroke="#000000" stroke-width="0" stroke-opacity="1"></use></g></g><g><use xlink:href="#asrP8kJWw" opacity="1" fill="url(#gradienta2BsWRZgd9)"></use><g><use xlink:href="#asrP8kJWw" opacity="1" fill-opacity="0" stroke="#000000" stroke-width="0" stroke-opacity="1"></use></g></g></g></g></svg>