<?xml version="1.0" encoding="UTF-8" standalone="no"?>
<!DOCTYPE svg PUBLIC "-//W3C//DTD SVG 1.1//EN" "http://www.w3.org/Graphics/SVG/1.1/DTD/svg11.dtd">
<svg version="1.1" xmlns="http://www.w3.org/2000/svg" xmlns:xlink="http://www.w3.org/1999/xlink" preserveAspectRatio="xMidYMid meet" viewBox="0 0 640 640" width="640" height="640"><defs><path d="M575.43 282.5C575.43 422.96 461.39 537 320.93 537C180.47 537 66.43 422.96 66.43 282.5C66.43 142.04 180.47 28 320.93 28C461.39 28 575.43 142.04 575.43 282.5Z" id="b5nzw1nhqe"></path><path d="M274.1 440.4L290.59 385.25" id="a1h256qUOQ"></path><path d="M301.2 78.93L305.15 79.33L309.05 79.89L312.9 80.6L316.7 81.45L320.44 82.46L324.13 83.6L327.74 84.89L331.29 86.31L334.78 87.86L338.18 89.55L341.52 91.36L344.77 93.29L347.94 95.35L351.02 97.52L354.02 99.81L356.92 102.21L359.73 104.71L362.44 107.32L365.05 110.03L367.56 112.84L369.96 115.74L372.24 118.74L374.41 121.82L376.47 125L378.4 128.25L380.22 131.58L381.9 134.99L383.45 138.47L384.88 142.02L386.16 145.64L387.31 149.32L387.86 151.39L391.16 151.32L395.2 151.4L399.19 151.65L403.14 152.05L407.05 152.6L410.9 153.31L414.7 154.17L418.44 155.17L422.12 156.32L425.74 157.61L429.29 159.03L432.77 160.58L436.18 162.27L439.51 164.08L442.76 166.01L445.93 168.07L449.02 170.24L452.01 172.53L454.92 174.92L457.73 177.43L460.44 180.04L463.05 182.75L465.55 185.56L467.95 188.46L470.24 191.46L472.41 194.54L474.46 197.71L476.4 200.97L478.21 204.3L479.89 207.71L481.45 211.19L482.87 214.74L484.15 218.36L485.3 222.04L486.3 225.78L487.16 229.58L487.87 233.43L488.43 237.33L488.83 241.28L489.07 245.28L489.15 249.32L489.07 253.35L489.06 253.54L490.23 254.86L491.89 256.87L493.47 258.94L494.97 261.07L496.4 263.27L497.73 265.51L498.99 267.82L500.15 270.18L501.23 272.58L502.21 275.04L503.1 277.54L503.89 280.09L504.58 282.68L505.18 285.3L505.67 287.97L506.05 290.67L506.33 293.4L506.5 296.16L506.55 298.95L506.5 301.74L506.33 304.51L506.05 307.24L505.67 309.94L505.18 312.6L504.58 315.23L503.89 317.82L503.1 320.36L502.21 322.87L501.23 325.32L500.15 327.73L498.99 330.09L497.73 332.39L496.4 334.64L494.97 336.83L493.47 338.97L491.89 341.04L490.23 343.05L488.5 344.99L486.7 346.87L484.82 348.67L482.88 350.4L480.87 352.06L478.8 353.64L476.66 355.14L474.47 356.56L472.22 357.9L469.92 359.16L467.56 360.32L465.15 361.4L462.7 362.38L460.19 363.27L457.65 364.06L455.06 364.75L452.43 365.35L449.77 365.84L447.07 366.22L444.34 366.5L441.57 366.67L438.78 366.72L438.42 366.72L438.05 366.72L222.1 366.72L220.99 366.7L219.89 366.64L218.8 366.53L217.73 366.37L217.5 366.33L214.63 366.04L210.95 365.51L207.31 364.84L203.73 364.03L200.2 363.09L196.72 362.01L193.31 360.79L189.95 359.45L186.67 357.98L183.45 356.39L180.31 354.68L177.23 352.86L174.24 350.92L171.33 348.87L168.5 346.71L165.76 344.45L163.11 342.08L160.55 339.62L158.09 337.06L155.72 334.41L153.46 331.67L151.3 328.84L149.25 325.93L147.31 322.94L145.49 319.86L143.78 316.72L142.19 313.5L140.72 310.22L139.38 306.86L138.16 303.45L137.08 299.97L136.14 296.44L135.33 292.86L134.66 289.22L134.13 285.54L133.75 281.81L133.52 278.04L133.45 274.23L133.52 270.42L133.75 266.64L134.13 262.91L134.66 259.23L135.33 255.59L136.14 252.01L137.08 248.48L138.16 245L139.38 241.59L140.72 238.24L142.19 234.95L143.78 231.73L145.49 228.59L147.31 225.52L149.25 222.52L151.3 219.61L153.46 216.78L155.72 214.04L158.09 211.39L160.55 208.83L163.11 206.37L165.76 204L168.5 201.74L171.33 199.58L174.24 197.53L177.23 195.59L180.31 193.77L183.45 192.06L186.67 190.47L189.95 189L193.31 187.66L195.72 186.8L195.5 184.63L195.25 180.63L195.17 176.6L195.25 172.56L195.5 168.57L195.9 164.62L196.46 160.71L197.16 156.86L198.02 153.06L199.03 149.32L200.17 145.64L201.46 142.02L202.88 138.47L204.43 134.99L206.12 131.58L207.93 128.25L209.86 125L211.92 121.82L214.09 118.74L216.38 115.74L218.77 112.84L221.28 110.03L223.89 107.32L226.6 104.71L229.41 102.21L232.31 99.81L235.31 97.52L238.39 95.35L241.56 93.29L244.82 91.36L248.15 89.55L251.56 87.86L255.04 86.31L258.59 84.89L262.21 83.6L265.89 82.46L269.63 81.45L273.43 80.6L277.28 79.89L281.18 79.33L285.13 78.93L289.13 78.69L293.17 78.6L297.2 78.69L301.2 78.93Z" id="fY2apJAru"></path><linearGradient id="gradientdfP38A3Qh" gradientUnits="userSpaceOnUse" x1="347.34" y1="87.84" x2="-78.11" y2="375.96"><stop style="stop-color: #bae7ff;stop-opacity: 1" offset="0%"></stop><stop style="stop-color: #49a8e1;stop-opacity: 1" offset="100%"></stop></linearGradient><path d="M254.31 114.04C256.19 117.53 253.3 122.75 247.85 125.69C242.4 128.64 236.45 128.2 234.56 124.71C232.68 121.22 235.57 116 241.02 113.06C246.47 110.12 252.42 110.56 254.31 114.04Z" id="aISzX3WM"></path><path d="M199.38 412.83L210.15 376.48" id="cn5WhNKl"></path><path d="M192.65 412.83C192.65 416.54 195.66 419.56 199.38 419.56C203.09 419.56 206.11 416.54 206.11 412.83C206.11 409.11 203.09 406.09 199.38 406.09C195.66 406.09 192.65 409.11 192.65 412.83Z" id="b5UOw0MC7"></path><path d="M212.84 463.16L231.13 397.48" id="a58zh6lIw"></path><path d="M206.11 461.82C206.11 465.54 209.13 468.55 212.84 468.55C216.56 468.55 219.57 465.54 219.57 461.82C219.57 458.11 216.56 455.09 212.84 455.09C209.13 455.09 206.11 458.11 206.11 461.82Z" id="e1lr9KJC1V"></path><path d="M251.17 412.83L261.94 376.48" id="aJkkrXN7"></path><path d="M244.43 412.83C244.43 416.54 247.45 419.56 251.17 419.56C254.88 419.56 257.9 416.54 257.9 412.83C257.9 409.11 254.88 406.09 251.17 406.09C247.45 406.09 244.43 409.11 244.43 412.83Z" id="a2BeU1z2W"></path><path d="M267.37 441.1C267.37 444.81 270.38 447.83 274.1 447.83C277.81 447.83 280.83 444.81 280.83 441.1C280.83 437.38 277.81 434.37 274.1 434.37C270.38 434.37 267.37 437.38 267.37 441.1Z" id="b3peWLzmCn"></path><path d="M242.42 477.45L253.19 441.1" id="azY5iojKp"></path><path d="M235.68 477.45C235.68 481.16 238.7 484.18 242.42 484.18C246.13 484.18 249.15 481.16 249.15 477.45C249.15 473.73 246.13 470.72 242.42 470.72C238.7 470.72 235.68 473.73 235.68 477.45Z" id="cwciZFJ4K"></path><path d="M402.17 474.08L412.94 437.73" id="b4a2QXJC93"></path><path d="M395.44 474.08C395.44 477.8 398.46 480.81 402.17 480.81C405.89 480.81 408.9 477.8 408.9 474.08C408.9 470.37 405.89 467.35 402.17 467.35C398.46 467.35 395.44 470.37 395.44 474.08Z" id="fCwnn1Ogp"></path><path d="M286.21 482.83L296.98 446.48" id="a7BZvtqb3"></path><path d="M279.48 482.83C279.48 486.55 282.5 489.56 286.21 489.56C289.93 489.56 292.95 486.55 292.95 482.83C292.95 479.12 289.93 476.1 286.21 476.1C282.5 476.1 279.48 479.12 279.48 482.83Z" id="a233cGgc9U"></path><path d="M308.11 507.06L323.89 454.46" id="e1lmF0razO"></path><path d="M301.38 507.06C301.38 510.78 304.4 513.8 308.11 513.8C311.83 513.8 314.84 510.78 314.84 507.06C314.84 503.35 311.83 500.33 308.11 500.33C304.4 500.33 301.38 503.35 301.38 507.06Z" id="bhMJEv1hq"></path><path d="M339.35 506.02L359.54 438.13" id="bXXu4qWeV"></path><path d="M331.94 507.06C331.94 510.78 334.96 513.8 338.67 513.8C342.39 513.8 345.41 510.78 345.41 507.06C345.41 503.35 342.39 500.33 338.67 500.33C334.96 500.33 331.94 503.35 331.94 507.06Z" id="bndJBUNy"></path><path d="M305.69 429.24L320.93 376.48" id="a5uX4zuSO"></path><path d="M298.96 429.65C298.96 433.37 301.98 436.39 305.69 436.39C309.41 436.39 312.42 433.37 312.42 429.65C312.42 425.94 309.41 422.92 305.69 422.92C301.98 422.92 298.96 425.94 298.96 429.65Z" id="ahOuDMjSn"></path><path d="M331.94 432.48L342.71 396.13" id="e2GBJFKA5j"></path><path d="M325.21 432.48C325.21 436.2 328.23 439.21 331.94 439.21C335.66 439.21 338.67 436.2 338.67 432.48C338.67 428.77 335.66 425.75 331.94 425.75C328.23 425.75 325.21 428.77 325.21 432.48Z" id="a1OqzOBONs"></path><path d="M363.58 412.83L374.35 376.48" id="a16sUUveAJ"></path><path d="M356.85 412.83C356.85 416.54 359.86 419.56 363.58 419.56C367.29 419.56 370.31 416.54 370.31 412.83C370.31 409.11 367.29 406.09 363.58 406.09C359.86 406.09 356.85 409.11 356.85 412.83Z" id="a20f3KsC2Y"></path><path d="M388.71 434.37L399.48 398.02" id="b28s1wkxVd"></path><path d="M381.98 434.37C381.98 438.08 385 441.1 388.71 441.1C392.43 441.1 395.44 438.08 395.44 434.37C395.44 430.65 392.43 427.63 388.71 427.63C385 427.63 381.98 430.65 381.98 434.37Z" id="aKqaCJo91"></path><path d="M422.5 412.83L433.27 376.48" id="fvDosqkOT"></path><path d="M415.77 412.83C415.77 416.54 418.79 419.56 422.5 419.56C426.22 419.56 429.23 416.54 429.23 412.83C429.23 409.11 426.22 406.09 422.5 406.09C418.79 406.09 415.77 409.11 415.77 412.83Z" id="ayMx7q2iy"></path></defs><g><g><g><use xlink:href="#b5nzw1nhqe" opacity="1" fill="#6044f6" fill-opacity="0.12"></use></g><g><use xlink:href="#a1h256qUOQ" opacity="1" fill="#7ac3ee" fill-opacity="1"></use><g><use xlink:href="#a1h256qUOQ" opacity="1" fill-opacity="0" stroke="#2da8a7" stroke-width="12" stroke-opacity="1"></use></g></g><g><use xlink:href="#fY2apJAru" opacity="1" fill="url(#gradientdfP38A3Qh)"></use></g><g><use xlink:href="#aISzX3WM" opacity="1" fill="#ffffff" fill-opacity="1"></use><g><use xlink:href="#aISzX3WM" opacity="1" fill-opacity="0" stroke="#ffffff" stroke-width="1" stroke-opacity="1"></use></g></g><g><g><use xlink:href="#cn5WhNKl" opacity="1" fill-opacity="0" stroke="#2da8a7" stroke-width="12" stroke-opacity="1"></use></g></g><g><use xlink:href="#b5UOw0MC7" opacity="1" fill="#355972" fill-opacity="1"></use></g><g><use xlink:href="#a58zh6lIw" opacity="1" fill="#7ac3ee" fill-opacity="1"></use><g><use xlink:href="#a58zh6lIw" opacity="1" fill-opacity="0" stroke="#2da8a7" stroke-width="12" stroke-opacity="1"></use></g></g><g><use xlink:href="#e1lr9KJC1V" opacity="1" fill="#355972" fill-opacity="1"></use></g><g><use xlink:href="#aJkkrXN7" opacity="1" fill="#7ac3ee" fill-opacity="1"></use><g><use xlink:href="#aJkkrXN7" opacity="1" fill-opacity="0" stroke="#2da8a7" stroke-width="12" stroke-opacity="1"></use></g></g><g><use xlink:href="#a2BeU1z2W" opacity="1" fill="#355972" fill-opacity="1"></use></g><g><use xlink:href="#b3peWLzmCn" opacity="1" fill="#355972" fill-opacity="1"></use></g><g><use xlink:href="#azY5iojKp" opacity="1" fill="#7ac3ee" fill-opacity="1"></use><g><use xlink:href="#azY5iojKp" opacity="1" fill-opacity="0" stroke="#2da8a7" stroke-width="12" stroke-opacity="1"></use></g></g><g><use xlink:href="#cwciZFJ4K" opacity="1" fill="#355972" fill-opacity="1"></use></g><g><use xlink:href="#b4a2QXJC93" opacity="1" fill="#7ac3ee" fill-opacity="1"></use><g><use xlink:href="#b4a2QXJC93" opacity="1" fill-opacity="0" stroke="#2da8a7" stroke-width="12" stroke-opacity="1"></use></g></g><g><use xlink:href="#fCwnn1Ogp" opacity="1" fill="#355972" fill-opacity="1"></use></g><g><g><use xlink:href="#a7BZvtqb3" opacity="1" fill-opacity="0" stroke="#2da8a7" stroke-width="12" stroke-opacity="1"></use></g></g><g><use xlink:href="#a233cGgc9U" opacity="1" fill="#355972" fill-opacity="1"></use></g><g><g><use xlink:href="#e1lmF0razO" opacity="1" fill-opacity="0" stroke="#2da8a7" stroke-width="12" stroke-opacity="1"></use></g></g><g><use xlink:href="#bhMJEv1hq" opacity="1" fill="#355972" fill-opacity="1"></use></g><g><g><use xlink:href="#bXXu4qWeV" opacity="1" fill-opacity="0" stroke="#2da8a7" stroke-width="12" stroke-opacity="1"></use></g></g><g><use xlink:href="#bndJBUNy" opacity="1" fill="#355972" fill-opacity="1"></use></g><g><use xlink:href="#a5uX4zuSO" opacity="1" fill="#7ac3ee" fill-opacity="1"></use><g><use xlink:href="#a5uX4zuSO" opacity="1" fill-opacity="0" stroke="#2da8a7" stroke-width="12" stroke-opacity="1"></use></g></g><g><use xlink:href="#ahOuDMjSn" opacity="1" fill="#355972" fill-opacity="1"></use></g><g><g><use xlink:href="#e2GBJFKA5j" opacity="1" fill-opacity="0" stroke="#2da8a7" stroke-width="12" stroke-opacity="1"></use></g></g><g><use xlink:href="#a1OqzOBONs" opacity="1" fill="#355972" fill-opacity="1"></use></g><g><g><use xlink:href="#a16sUUveAJ" opacity="1" fill-opacity="0" stroke="#2da8a7" stroke-width="12" stroke-opacity="1"></use></g></g><g><use xlink:href="#a20f3KsC2Y" opacity="1" fill="#355972" fill-opacity="1"></use></g><g><g><use xlink:href="#b28s1wkxVd" opacity="1" fill-opacity="0" stroke="#2da8a7" stroke-width="12" stroke-opacity="1"></use></g></g><g><use xlink:href="#aKqaCJo91" opacity="1" fill="#355972" fill-opacity="1"></use></g><g><g><use xlink:href="#fvDosqkOT" opacity="1" fill-opacity="0" stroke="#2da8a7" stroke-width="12" stroke-opacity="1"></use></g></g><g><use xlink:href="#ayMx7q2iy" opacity="1" fill="#355972" fill-opacity="1"></use></g></g></g></svg>