<?xml version="1.0" encoding="UTF-8" standalone="no"?>
<!DOCTYPE svg PUBLIC "-//W3C//DTD SVG 1.1//EN" "http://www.w3.org/Graphics/SVG/1.1/DTD/svg11.dtd">
<svg version="1.1" xmlns="http://www.w3.org/2000/svg" xmlns:xlink="http://www.w3.org/1999/xlink" preserveAspectRatio="xMidYMid meet" viewBox="0 0 640 640" width="640" height="640"><defs><path d="M620.32 332.38L619.58 344.64L618.35 356.76L616.64 368.73L614.46 380.54L611.83 392.2L608.76 403.67L605.24 414.96L601.3 426.06L596.94 436.95L592.17 447.63L587 458.08L581.45 468.3L575.52 478.28L569.21 488.01L562.55 497.47L555.54 506.66L548.18 515.57L540.5 524.18L532.5 532.5L524.18 540.5L515.57 548.18L506.66 555.54L497.47 562.55L488.01 569.21L478.28 575.52L468.3 581.45L458.08 587L447.63 592.17L436.95 596.94L426.06 601.3L414.96 605.24L403.67 608.76L392.2 611.83L380.54 614.46L368.73 616.64L356.76 618.35L344.64 619.58L332.38 620.32L320 620.57L307.62 620.32L295.36 619.58L283.24 618.35L271.27 616.64L259.46 614.46L247.8 611.83L236.33 608.76L225.04 605.24L213.94 601.3L203.05 596.94L192.37 592.17L181.92 587L171.7 581.45L161.72 575.52L151.99 569.21L142.53 562.55L133.34 555.54L124.43 548.18L115.82 540.5L107.5 532.5L99.5 524.18L91.82 515.57L84.46 506.66L77.45 497.47L70.79 488.01L64.48 478.28L58.55 468.3L53 458.08L47.83 447.63L43.06 436.95L38.7 426.06L34.76 414.96L31.24 403.67L28.17 392.2L25.54 380.54L23.36 368.73L21.65 356.76L20.42 344.64L19.68 332.38L19.43 320L19.68 307.62L20.42 295.36L21.65 283.24L23.36 271.27L25.54 259.46L28.17 247.8L31.24 236.33L34.76 225.04L38.7 213.94L43.06 203.05L47.83 192.37L53 181.92L58.55 171.7L64.48 161.72L70.79 151.99L77.45 142.53L84.46 133.34L91.82 124.43L99.5 115.82L107.5 107.5L115.82 99.5L124.43 91.82L133.34 84.46L142.53 77.45L151.99 70.79L161.72 64.48L171.7 58.55L181.92 53L192.37 47.83L203.05 43.06L213.94 38.7L225.04 34.76L236.33 31.24L247.8 28.17L259.46 25.54L271.27 23.36L283.24 21.65L295.36 20.42L307.62 19.68L320 19.43L332.38 19.68L344.64 20.42L356.76 21.65L368.73 23.36L380.54 25.54L392.2 28.17L403.67 31.24L414.96 34.76L426.06 38.7L436.95 43.06L447.63 47.83L458.08 53L468.3 58.55L478.28 64.48L488.01 70.79L497.47 77.45L506.66 84.46L515.57 91.82L524.18 99.5L532.5 107.5L540.5 115.82L548.18 124.43L555.54 133.34L562.55 142.53L569.21 151.99L575.52 161.72L581.45 171.7L587 181.92L592.17 192.37L596.94 203.05L601.3 213.94L605.24 225.04L608.76 236.33L611.83 247.8L614.46 259.46L616.64 271.27L618.35 283.24L619.58 295.36L620.32 307.62L620.57 320L620.57 320L620.32 332.38Z" id="bbW8hIkRA"></path><linearGradient id="gradientb18lhtAEw" gradientUnits="userSpaceOnUse" x1="401.61" y1="41.26" x2="180.92" y2="580.34"><stop style="stop-color: #9ec2ff;stop-opacity: 1" offset="0%"></stop><stop style="stop-color: #0e79ff;stop-opacity: 1" offset="100%"></stop></linearGradient><path d="M485.09 424.95L421.59 487.81L320 383.9L218.41 487.81L154.91 424.95L257.52 320L154.91 215.05L218.41 152.19L320 256.1L421.59 152.19L485.09 215.05L382.48 320L382.48 320L485.09 424.95Z" id="m2Ly5OwLLp"></path><linearGradient id="gradientamjwRI32R" gradientUnits="userSpaceOnUse" x1="319.06" y1="151.63" x2="320.94" y2="488.37"><stop style="stop-color: #ffffff;stop-opacity: 1" offset="0%"></stop><stop style="stop-color: #b7d7ff;stop-opacity: 1" offset="100%"></stop></linearGradient></defs><g><g><g><use xlink:href="#bbW8hIkRA" opacity="1" fill="url(#gradientb18lhtAEw)"></use></g><g><use xlink:href="#m2Ly5OwLLp" opacity="1" fill="url(#gradientamjwRI32R)"></use></g></g></g></svg>