<?xml version="1.0" encoding="UTF-8" standalone="no"?>
<!DOCTYPE svg PUBLIC "-//W3C//DTD SVG 1.1//EN" "http://www.w3.org/Graphics/SVG/1.1/DTD/svg11.dtd">
<svg version="1.1" xmlns="http://www.w3.org/2000/svg" xmlns:xlink="http://www.w3.org/1999/xlink" preserveAspectRatio="xMidYMid meet" viewBox="0 0 900 675" width="900" height="675"><defs><path d="M539.47 508.58L454.47 535.91L369.68 513.14L456.3 482.99L539.47 508.58Z" id="ipC9BJVMO"></path><path d="M457.41 172.22L769.41 97.86L769.41 530.17L457.41 634.79L457.41 172.22Z" id="bfrxgP9Fv"></path><path d="M130.59 97.86L457.41 169.19L457.41 634.79L130.59 549.19L130.59 97.86Z" id="a2stf3V7t4"></path><path d="M159.36 150.96L423.12 208.53L423.12 584.28L159.36 515.2L159.36 150.96Z" id="e1pK87ZfCw"></path><path d="M164.33 157.82L418.16 213.22L418.16 574.83L164.33 508.35L164.33 157.82Z" id="a4MV2OIPgE"></path><path d="M261.75 301.55L293.96 300.22L299.37 431.1L267.16 432.43L261.75 301.55Z" id="e2df8eZL8h"></path><path d="M337.98 362.38C340.63 398.43 323.08 429.15 298.81 430.94C274.54 432.72 252.68 404.9 250.02 368.85C247.37 332.8 264.92 302.09 289.2 300.3C313.47 298.52 335.33 326.33 337.98 362.38Z" id="a3BN8I6iJ1"></path><path d="M769.41 97.86L457.41 172.22L130.59 97.86L457.41 30.59L769.41 97.86Z" id="b10760NgjQ"></path><path d="M307.54 363.71C310.2 399.76 292.64 430.48 268.37 432.27C244.1 434.05 222.24 406.23 219.59 370.18C216.94 334.13 234.49 303.41 258.76 301.63C283.03 299.84 304.89 327.66 307.54 363.71Z" id="abbwrZeS9"></path><path d="M291.09 364.98C292.62 385.86 282.46 403.65 268.4 404.68C254.34 405.72 241.68 389.61 240.14 368.73C238.61 347.85 248.77 330.05 262.83 329.02C276.89 327.98 289.55 344.1 291.09 364.98Z" id="c3jENfPy7T"></path><path d="M245.39 329.73L264.05 328.96L267.18 404.77L248.53 405.54L245.39 329.73Z" id="fOrHNlcgB"></path><path d="M272.43 365.75C273.97 386.63 263.8 404.42 249.74 405.46C235.68 406.49 223.02 390.38 221.49 369.5C219.95 348.62 230.12 330.82 244.18 329.79C258.23 328.76 270.9 344.87 272.43 365.75Z" id="a14mxfUFuV"></path></defs><g><g><g><use xlink:href="#ipC9BJVMO" opacity="1" fill="#cbe6ff" fill-opacity="1"></use></g><g><use xlink:href="#bfrxgP9Fv" opacity="1" fill="#5268cf" fill-opacity="1"></use></g><g><use xlink:href="#a2stf3V7t4" opacity="1" fill="#6480ff" fill-opacity="1"></use></g><g><use xlink:href="#e1pK87ZfCw" opacity="1" fill="#4f65cb" fill-opacity="1"></use></g><g><use xlink:href="#a4MV2OIPgE" opacity="1" fill="#6480ff" fill-opacity="1"></use></g><g><use xlink:href="#e2df8eZL8h" opacity="1" fill="#4559b4" fill-opacity="1"></use></g><g><use xlink:href="#a3BN8I6iJ1" opacity="1" fill="#4c60bd" fill-opacity="1"></use></g><g><use xlink:href="#b10760NgjQ" opacity="1" fill="#8fa3ff" fill-opacity="1"></use></g><g><use xlink:href="#abbwrZeS9" opacity="1" fill="#6e88ff" fill-opacity="1"></use></g><g><use xlink:href="#c3jENfPy7T" opacity="1" fill="#8aa9c5" fill-opacity="1"></use></g><g><use xlink:href="#fOrHNlcgB" opacity="1" fill="#8aa9c5" fill-opacity="1"></use></g><g><use xlink:href="#a14mxfUFuV" opacity="1" fill="#cee7ff" fill-opacity="1"></use></g></g></g></svg>